<?xml version="1.0" standalone="no"?>
<!DOCTYPE svg PUBLIC "-//W3C//DTD SVG 1.1//EN" "http://www.w3.org/Graphics/SVG/1.1/DTD/svg11.dtd" >
<svg>
<metadata>
Created by FontForge 20120731 at Sun Sep 22 15:52:45 2019
 By www
Copyright (c) 2014 by Typetype. Designer Ivan Gladkikh, technical designer Dmitry Rastvortsev, Nadyr Rakhimov. All rights reserved.
</metadata>
<defs>
<font id="TTDaysSans-Bold" horiz-adv-x="650" >
  <font-face 
    font-family="TTDaysSans-Bold"
    font-weight="400"
    font-stretch="normal"
    units-per-em="1000"
    panose-1="2 0 8 5 0 0 0 2 0 3"
    ascent="792"
    descent="-208"
    x-height="510"
    cap-height="700"
    bbox="-80 -320 1270 1010"
    underline-thickness="50"
    underline-position="-50"
    unicode-range="U+000D-F6D4"
  />
<missing-glyph horiz-adv-x="300" 
 />
    <glyph glyph-name=".notdef" horiz-adv-x="300" 
 />
    <glyph glyph-name=".null" horiz-adv-x="0" 
 />
    <glyph glyph-name="nonmarkingreturn" unicode="&#xd;" horiz-adv-x="0" 
 />
    <glyph glyph-name="nonmarkingreturn" horiz-adv-x="0" 
 />
    <glyph glyph-name="space" unicode=" " horiz-adv-x="300" 
 />
    <glyph glyph-name="exclam" unicode="!" horiz-adv-x="325" 
d="M225 235q0 -25 -25 -25h-75q-25 0 -25 25l-10 440q0 25 25 25h95q25 0 25 -25zM95 95q0 15 10 25t25 10h65q15 0 25 -10t10 -25v-60q0 -15 -10 -25t-25 -10h-65q-15 0 -25 10t-10 25v60z" />
    <glyph glyph-name="quotedbl" unicode="&#x22;" horiz-adv-x="405" 
d="M140 700q25 0 25 -25l-15 -205q-1 -8 -6.5 -14t-13.5 -6h-55q-8 0 -13.5 6t-6.5 14l-15 205q0 25 25 25h75zM340 700q25 0 25 -25l-15 -205q-1 -8 -6.5 -14t-13.5 -6h-55q-8 0 -13.5 6t-6.5 14l-15 205q0 25 25 25h75z" />
    <glyph glyph-name="numbersign" unicode="#" horiz-adv-x="820" 
d="M140 165h-95q-25 0 -25 25v50q0 25 25 25h120l50 175h-110q-25 0 -25 25v50q0 25 25 25h135l40 135q7 25 35 25h80q11 0 17 -7t3 -18l-40 -135h175l40 135q7 25 35 25h80q11 0 17 -7t3 -18l-40 -135h90q25 0 25 -25v-50q0 -25 -25 -25h-115l-50 -175h105q25 0 25 -25v-50
q0 -25 -25 -25h-130l-40 -140q-7 -25 -35 -25h-80q-11 0 -17 7t-3 18l40 140h-175l-40 -140q-7 -25 -35 -25h-80q-11 0 -17 7t-3 18zM300 265h175l50 175h-175z" />
    <glyph glyph-name="dollar" unicode="$" horiz-adv-x="775" 
d="M215 510q0 -29 22.5 -46.5t59 -28t83 -17.5t95.5 -16t95.5 -22t83 -35.5t59 -57t22.5 -87.5q0 -39 -16.5 -75.5t-51 -65.5t-87 -49.5t-125.5 -26.5v-48q0 -25 -25 -25h-80q-25 0 -25 25v48q-71 7 -122.5 28t-86 51t-53 67t-23.5 75q0 26 25 26h85q11 0 21 -7t14 -18
q9 -22 24.5 -42.5t39.5 -36.5t58.5 -26t82.5 -10q53 0 90 9.5t60 25t34 35t11 40.5q0 28 -22.5 45t-59 27.5t-83 17.5t-95.5 16t-95.5 22.5t-83 36t-59 58t-22.5 87.5q0 37 15.5 71.5t47 62.5t81 47t116.5 26v48q0 25 25 25h80q25 0 25 -25v-49q65 -7 112 -27.5t79 -49.5
t49 -64t20 -70q0 -25 -25 -25h-85q-22 0 -35 25q-7 18 -20.5 36.5t-35 34t-52 25t-72.5 9.5q-45 0 -78 -9t-54.5 -23t-32 -32t-10.5 -36z" />
    <glyph glyph-name="percent" unicode="%" horiz-adv-x="890" 
d="M750 700q11 0 17.5 -7t-2.5 -18l-490 -650q-8 -11 -19 -18t-26 -7h-90q-11 0 -16 8.5t1 16.5l490 650q8 11 19 18t26 7h90zM135 545q0 -42 22.5 -66t52.5 -24t52.5 24t22.5 66t-22.5 66t-52.5 24t-52.5 -24t-22.5 -66zM25 545q0 38 13.5 70t38 55t58.5 36.5t75 13.5
t75 -13.5t58.5 -36.5t38 -55t13.5 -70q0 -37 -13.5 -69.5t-38 -55.5t-58.5 -36.5t-75 -13.5t-75 13.5t-58.5 36.5t-38 55.5t-13.5 69.5zM605 155q0 -42 22.5 -66t52.5 -24t52.5 24t22.5 66t-22.5 66t-52.5 24t-52.5 -24t-22.5 -66zM495 155q0 38 13.5 70t38 55t58.5 36.5
t75 13.5t75 -13.5t58.5 -36.5t38 -55t13.5 -70q0 -37 -13.5 -69.5t-38 -55.5t-58.5 -36.5t-75 -13.5t-75 13.5t-58.5 36.5t-38 55.5t-13.5 69.5z" />
    <glyph glyph-name="ampersand" unicode="&#x26;" horiz-adv-x="784" 
d="M520 80h-5q-5 -5 -23 -21t-48 -33.5t-70 -31.5t-89 -14q-60 0 -107.5 16.5t-80 44.5t-50 65.5t-17.5 78.5q0 54 26.5 91.5t58.5 60.5q37 27 85 43v5q-21 14 -37 34q-16 18 -27 42.5t-11 58.5q0 39 16 75.5t49.5 64t84.5 44t120 16.5q64 0 114 -18.5t86 -48.5t56 -67.5
t24 -75.5q0 -25 -25 -25h-80q-15 0 -24.5 5t-15.5 20q-8 19 -20 37t-29 32t-38.5 22.5t-47.5 8.5q-60 0 -90 -26t-30 -64q0 -19 18 -43t40 -46q25 -25 57 -51l135 -125l80 85q9 9 20 8.5t20 -8.5l45 -40q9 -8 8 -18t-8 -17l-80 -90l160 -150q7 -8 1.5 -16.5t-16.5 -8.5h-125
q-15 0 -27 7t-23 17zM285 90q34 0 61.5 11t47 24t30.5 24l11 11l-155 145q-27 -11 -47 -28q-20 -16 -34 -38t-14 -54q0 -42 27.5 -68.5t72.5 -26.5z" />
    <glyph glyph-name="quotesingle" unicode="'" horiz-adv-x="205" 
d="M140 700q25 0 25 -25l-15 -205q-1 -8 -6.5 -14t-13.5 -6h-55q-8 0 -13.5 6t-6.5 14l-15 205q0 25 25 25h75z" />
    <glyph glyph-name="parenleft" unicode="(" horiz-adv-x="400" 
d="M200 310q0 -51 8 -95.5t21 -83t29.5 -71t34.5 -59.5q40 -61 92 -106q10 -10 0 -21l-60 -64q-10 -10 -25 0q-69 53 -122 126q-33 42 -52 77.5t-34.5 81t-26 99.5t-10.5 116t10.5 116.5t28 101t39.5 85.5t45 71q53 73 122 126q15 10 25 0l60 -64q10 -11 0 -21
q-52 -45 -92 -106q-25 -35 -39.5 -64.5t-26 -67t-19.5 -82t-8 -95.5z" />
    <glyph glyph-name="parenright" unicode=")" horiz-adv-x="400" 
d="M200 310q0 51 -8 95.5t-21 83t-29.5 71.5t-33.5 59q-41 61 -93 106q-10 10 0 21l60 64q10 10 25 0q69 -53 123 -126q32 -42 51 -77.5t34.5 -81t26 -99.5t10.5 -116t-10.5 -116.5t-28 -101t-39.5 -85.5t-44 -71q-54 -73 -123 -126q-15 -10 -25 0l-60 64q-10 11 0 21
q52 45 93 106q24 35 38.5 64.5t26 67t19.5 82t8 95.5z" />
    <glyph glyph-name="asterisk" unicode="*" horiz-adv-x="484" 
d="M412 370q-5 -10 -15 -12.5t-20 2.5l-85 50v-95q0 -25 -25 -25h-50q-25 0 -25 25v95l-85 -50q-10 -6 -19.5 -3t-15.5 13l-23 40q-11 21 10 34l88 51l-88 51q-21 13 -10 34l23 40q13 22 35 10l85 -50v95q0 25 25 25h50q25 0 25 -25v-95l85 50q10 6 20 3t15 -12l23 -41
q11 -21 -10 -34l-88 -51l88 -51q21 -13 10 -34z" />
    <glyph glyph-name="plus" unicode="+" horiz-adv-x="590" 
d="M265 79q-11 0 -18 7t-7 18v176h-175q-25 0 -25 25v60q0 11 7 18t18 7h175v174q0 25 25 25h60q11 0 18 -7t7 -18v-174h175q25 0 25 -25v-60q0 -11 -7 -18t-18 -7h-175v-176q0 -25 -25 -25h-60z" />
    <glyph glyph-name="comma" unicode="," horiz-adv-x="235" 
d="M50 95q0 15 10 25t25 10h65q15 0 25 -10t10 -25v-60q0 -23 -3.5 -33.5t-6.5 -16.5l-38 -65q-5 -8 -13 -14t-20 -6h-24q-8 0 -13.5 6t-1.5 14l40 80h-20q-15 0 -25 10t-10 25v60z" />
    <glyph glyph-name="hyphen" unicode="-" horiz-adv-x="560" 
d="M520 305q0 -11 -7 -18t-18 -7h-430q-25 0 -25 25v60q0 11 7 18t18 7h430q25 0 25 -25v-60z" />
    <glyph glyph-name="period" unicode="." horiz-adv-x="235" 
d="M50 95q0 15 10 25t25 10h65q15 0 25 -10t10 -25v-60q0 -15 -10 -25t-25 -10h-65q-15 0 -25 10t-10 25v60z" />
    <glyph glyph-name="slash" unicode="/" horiz-adv-x="566" 
d="M393 675q5 9 14.5 17t25.5 8h95q11 0 15.5 -8.5t-0.5 -16.5l-370 -651q-6 -11 -15.5 -17.5t-24.5 -6.5h-96q-11 0 -15 8.5t1 16.5z" />
    <glyph glyph-name="zero" unicode="0" horiz-adv-x="780" 
d="M200 350q0 -66 15 -114.5t40.5 -81t60.5 -48.5t74 -16t74 16t60.5 48.5t40.5 81t15 114.5t-15 114.5t-40.5 81t-60.5 48.5t-74 16t-74 -16t-60.5 -48.5t-40.5 -81t-15 -114.5zM730 350q0 -88 -24.5 -157t-69 -116t-107 -72t-139.5 -25t-139.5 25t-107 72t-69 116
t-24.5 157t24.5 157t69 116t107 72t139.5 25t139.5 -25t107 -72t69 -116t24.5 -157z" />
    <glyph glyph-name="one" unicode="1" horiz-adv-x="429" 
d="M314 700q25 0 25 -25v-650q0 -25 -25 -25h-95q-25 0 -25 25v510h-5l-100 -65q-8 -5 -16.5 -3.5t-13.5 8.5l-35 55q-5 8 -3.5 16.5t8.5 13.5l150 115q14 11 27.5 18t32.5 7h75z" />
    <glyph glyph-name="two" unicode="2" horiz-adv-x="705" 
d="M355 720q73 0 129 -18.5t94 -50t57.5 -73t19.5 -88.5q0 -64 -31 -107.5t-78 -74.5t-102.5 -52.5t-105 -42t-85.5 -43t-43 -55.5h420q25 0 25 -25v-65q0 -25 -25 -25h-565q-25 0 -25 25v55q0 61 34.5 104t86 75.5t112 57.5t112 50t86 54t34.5 69q0 24 -10 46t-29.5 38.5
t-47 26t-63.5 9.5q-37 0 -65.5 -9.5t-49 -24.5t-34 -34t-21.5 -37q-6 -11 -15 -18t-20 -7h-80q-25 0 -25 25q5 40 26 78.5t60 69t95 49t129 18.5z" />
    <glyph glyph-name="three" unicode="3" horiz-adv-x="735" 
d="M365 720q73 0 128.5 -17.5t92.5 -46t55.5 -65.5t18.5 -76q0 -45 -19.5 -73t-42.5 -44q-28 -19 -63 -28v-5q42 -9 75 -31q20 -11 31.5 -23t21 -28.5t16 -38.5t6.5 -49q0 -43 -19 -82t-58.5 -68.5t-99.5 -47t-143 -17.5q-77 0 -136 19t-99.5 50t-63 70.5t-26.5 80.5
q0 25 25 25h80q15 0 25.5 -5.5t14.5 -19.5q6 -19 20 -38.5t36.5 -35.5t53.5 -26t70 -10q43 0 75 9.5t53 24.5t31.5 33.5t10.5 37.5q0 45 -36 77.5t-104 32.5h-90q-25 0 -25 25v65q0 25 25 25h90q53 0 84 28.5t31 66.5t-35.5 66.5t-109.5 28.5q-37 0 -64.5 -9.5t-46 -24.5
t-30.5 -33.5t-19 -37.5q-12 -25 -35 -25h-80q-25 0 -25 25q5 40 27 78.5t60 69t92 49t121 18.5z" />
    <glyph glyph-name="four" unicode="4" horiz-adv-x="755" 
d="M435 675q11 11 20.5 18t24.5 7h120q25 0 25 -25v-425h75q25 0 25 -25v-65q0 -25 -25 -25h-75v-110q0 -25 -25 -25h-95q-25 0 -25 25v110h-435q-25 0 -25 25v65q0 11 8 23.5t17 21.5zM480 250v300h-5l-280 -295v-5h285z" />
    <glyph glyph-name="five" unicode="5" horiz-adv-x="730" 
d="M625 700q25 0 25 -25v-65q0 -25 -25 -25h-385q-2 -41 -5 -80.5t-5 -79.5h5q15 11 38 20q20 8 48.5 14t68.5 6q73 0 129 -18.5t94 -51t57.5 -76t19.5 -94.5q0 -52 -20 -97t-59.5 -78t-99.5 -51.5t-141 -18.5q-77 0 -135 19t-97.5 49.5t-61 69t-26.5 77.5q0 25 25 25h85
q15 0 23 -7t12 -18q6 -21 18.5 -40t33.5 -33.5t51.5 -23t71.5 -8.5t73 10.5t53.5 29t32.5 43t11 52.5q0 57 -39 93.5t-111 36.5q-58 0 -93.5 -10.5t-66.5 -24.5q-17 -8 -29 -14t-31 -6h-60q-30 0 -30 25l20 350q2 25 30 25h495z" />
    <glyph glyph-name="six" unicode="6" horiz-adv-x="730" 
d="M385 720q68 0 119.5 -16.5t87.5 -42t55.5 -56.5t22.5 -60q0 -25 -25 -25h-80q-11 0 -24 7t-21 18q-7 10 -18 21.5t-27.5 21t-38.5 16t-51 6.5q-36 0 -69.5 -15.5t-59 -43t-41 -65t-15.5 -81.5h5q19 15 45 28q23 11 55 19t75 8q75 0 133 -19t97 -51.5t59.5 -75t20.5 -89.5
q0 -51 -20 -95.5t-59.5 -77.5t-97.5 -52.5t-133 -19.5q-73 0 -134 24.5t-104.5 71t-67.5 113.5t-24 151q0 90 25 160.5t69.5 119.5t106 74.5t134.5 25.5zM380 90q38 0 67.5 10.5t50 29t31.5 43t11 52.5q0 24 -11 47t-31.5 40t-50 27.5t-67.5 10.5q-40 0 -72 -9.5t-55 -20.5
q-27 -13 -48 -30q0 -43 14.5 -79.5t39 -63.5t56 -42t65.5 -15z" />
    <glyph glyph-name="seven" unicode="7" 
d="M605 700q25 0 25 -25v-65q0 -11 -4.5 -22.5t-10.5 -22.5l-290 -540q-6 -11 -17.5 -18t-22.5 -7h-105q-11 0 -15.5 7t0.5 18l300 555v5h-420q-25 0 -25 25v65q0 25 25 25h560z" />
    <glyph glyph-name="eight" unicode="8" horiz-adv-x="740" 
d="M520 515q0 38 -35.5 66.5t-114.5 28.5t-114.5 -28.5t-35.5 -66.5q0 -37 35.5 -66t114.5 -29t114.5 29t35.5 66zM550 200q0 19 -11 38.5t-33.5 35.5t-56.5 26t-79 10t-78.5 -10t-56 -26t-34 -35.5t-11.5 -38.5t11.5 -38.5t34 -35.5t56 -26t78.5 -10t79 10t56.5 26
t33.5 35.5t11 38.5zM370 -20q-84 0 -146.5 18t-103 47.5t-60.5 67.5t-20 77q0 55 24 89t54 53q34 22 77 33v5q-35 9 -62 28q-26 16 -44.5 44t-18.5 73q0 36 19 72.5t56.5 66t94 48t130.5 18.5t130.5 -18.5t94 -48t56.5 -66t19 -72.5q0 -45 -19.5 -73t-42.5 -44
q-28 -19 -63 -28v-5q43 -11 78 -33q20 -12 32 -24.5t22 -29.5t16.5 -39t6.5 -49q0 -39 -20 -77t-60.5 -67.5t-103 -47.5t-146.5 -18z" />
    <glyph glyph-name="nine" unicode="9" horiz-adv-x="730" 
d="M345 -20q-68 0 -119.5 16.5t-87.5 42t-55.5 56.5t-22.5 60q0 25 25 25h80q11 0 24 -7t21 -18q7 -10 18 -21.5t27.5 -21t38.5 -16t51 -6.5q36 0 69.5 15.5t59 43t41 65t15.5 81.5h-5q-19 -15 -45 -27q-23 -12 -55 -20t-75 -8q-75 0 -133 19t-97 51.5t-59.5 75t-20.5 89.5
q0 51 20 95.5t59.5 77.5t97.5 52.5t133 19.5q73 0 134 -24.5t104.5 -71t67.5 -113.5t24 -151q0 -90 -25 -160.5t-69.5 -119.5t-106 -74.5t-134.5 -25.5zM350 610q-37 0 -67 -10.5t-50.5 -29t-31.5 -43t-11 -52.5q0 -24 11 -47t31.5 -40t50.5 -27.5t67 -10.5q40 0 72 9.5
t55 20.5q27 13 48 30q0 43 -14.5 79.5t-39 63.5t-56 42t-65.5 15z" />
    <glyph glyph-name="colon" unicode=":" horiz-adv-x="255" 
d="M60 475q0 15 10 25t25 10h65q15 0 25 -10t10 -25v-60q0 -15 -10 -25t-25 -10h-65q-15 0 -25 10t-10 25v60zM60 95q0 15 10 25t25 10h65q15 0 25 -10t10 -25v-60q0 -15 -10 -25t-25 -10h-65q-15 0 -25 10t-10 25v60z" />
    <glyph glyph-name="semicolon" unicode=";" horiz-adv-x="255" 
d="M60 475q0 15 10 25t25 10h65q15 0 25 -10t10 -25v-60q0 -15 -10 -25t-25 -10h-65q-15 0 -25 10t-10 25v60zM60 95q0 15 10 25t25 10h65q15 0 25 -10t10 -25v-60q0 -23 -3.5 -33.5t-6.5 -16.5l-38 -65q-5 -8 -13 -14t-20 -6h-24q-8 0 -13.5 6t-1.5 14l40 80h-20
q-15 0 -25 10t-10 25v60z" />
    <glyph glyph-name="less" unicode="&#x3c;" horiz-adv-x="570" 
d="M40 295q0 25 25 35l425 185q11 5 20.5 0t9.5 -20v-65q0 -21 -30 -35l-305 -135v-5l305 -135q30 -13 30 -35v-65q0 -15 -9.5 -20t-20.5 0l-425 185q-25 10 -25 35v75z" />
    <glyph glyph-name="equal" unicode="=" horiz-adv-x="560" 
d="M510 405q0 -11 -7 -18t-18 -7h-410q-25 0 -25 25v60q0 11 7 18t18 7h410q25 0 25 -25v-60zM510 175q0 -11 -7 -18t-18 -7h-410q-25 0 -25 25v60q0 11 7 18t18 7h410q25 0 25 -25v-60z" />
    <glyph glyph-name="greater" unicode="&#x3e;" horiz-adv-x="570" 
d="M530 220q0 -25 -25 -35l-425 -185q-11 -5 -20.5 0t-9.5 20v65q0 22 30 35l305 135v5l-305 135q-30 14 -30 35v65q0 15 9.5 20t20.5 0l425 -185q25 -10 25 -35v-75z" />
    <glyph glyph-name="question" unicode="?" horiz-adv-x="690" 
d="M505 500q0 19 -10.5 38.5t-31.5 35.5t-52 26t-71 10q-37 0 -67 -10t-52 -26t-36 -35.5t-20 -38.5q-8 -25 -31 -25h-89q-25 0 -25 25q2 41 23.5 80.5t62 70.5t99.5 50t135 19q77 0 136 -19t98.5 -50t60 -70.5t20.5 -80.5q0 -45 -18.5 -76t-46.5 -53.5t-60 -38.5t-60 -30.5
t-46.5 -30t-18.5 -36.5q-3 -25 -25 -25h-95q-25 0 -25 25q0 39 18 66t45.5 47t59 36t59 32.5t45.5 36t18 47.5zM265 95q0 15 10 25t25 10h65q15 0 25 -10t10 -25v-60q0 -15 -10 -25t-25 -10h-65q-15 0 -25 10t-10 25v60z" />
    <glyph glyph-name="at" unicode="@" horiz-adv-x="1000" 
d="M750 150q-35 0 -60 8t-42 17q-20 11 -33 25h-5q-12 -14 -30 -25q-17 -10 -41 -17.5t-59 -7.5q-39 0 -73 15t-59 41.5t-39 63t-14 80.5t14 80.5t39 63t59 41.5t73 15q25 0 44.5 -8t32.5 -17q16 -11 28 -25h5v15q0 8 6 14t14 6h65q8 0 14 -6t6 -14v-255q6 -6 14 -10t18 -7
t23 -3q17 0 33 8.5t29 26.5t20.5 45.5t7.5 64.5q0 60 -24.5 113.5t-68.5 94t-106 64t-136 23.5q-75 0 -137 -24.5t-106 -68.5t-68 -104.5t-24 -132.5q0 -71 23.5 -131.5t68 -104.5t108.5 -69t145 -25q38 0 66.5 5.5t51 12t40 12t32.5 5.5h25q25 0 25 -25v-40q0 -11 -7 -21.5
t-18 -13.5q-6 -2 -23.5 -7.5t-45.5 -11.5t-65 -11t-81 -5q-103 0 -188.5 33.5t-147 91.5t-95.5 136.5t-34 168.5q0 92 33 170.5t93 136.5t144 90.5t185 32.5t185 -32t144 -86.5t93 -126t33 -150.5q0 -54 -16 -97.5t-44.5 -74t-66.5 -47t-83 -16.5zM403 350q0 -53 27 -81.5
t70 -28.5q20 0 36.5 6t28.5 14q14 9 25 20v135q-1 2 -8 9t-19 15t-27.5 14.5t-35.5 6.5q-43 0 -70 -29.5t-27 -80.5z" />
    <glyph glyph-name="A" unicode="A" horiz-adv-x="811" 
d="M463 700q28 0 40 -25l300 -650q5 -11 0.5 -18t-15.5 -7h-105q-15 0 -22.5 7t-12.5 18l-55 125h-375l-55 -125q-5 -11 -12.5 -18t-22.5 -7h-105q-11 0 -15.5 7t0.5 18l300 650q12 25 40 25h115zM408 560h-5l-130 -295h265z" />
    <glyph glyph-name="B" unicode="B" horiz-adv-x="820" 
d="M90 675q0 25 25 25h340q71 0 123 -15t86 -40.5t50 -60.5t16 -74q0 -42 -17 -68.5t-38 -42.5q-24 -19 -55 -29v-5q45 -10 80 -32q21 -12 33.5 -24t23 -28.5t17 -38t6.5 -47.5q0 -39 -17 -74.5t-53 -62.5t-90.5 -42.5t-129.5 -15.5h-375q-25 0 -25 25v650zM235 305v-190
h255q72 0 106 28.5t34 66.5t-34 66.5t-106 28.5h-255zM235 585v-165h220q60 0 92.5 25t32.5 55q0 38 -28.5 61.5t-96.5 23.5h-220z" />
    <glyph glyph-name="C" unicode="C" horiz-adv-x="840" 
d="M440 720q79 0 140.5 -20.5t105.5 -54.5t70.5 -77t33.5 -88q0 -25 -25 -25h-90q-15 0 -23 7t-12 18q-9 26 -25.5 49.5t-41 41.5t-57.5 28.5t-76 10.5q-55 0 -99 -18t-75.5 -52t-48.5 -82t-17 -108q0 -62 18 -110.5t49.5 -81.5t76 -50.5t96.5 -17.5q45 0 79 10.5t59.5 29.5
t43 44.5t28.5 55.5q5 11 12.5 18t22.5 7h90q25 0 25 -25q-7 -49 -33.5 -94t-71.5 -79.5t-108.5 -55.5t-146.5 -21q-92 0 -164.5 26t-122.5 74.5t-76.5 117t-26.5 152.5t26.5 152.5t76.5 117t122.5 74.5t164.5 26z" />
    <glyph glyph-name="D" unicode="D" horiz-adv-x="855" 
d="M415 115q117 0 181 63t64 172t-64 172t-181 63h-180v-470h180zM810 350q0 -77 -26.5 -141t-77 -110.5t-124 -72.5t-166.5 -26h-301q-25 0 -25 25v650q0 25 25 25h300q94 0 167.5 -26t124 -72.5t77 -110.5t26.5 -141z" />
    <glyph glyph-name="E" unicode="E" horiz-adv-x="765" 
d="M90 675q0 25 25 25h585q25 0 25 -25v-65q0 -25 -25 -25h-465v-170h355q25 0 25 -25v-65q0 -25 -25 -25h-355v-185h465q25 0 25 -25v-65q0 -25 -25 -25h-585q-25 0 -25 25v650z" />
    <glyph glyph-name="F" unicode="F" horiz-adv-x="730" 
d="M90 675q0 25 25 25h565q25 0 25 -25v-65q0 -25 -25 -25h-445v-210h360q25 0 25 -25v-65q0 -25 -25 -25h-360v-235q0 -25 -25 -25h-95q-25 0 -25 25v650z" />
    <glyph glyph-name="G" unicode="G" horiz-adv-x="850" 
d="M440 610q-54 0 -98.5 -17.5t-76 -50.5t-48.5 -81.5t-17 -110.5t17 -110.5t48.5 -81.5t76 -50.5t98.5 -17.5q47 0 86.5 15.5t68 40t44.5 56t16 63.5v5h-165q-25 0 -25 25v60q0 25 25 25h285q25 0 25 -25v-78q0 -59 -26 -112.5t-73.5 -94.5t-113.5 -65.5t-147 -24.5
q-92 0 -164.5 26t-122.5 74.5t-76.5 117t-26.5 152.5t26.5 152.5t76.5 117t122.5 74.5t164.5 26q79 0 140.5 -20.5t105.5 -54.5t70.5 -77t33.5 -88q0 -25 -25 -25h-90q-15 0 -23 7t-12 18q-9 26 -25.5 49.5t-41 41.5t-57.5 28.5t-76 10.5z" />
    <glyph glyph-name="H" unicode="H" horiz-adv-x="860" 
d="M90 675q0 25 25 25h95q25 0 25 -25v-270h390v270q0 25 25 25h95q25 0 25 -25v-650q0 -25 -25 -25h-95q-25 0 -25 25v265h-390v-265q0 -25 -25 -25h-95q-25 0 -25 25v650z" />
    <glyph glyph-name="I" unicode="I" horiz-adv-x="525" 
d="M40 675q0 25 25 25h395q25 0 25 -25v-65q0 -25 -25 -25h-125v-470h125q25 0 25 -25v-65q0 -25 -25 -25h-395q-25 0 -25 25v65q0 25 25 25h125v470h-125q-25 0 -25 25v65z" />
    <glyph glyph-name="J" unicode="J" horiz-adv-x="550" 
d="M80 115q15 0 30 -5t30 -5h20q72 0 116 45t44 120v405q0 25 25 25h95q25 0 25 -25v-405q0 -132 -77 -206t-228 -74h-125q-25 0 -25 25v75q0 25 25 25h45z" />
    <glyph glyph-name="K" unicode="K" horiz-adv-x="807" 
d="M540 360q18 -5 38 -20q19 -14 40.5 -39.5t46.5 -70.5l110 -205q4 -8 0 -16.5t-15 -8.5h-100q-19 0 -29 7t-16 18l-110 205q-16 29 -41.5 49.5t-73.5 20.5h-155v-275q0 -25 -25 -25h-95q-25 0 -25 25v650q0 25 25 25h95q25 0 25 -25v-260h140q51 0 77.5 20.5t42.5 49.5
l100 190q5 11 15.5 18t29.5 7h100q11 0 15 -8.5t0 -16.5l-100 -190q-21 -40 -41.5 -63.5t-36.5 -35.5q-19 -15 -37 -21v-5z" />
    <glyph glyph-name="L" unicode="L" horiz-adv-x="705" 
d="M90 675q0 25 25 25h95q25 0 25 -25v-560h425q25 0 25 -25v-65q0 -25 -25 -25h-545q-25 0 -25 25v650z" />
    <glyph glyph-name="M" unicode="M" horiz-adv-x="1085" 
d="M505 0q-15 0 -25.5 8.5t-14.5 16.5l-225 451h-5v-451q0 -25 -25 -25h-95q-25 0 -25 25v650q0 25 25 25h135q15 0 23 -8t13 -17l254 -510h5l254 510q5 9 13 17t23 8h135q25 0 25 -25v-650q0 -25 -25 -25h-95q-25 0 -25 25v451h-5l-225 -451q-4 -8 -14.5 -16.5t-25.5 -8.5
h-75z" />
    <glyph glyph-name="N" unicode="N" horiz-adv-x="870" 
d="M630 205h5v470q0 25 25 25h95q25 0 25 -25v-650q0 -25 -25 -25h-111q-14 0 -25 7.5t-19 17.5l-360 470h-5v-470q0 -25 -25 -25h-95q-25 0 -25 25v650q0 25 25 25h111q14 0 25 -7.5t19 -17.5z" />
    <glyph glyph-name="O" unicode="O" horiz-adv-x="880" 
d="M200 350q0 -62 17 -110.5t48.5 -81.5t76 -50.5t98.5 -17.5t98.5 17.5t76 50.5t48.5 81.5t17 110.5t-17 110.5t-48.5 81.5t-76 50.5t-98.5 17.5t-98.5 -17.5t-76 -50.5t-48.5 -81.5t-17 -110.5zM830 350q0 -84 -26.5 -152.5t-76.5 -117t-122.5 -74.5t-164.5 -26t-164.5 26
t-122.5 74.5t-76.5 117t-26.5 152.5t26.5 152.5t76.5 117t122.5 74.5t164.5 26t164.5 -26t122.5 -74.5t76.5 -117t26.5 -152.5z" />
    <glyph glyph-name="P" unicode="P" horiz-adv-x="805" 
d="M775 455q0 -52 -20 -97t-59.5 -78t-99.5 -51.5t-141 -18.5h-220v-185q0 -25 -25 -25h-95q-25 0 -25 25v650q0 25 25 25h340q81 0 141 -18.5t99.5 -51.5t59.5 -77.5t20 -97.5zM235 585v-260h220q41 0 73 10.5t53.5 28.5t32.5 41.5t11 49.5t-11 49.5t-32.5 41.5t-53.5 28.5
t-73 10.5h-220z" />
    <glyph glyph-name="Q" unicode="Q" horiz-adv-x="895" 
d="M830 350q0 -75 -33.5 -138.5t-86.5 -101.5v-5h140q25 0 25 -25v-65q0 -25 -25 -25h-410q-92 0 -164.5 26t-122.5 73.5t-76.5 113.5t-26.5 147q0 84 26.5 152.5t76.5 117t122.5 74.5t164.5 26t164.5 -26t122.5 -74.5t76.5 -117t26.5 -152.5zM200 350q0 -58 17 -104.5
t48.5 -78.5t76 -49.5t98.5 -17.5t98.5 17.5t76 49.5t48.5 78.5t17 104.5q0 62 -17 110.5t-48.5 81.5t-76 50.5t-98.5 17.5t-98.5 -17.5t-76 -50.5t-48.5 -81.5t-17 -110.5z" />
    <glyph glyph-name="R" unicode="R" horiz-adv-x="834" 
d="M610 310l8.5 -3t23 -15t33.5 -35t40 -62l90 -170q6 -11 1 -18t-16 -7h-105q-11 0 -22.5 7t-17.5 18l-90 170q-16 29 -45.5 47t-74.5 18h-200v-235q0 -25 -25 -25h-95q-25 0 -25 25v650q0 25 25 25h340q77 0 134 -18t95 -48.5t57 -70t19 -83.5q0 -53 -23.5 -85t-51.5 -50
q-33 -21 -75 -30v-5zM235 585v-210h205q87 0 128.5 28t41.5 77q0 45 -37 75t-118 30h-220z" />
    <glyph glyph-name="S" unicode="S" horiz-adv-x="775" 
d="M215 510q0 -29 22.5 -46.5t59 -28t83 -17.5t95.5 -16t95.5 -22t83 -35.5t59 -57t22.5 -87.5q0 -43 -20 -83t-62.5 -70.5t-107.5 -48.5t-155 -18q-88 0 -152 19t-106 50.5t-64 72t-28 82.5q0 26 25 26h85q11 0 21 -7t14 -18q9 -22 24.5 -42.5t39.5 -36.5t58.5 -26
t82.5 -10q53 0 90 9.5t60 25t34 35t11 40.5q0 28 -22.5 45t-59 27.5t-83 17.5t-95.5 16t-95.5 22.5t-83 36t-59 58t-22.5 87.5q0 41 19 79t59 67t101.5 46.5t145.5 17.5q82 0 141.5 -19t99 -49.5t60 -69t24.5 -77.5q0 -25 -25 -25h-85q-22 0 -35 25q-7 18 -20.5 36.5t-35 34
t-52 25t-72.5 9.5q-45 0 -78 -9t-54.5 -23t-32 -32t-10.5 -36z" />
    <glyph glyph-name="T" unicode="T" horiz-adv-x="725" 
d="M435 25q0 -25 -25 -25h-95q-25 0 -25 25v560h-245q-25 0 -25 25v65q0 25 25 25h635q25 0 25 -25v-65q0 -25 -25 -25h-245v-560z" />
    <glyph glyph-name="U" unicode="U" horiz-adv-x="850" 
d="M425 -20q-81 0 -144 22.5t-106.5 62.5t-66.5 96.5t-23 123.5v390q0 25 25 25h95q25 0 25 -25v-390q0 -43 14.5 -79t40 -61.5t61.5 -40t79 -14.5t79 14.5t61.5 40t40 61.5t14.5 79v390q0 25 25 25h95q25 0 25 -25v-390q0 -67 -23 -123.5t-66.5 -96.5t-106.5 -62.5
t-144 -22.5z" />
    <glyph glyph-name="V" unicode="V" horiz-adv-x="791" 
d="M628 675q10 25 35 25h105q11 0 15.5 -7t-0.5 -18l-285 -650q-12 -25 -35 -25h-135q-23 0 -35 25l-285 650q-5 11 -0.5 18t15.5 7h105q25 0 35 -25l230 -530h5z" />
    <glyph glyph-name="W" unicode="W" horiz-adv-x="1127" 
d="M626 700q22 0 30 -25l150 -495h5l150 495q4 11 12 18t23 7h95q11 0 17 -7t3 -18l-195 -650q-3 -11 -13 -18t-22 -7h-125q-11 0 -21.5 7t-13.5 18l-155 495h-5l-155 -495q-3 -11 -13.5 -18t-21.5 -7h-125q-12 0 -22 7t-13 18l-195 650q-3 11 3 18t17 7h95q15 0 23 -7
t12 -18l150 -495h5l150 495q8 25 30 25h125z" />
    <glyph glyph-name="X" unicode="X" horiz-adv-x="753" 
d="M189 25q-9 -11 -19.5 -18t-25.5 -7h-115q-11 0 -16 8.5t1 16.5l265 335l-245 315q-6 8 -1 16.5t16 8.5h115q15 0 26 -8t19 -17l165 -215h5l165 215q8 9 19 17t26 8h115q11 0 16 -8.5t-1 -16.5l-245 -315l265 -335q6 -8 1 -16.5t-16 -8.5h-115q-15 0 -25.5 7t-19.5 18
l-185 235h-5z" />
    <glyph glyph-name="Y" unicode="Y" horiz-adv-x="751" 
d="M448 25q0 -25 -25 -25h-95q-25 0 -25 25v195l-300 455q-5 8 -0.5 16.5t15.5 8.5h105q11 0 24 -7t21 -18l205 -315h5l205 315q8 11 21 18t24 7h105q11 0 15.5 -8.5t-0.5 -16.5l-300 -455v-195z" />
    <glyph glyph-name="Z" unicode="Z" horiz-adv-x="720" 
d="M230 120v-5h435q25 0 25 -25v-65q0 -25 -25 -25h-610q-25 0 -25 25v65q0 11 7 22.5t18 22.5l425 445v5h-415q-25 0 -25 25v65q0 25 25 25h590q25 0 25 -25v-65q0 -12 -7 -23t-18 -22z" />
    <glyph glyph-name="bracketleft" unicode="[" horiz-adv-x="415" 
d="M100 755q0 25 25 25h255q25 0 25 -25v-60q0 -25 -25 -25h-135v-720h135q25 0 25 -25v-60q0 -25 -25 -25h-255q-25 0 -25 25v890z" />
    <glyph glyph-name="backslash" unicode="\" horiz-adv-x="566" 
d="M543 25q5 -8 1 -16.5t-15 -8.5h-96q-15 0 -24.5 6.5t-15.5 17.5l-370 651q-5 8 -0.5 16.5t15.5 8.5h95q16 0 25.5 -8t14.5 -17z" />
    <glyph glyph-name="bracketright" unicode="]" horiz-adv-x="415" 
d="M315 -135q0 -25 -25 -25h-255q-25 0 -25 25v60q0 25 25 25h135v720h-135q-25 0 -25 25v60q0 25 25 25h255q25 0 25 -25v-890z" />
    <glyph glyph-name="asciicircum" unicode="^" horiz-adv-x="549" 
d="M317 700q15 0 23.5 -7t16.5 -18l167 -245q8 -11 3.5 -20.5t-15.5 -9.5h-89q-11 0 -22.5 8t-17.5 17l-106 155h-5l-106 -155q-6 -9 -17.5 -17t-22.5 -8h-89q-11 0 -15.5 9.5t3.5 20.5l167 245q8 11 16.5 18t23.5 7h85z" />
    <glyph glyph-name="underscore" unicode="_" horiz-adv-x="525" 
d="M515 -145q0 -11 -7 -18t-18 -7h-455q-25 0 -25 25v60q0 11 7 18t18 7h455q25 0 25 -25v-60z" />
    <glyph glyph-name="grave" unicode="`" horiz-adv-x="301" 
d="M148 700q13 0 21.5 -7t13.5 -18q17 -38 32.5 -75.5t32.5 -74.5q5 -9 1 -17t-16 -8h-55q-11 0 -19 7t-16 18l-100 150q-5 7 -0.5 16t15.5 9h90z" />
    <glyph glyph-name="a" unicode="a" horiz-adv-x="635" 
d="M310 530q62 0 110.5 -16.5t81.5 -44.5t50.5 -65.5t17.5 -78.5v-300q0 -25 -25 -25h-85q-25 0 -25 25v35h-5q-20 -22 -47 -40q-26 -16 -59.5 -28t-78.5 -12q-49 0 -88 14t-66 37.5t-41.5 54t-14.5 64.5q0 36 15 67.5t45.5 55.5t76.5 38t108 14h155q0 21 -9 40t-25.5 33.5
t-39.5 23t-51 8.5q-21 0 -37 -5t-27.5 -11.5t-19 -13t-11.5 -10.5q-11 -11 -20 -18t-20 -7h-70q-25 0 -25 25q0 23 15 47.5t44 45t72 34t99 13.5zM270 80q34 0 64 11.5t52 26.5q27 16 49 37v65h-146q-67 0 -93 -20t-26 -50t23.5 -50t76.5 -20z" />
    <glyph glyph-name="b" unicode="b" horiz-adv-x="685" 
d="M80 675q0 25 25 25h85q25 0 25 -25v-185h5q18 11 42 20q21 8 49 14t64 6q60 0 109.5 -20t85.5 -56t55.5 -86.5t19.5 -112.5t-20.5 -112.5t-59.5 -86.5t-97 -56t-133 -20q-43 0 -84.5 8t-73.5 17q-38 11 -72 25q-11 4 -18 12t-7 23v610zM215 105q16 -7 36 -12
q17 -6 38 -9.5t46 -3.5q83 0 129 46t46 129t-43.5 129t-111.5 46q-28 0 -53.5 -7t-44.5 -15q-23 -10 -42 -23v-280z" />
    <glyph glyph-name="c" unicode="c" horiz-adv-x="630" 
d="M335 530q60 0 105 -14.5t76.5 -38.5t49.5 -54.5t24 -62.5q0 -25 -25 -25h-75q-23 0 -35 25q-6 11 -15.5 23.5t-24 23t-34.5 17t-46 6.5q-72 0 -116 -42.5t-44 -127.5q0 -83 42 -131.5t118 -48.5q56 0 85.5 25.5t44.5 59.5q12 25 35 25h70q25 0 25 -25q-6 -36 -24.5 -69
t-51 -59t-78.5 -41.5t-106 -15.5q-67 0 -122 20.5t-93 57.5t-59 88.5t-21 113.5q0 61 20.5 111t59 85t93 54.5t122.5 19.5z" />
    <glyph glyph-name="d" unicode="d" horiz-adv-x="685" 
d="M605 25q0 -25 -25 -25h-85q-25 0 -25 25v30h-5q-18 -21 -43 -37q-23 -16 -52.5 -27t-69.5 -11q-58 0 -106 19t-82 54.5t-53 86.5t-19 115q0 62 19.5 112.5t55.5 86.5t85.5 56t109.5 20q36 0 64.5 -6t48.5 -14q24 -9 42 -20h5v185q0 25 25 25h85q25 0 25 -25v-650z
M470 385q-18 13 -40 23q-20 9 -45 15.5t-55 6.5q-68 0 -111.5 -46t-43.5 -129t38.5 -124t106.5 -41q32 0 59.5 11t47.5 25q24 15 43 35v224z" />
    <glyph glyph-name="e" unicode="e" 
d="M325 430q-28 0 -52.5 -10t-43.5 -26.5t-30.5 -37t-13.5 -41.5h280q-2 21 -13.5 41.5t-30 37t-43.5 26.5t-53 10zM325 -20q-66 0 -118.5 20t-89.5 56t-57 86.5t-20 112.5t20 112.5t57 86.5t89.5 56t118.5 20t118.5 -19.5t89.5 -55t57 -84t20 -106.5v-30q0 -25 -25 -25
h-406q2 -26 14 -49.5t31.5 -41.5t45 -28.5t55.5 -10.5q28 0 49 6t36 15t24.5 19.5t15.5 19.5q8 11 16 18t19 7h75q11 0 18 -7t7 -18q-6 -30 -24 -58.5t-50 -51t-78 -36.5t-108 -14z" />
    <glyph glyph-name="f" unicode="f" horiz-adv-x="435" 
d="M245 490h130q25 0 25 -25v-55q0 -25 -25 -25h-130v-360q0 -8 -7 -16.5t-18 -8.5h-85q-25 0 -25 25v360h-65q-25 0 -25 25v55q0 25 25 25h65v30q0 41 14.5 76t41.5 60.5t66 39.5t88 14q42 0 71 -6.5t34 -8.5q25 -8 25 -30v-45q0 -25 -25 -25h-25q-15 0 -31 5t-39 5
q-38 0 -61.5 -23.5t-23.5 -61.5v-30z" />
    <glyph glyph-name="g" unicode="g" horiz-adv-x="675" 
d="M605 45q0 -49 -19 -91.5t-56 -74.5t-89.5 -50.5t-120.5 -18.5q-60 0 -107.5 13t-80 34t-50 48t-17.5 55q0 25 25 25h70q11 0 21.5 -7.5t18.5 -17.5q15 -20 41 -35t79 -15q34 0 61.5 10.5t47 29t30.5 43t11 52.5v15h-5q-18 -11 -42 -20q-21 -8 -49 -14t-64 -6
q-60 0 -109.5 19.5t-85.5 53t-55.5 79.5t-19.5 98q0 56 20 104t59.5 82.5t97.5 54t133 19.5q43 0 84 -7.5t73.5 -17t52 -17.5t20.5 -8q11 -4 18 -12t7 -23v-400zM470 405q-17 7 -36 13q-18 5 -39 8.5t-45 3.5q-81 0 -128 -43.5t-47 -116.5q0 -32 11.5 -59.5t32 -47.5
t49 -31.5t62.5 -11.5q28 0 53.5 7t44.5 16q23 9 42 22v240z" />
    <glyph glyph-name="h" unicode="h" horiz-adv-x="695" 
d="M495 315q0 24 -9 45t-24.5 36.5t-36.5 24.5t-45 9q-36 0 -66 -11.5t-52 -25.5q-26 -17 -47 -38v-330q0 -25 -25 -25h-85q-25 0 -25 25v650q0 25 25 25h85q25 0 25 -25v-220h5q20 21 47 38q24 15 57 26t76 11q53 0 95.5 -16t72.5 -44.5t46 -68t16 -86.5v-290q0 -9 -8 -17
t-17 -8h-85q-25 0 -25 25v290z" />
    <glyph glyph-name="i" unicode="i" horiz-adv-x="285" 
d="M210 25q0 -25 -25 -25h-85q-25 0 -25 25v460q0 25 25 25h85q25 0 25 -25v-460zM170 725q40 0 40 -40v-65q0 -40 -40 -40h-55q-40 0 -40 40v65q0 40 40 40h55z" />
    <glyph glyph-name="j" unicode="j" horiz-adv-x="310" 
d="M-80 -100q0 25 25 25h15q15 0 30 -5t30 -5q34 0 57 25t23 70v475q0 25 25 25h85q25 0 25 -25v-475q0 -45 -14.5 -82t-42.5 -63t-67.5 -40.5t-90.5 -14.5q-15 0 -28.5 1.5t-24.5 3.5q-12 2 -22 5q-25 8 -25 30v50zM195 725q40 0 40 -40v-65q0 -40 -40 -40h-55
q-40 0 -40 40v65q0 40 40 40h55z" />
    <glyph glyph-name="k" unicode="k" horiz-adv-x="647" 
d="M80 675q0 25 25 25h85q25 0 25 -25v-355h100q30 0 49 18.5t31 41.5l55 105q6 11 18 18t27 7h95q11 0 16 -7t-1 -18l-64 -118q-16 -30 -33 -48.5t-31.5 -29.5t-23 -15l-8.5 -4v-5q16 -5 33 -18q16 -12 33 -31t34 -51l75 -140q4 -9 0 -17t-15 -8h-100q-15 0 -25 8t-15 17
l-75 140q-10 19 -27.5 34.5t-47.5 15.5h-100v-190q0 -25 -25 -25h-85q-25 0 -25 25v650z" />
    <glyph glyph-name="l" unicode="l" horiz-adv-x="295" 
d="M215 25q0 -25 -25 -25h-85q-25 0 -25 25v650q0 25 25 25h85q25 0 25 -25v-650z" />
    <glyph glyph-name="m" unicode="m" horiz-adv-x="1010" 
d="M575 25q0 -9 -8 -17t-17 -8h-85q-25 0 -25 25v290q0 24 -8 45t-21.5 36.5t-31.5 24.5t-39 9q-30 0 -54.5 -11.5t-42.5 -25.5q-21 -17 -38 -38v-330q0 -25 -25 -25h-85q-25 0 -25 25v460q0 25 25 25h85q25 0 25 -25v-30h5q18 21 42 38q22 15 51 26t67 11q57 0 100.5 -22.5
t69.5 -62.5h5q21 24 51 43q26 17 61.5 29.5t82.5 12.5t85 -16t64.5 -44.5t41 -68t14.5 -86.5v-290q0 -9 -8 -17t-17 -8h-85q-25 0 -25 25v290q0 24 -8 45t-21.5 36.5t-31.5 24.5t-39 9q-30 0 -54.5 -11.5t-42.5 -25.5q-21 -17 -38 -38v-330z" />
    <glyph glyph-name="n" unicode="n" horiz-adv-x="685" 
d="M485 315q0 24 -9 45t-24.5 36.5t-36.5 24.5t-45 9q-36 0 -66 -11.5t-52 -25.5q-26 -17 -47 -38v-330q0 -25 -25 -25h-85q-25 0 -25 25v460q0 25 25 25h85q25 0 25 -25v-30h5q20 21 47 38q24 15 57 26t76 11q53 0 95.5 -16t72.5 -44.5t46 -68t16 -86.5v-290q0 -9 -8 -17
t-17 -8h-85q-25 0 -25 25v290z" />
    <glyph glyph-name="o" unicode="o" horiz-adv-x="670" 
d="M495 255q0 83 -44 129t-116 46t-116 -46t-44 -129t44 -129t116 -46t116 46t44 129zM630 255q0 -62 -20 -112.5t-58 -86.5t-93 -56t-124 -20t-124 20t-93 56t-58 86.5t-20 112.5t20 112.5t58 86.5t93 56t124 20t124 -20t93 -56t58 -86.5t20 -112.5z" />
    <glyph glyph-name="p" unicode="p" horiz-adv-x="675" 
d="M70 485q0 25 25 25h85q25 0 25 -25v-30h5q18 21 43 38q23 15 52.5 26t69.5 11q58 0 106 -19t82 -54.5t53 -86.5t19 -115q0 -62 -19.5 -112.5t-55.5 -86.5t-85.5 -56t-109.5 -20q-36 0 -64.5 6t-48.5 14q-24 9 -42 20h-5v-175q0 -25 -25 -25h-85q-25 0 -25 25v640z
M205 125q18 -13 40 -22q20 -10 45 -16.5t55 -6.5q68 0 111.5 46t43.5 129t-38.5 124t-106.5 41q-32 0 -59.5 -11t-47.5 -24q-24 -16 -43 -36v-224z" />
    <glyph glyph-name="q" unicode="q" horiz-adv-x="675" 
d="M605 -155q0 -25 -25 -25h-85q-25 0 -25 25v175h-5q-18 -11 -42 -20q-21 -8 -49 -14t-64 -6q-60 0 -109.5 20t-85.5 56t-55.5 86.5t-19.5 112.5t20.5 112.5t59.5 86.5t97 56t133 20q43 0 84.5 -8t73.5 -17q38 -11 72 -25q11 -4 18 -12t7 -23v-600zM470 405q-16 7 -36 13
q-17 5 -38 8.5t-46 3.5q-83 0 -129 -46t-46 -129t43.5 -129t111.5 -46q28 0 53.5 7t44.5 16q23 9 42 22v280z" />
    <glyph glyph-name="r" unicode="r" horiz-adv-x="470" 
d="M370 425q-36 0 -66 -12.5t-52 -27.5q-26 -18 -47 -40v-320q0 -25 -25 -25h-85q-25 0 -25 25v460q0 25 25 25h85q25 0 25 -25v-30h5q20 21 45 38q23 15 52.5 26t67.5 11h55q25 0 25 -25v-60q0 -25 -25 -25h-15q-15 0 -24.5 2.5t-20.5 2.5z" />
    <glyph glyph-name="s" unicode="s" horiz-adv-x="610" 
d="M315 530q62 0 108 -13.5t76.5 -35.5t45.5 -50t15 -56q0 -25 -25 -25h-70q-11 0 -19.5 7t-15.5 18q-11 19 -36.5 37t-78.5 18q-63 0 -89 -18.5t-26 -41.5t28 -34.5t69.5 -19.5t90 -17t90 -25.5t69.5 -45.5t28 -78q0 -34 -15.5 -64.5t-48.5 -54t-84 -37.5t-122 -14
q-69 0 -120 14.5t-84.5 38.5t-49.5 54.5t-16 62.5q0 25 25 25h70q14 0 22 -7t13 -18q15 -30 47.5 -50t92.5 -20q37 0 63 6.5t42 16.5t23 22.5t7 24.5q0 23 -28 34.5t-69.5 20t-90 17t-90 25.5t-69.5 46t-28 77q0 32 14.5 61t45 51t77.5 35t113 13z" />
    <glyph glyph-name="t" unicode="t" horiz-adv-x="460" 
d="M235 185q0 -42 24 -66t66 -24q19 0 32 5t28 5h30q25 0 25 -25v-49q0 -12 -7.5 -18t-18.5 -10q-5 -2 -35 -7.5t-69 -5.5q-49 0 -88 14.5t-66 40t-41.5 61.5t-14.5 79v220h-65q-25 0 -25 25v55q0 25 25 25h65l30 115q7 25 30 25h50q25 0 25 -25v-115h130q11 0 18 -6.5
t7 -17.5v-56q0 -25 -25 -25h-130v-220z" />
    <glyph glyph-name="u" unicode="u" horiz-adv-x="690" 
d="M205 195q0 -24 9 -45t24.5 -36.5t36.5 -24.5t45 -9q36 0 66 11.5t52 26.5q26 16 47 37v330q0 25 25 25h85q25 0 25 -25v-460q0 -25 -25 -25h-85q-25 0 -25 25v30h-5q-20 -21 -47 -37q-24 -16 -57 -27t-76 -11q-52 0 -94.5 16t-72.5 44.5t-46.5 68t-16.5 86.5v290
q0 9 8 17t17 8h85q25 0 25 -25v-290z" />
    <glyph glyph-name="v" unicode="v" horiz-adv-x="611" 
d="M458 485q10 25 35 25h95q11 0 15.5 -8t-0.5 -17l-200 -460q-10 -25 -35 -25h-125q-25 0 -35 25l-200 460q-5 9 -0.5 17t15.5 8h95q25 0 35 -25l150 -360h5z" />
    <glyph glyph-name="w" unicode="w" horiz-adv-x="880" 
d="M483 510q11 0 21 -7t14 -18l105 -335h5l95 335q7 25 30 25h95q22 0 15 -25l-135 -460q-3 -11 -12.5 -18t-22.5 -7h-110q-11 0 -21 7t-14 18l-105 325h-6l-105 -325q-4 -11 -14 -18t-21 -7h-110q-13 0 -22.5 7t-12.5 18l-135 460q-7 25 15 25h95q23 0 30 -25l95 -335h5
l105 335q4 11 14 18t21 7h86z" />
    <glyph glyph-name="x" unicode="x" horiz-adv-x="593" 
d="M544 510q12 0 16.5 -8.5t-1.5 -16.5l-170 -220l190 -240q6 -8 1 -16.5t-16 -8.5h-100q-14 0 -23.5 8.5t-16.5 16.5l-125 155h-5l-125 -155q-7 -8 -16.5 -16.5t-23.5 -8.5h-100q-11 0 -16 8.5t1 16.5l190 240l-170 220q-6 8 -1.5 16.5t16.5 8.5h100q16 0 24.5 -8t15.5 -17
l105 -140h5l105 140q7 9 15.5 17t24.5 8h100z" />
    <glyph glyph-name="y" unicode="y" horiz-adv-x="603" 
d="M322 10q-43 0 -75.5 12t-58 36t-45 61t-36.5 86l-95 280q-5 11 1 18t14 7h95q11 0 19 -8t11 -17l90 -280q5 -16 13.5 -32.5t19 -29t22.5 -20.5t25 -8h30l105 370q7 25 30 25h85q11 0 16.5 -8t3.5 -17l-135 -475q-12 -41 -32 -76t-48 -60.5t-63.5 -39.5t-76.5 -14h-80
q-25 0 -25 25v65q0 25 25 25h25q19 0 29.5 -5t25.5 -5q30 0 51.5 22t33.5 63z" />
    <glyph glyph-name="z" unicode="z" horiz-adv-x="565" 
d="M505 510q25 0 25 -25v-55q0 -12 -6 -22t-14 -18l-300 -280v-5h305q25 0 25 -25v-56q0 -11 -7 -17.5t-18 -6.5h-465q-25 0 -25 25v55q0 25 15 40l300 280v5h-280q-25 0 -25 25v55q0 25 25 25h445z" />
    <glyph glyph-name="braceleft" unicode="{" horiz-adv-x="425" 
d="M20 340q0 11 7 18.5t18 7.5h16q29 0 49 22t20 67v130q0 43 15 79t44 61.5t72 40t99 14.5h30q25 0 25 -25v-60q0 -25 -25 -25h-30q-85 0 -85 -85v-130q0 -45 -15 -72t-32 -43q-21 -17 -48 -25v-10q27 -8 48 -25q19 -16 33 -43t14 -72v-130q0 -85 85 -85h30q25 0 25 -25
v-60q0 -25 -25 -25h-30q-56 0 -99 14.5t-72 40t-44 61.5t-15 79v130q0 45 -20 67t-49 22h-16q-11 0 -18 7.5t-7 18.5v60z" />
    <glyph glyph-name="bar" unicode="|" horiz-adv-x="340" 
d="M240 -125q0 -25 -25 -25h-90q-25 0 -25 25v950q0 25 25 25h90q25 0 25 -25v-950z" />
    <glyph glyph-name="braceright" unicode="}" horiz-adv-x="425" 
d="M405 280q0 -11 -7 -18.5t-18 -7.5h-16q-29 0 -49 -22t-20 -67v-130q0 -43 -15 -79t-44 -61.5t-72 -40t-99 -14.5h-30q-25 0 -25 25v60q0 25 25 25h30q85 0 85 85v130q0 45 15 72t33 43q20 17 47 25v10q-27 8 -47 25q-20 16 -34 43t-14 72v130q0 85 -85 85h-30
q-25 0 -25 25v60q0 25 25 25h30q56 0 99 -14.5t72 -40t44 -61.5t15 -79v-130q0 -45 20 -67t49 -22h16q11 0 18 -7.5t7 -18.5v-60z" />
    <glyph glyph-name="asciitilde" unicode="~" horiz-adv-x="590" 
d="M185 250q-30 0 -56.5 11.5t-46 32.5t-31 50.5t-11.5 65.5q0 25 25 25h65q13 0 20 -11t14.5 -24t18.5 -24t32 -11q23 0 41 11.5t39 26t47 26t63 11.5q30 0 56.5 -11.5t46 -32.5t31 -50.5t11.5 -65.5q0 -25 -25 -25h-65q-13 0 -20 11t-14.5 24t-18.5 24t-32 11
q-22 0 -40.5 -11.5t-39.5 -26t-46.5 -26t-63.5 -11.5z" />
    <glyph glyph-name="nonbreakingspace" unicode="&#xa0;" horiz-adv-x="300" 
 />
    <glyph glyph-name="exclamdown" unicode="&#xa1;" horiz-adv-x="325" 
d="M100 285q0 25 25 25h75q25 0 25 -25l10 -440q0 -25 -25 -25h-95q-25 0 -25 25zM230 425q0 -15 -10 -25t-25 -10h-65q-15 0 -25 10t-10 25v60q0 15 10 25t25 10h65q15 0 25 -10t10 -25v-60z" />
    <glyph glyph-name="cent" unicode="&#xa2;" horiz-adv-x="635" 
d="M395 525q45 -7 79 -23t58 -38.5t38.5 -49.5t19.5 -54q0 -25 -25 -25h-75q-23 0 -35 25q-6 11 -15.5 23.5t-24 23t-34.5 17t-46 6.5q-72 0 -116 -42.5t-44 -127.5q0 -83 42 -131.5t118 -48.5q56 0 85.5 25.5t44.5 59.5q12 25 35 25h70q25 0 25 -25q-5 -31 -20 -60.5
t-39.5 -53.5t-60 -41.5t-80.5 -24.5v-56q0 -25 -25 -25h-70q-25 0 -25 25v56q-54 9 -97.5 32.5t-74 59t-47 82t-16.5 101.5q0 109 62 179.5t173 86.5v64q0 25 25 25h70q25 0 25 -25v-65z" />
    <glyph glyph-name="sterling" unicode="&#xa3;" horiz-adv-x="680" 
d="M45 0q-25 0 -25 25v65q0 25 25 25h30q38 0 64 28.5t26 81.5v85h-55q-25 0 -25 25v55q0 25 25 25h55v35q0 56 18.5 102t55 79t90.5 51t124 18q23 0 42.5 -1.5t34.5 -3.5q16 -2 30 -5q11 -2 18 -10.5t7 -19.5v-65q0 -25 -25 -25h-15q-15 0 -35.5 7.5t-54.5 7.5
q-68 0 -106.5 -37.5t-38.5 -97.5v-35h130q25 0 25 -25v-55q0 -25 -25 -25h-130v-85q0 -28 -8.5 -48t-18.5 -33q-13 -14 -28 -24v-5h380q25 0 25 -25v-65q0 -25 -25 -25h-590z" />
    <glyph glyph-name="currency" unicode="&#xa4;" horiz-adv-x="800" 
d="M645 130q0 -11 -7 -18t-18 -7h-360v-80q0 -25 -25 -25h-95q-25 0 -25 25v80h-65q-25 0 -25 25v55q0 11 7 18t18 7h65v40h-65q-25 0 -25 25v55q0 11 7 18t18 7h65v320q0 25 25 25h330q75 0 131.5 -17.5t94 -48.5t56 -73t18.5 -91q0 -45 -18.5 -85t-56 -70t-94 -47.5
t-131.5 -17.5h-210v-40h360q25 0 25 -25v-55zM260 585v-230h210q36 0 63.5 9.5t47 25.5t29.5 37t10 43q0 23 -10 43.5t-29.5 36.5t-47 25.5t-63.5 9.5h-210z" />
    <glyph glyph-name="yen" unicode="&#xa5;" horiz-adv-x="751" 
d="M448 120v-95q0 -25 -25 -25h-95q-25 0 -25 25v95h-150q-25 0 -25 25v40q0 25 25 25h150v10l-25 40h-125q-25 0 -25 25v40q0 25 25 25h65l-215 325q-5 8 -0.5 16.5t15.5 8.5h105q11 0 24 -7t21 -18l205 -315h5l205 315q8 11 21 18t24 7h105q11 0 15.5 -8.5t-0.5 -16.5
l-215 -325h65q25 0 25 -25v-40q0 -25 -25 -25h-125l-25 -40v-10h150q25 0 25 -25v-40q0 -25 -25 -25h-150z" />
    <glyph glyph-name="brokenbar" unicode="&#xa6;" horiz-adv-x="340" 
d="M240 445q0 -25 -25 -25h-90q-25 0 -25 25v380q0 25 25 25h90q25 0 25 -25v-380zM240 -125q0 -25 -25 -25h-90q-25 0 -25 25v380q0 25 25 25h90q25 0 25 -25v-380z" />
    <glyph glyph-name="section" unicode="&#xa7;" horiz-adv-x="640" 
d="M495 120q28 -10 50 -28q20 -17 35 -42t15 -65q0 -34 -19 -67t-55 -59.5t-88 -42.5t-118 -16q-58 0 -106 14.5t-83 38t-55.5 53t-25.5 59.5q0 25 25 25h65q11 0 24 -6.5t20 -17.5q15 -23 51 -44.5t85 -21.5q36 0 62 7.5t43.5 20t26 27.5t8.5 30q0 29 -29.5 45.5t-74 29
t-96.5 25.5t-96.5 34.5t-74 56t-29.5 89.5q0 40 15 65.5t33 41.5q20 18 47 28v5q-24 10 -42 28q-18 16 -30.5 41.5t-12.5 65.5q0 33 17 65.5t50.5 58t83 41t114.5 15.5q59 0 102.5 -13.5t74 -36t47.5 -51.5t21 -59q0 -25 -25 -25h-65q-11 0 -24 6.5t-20 17.5
q-15 23 -38.5 42t-72.5 19q-64 0 -94.5 -25t-30.5 -55q0 -29 28.5 -45.5t71.5 -29t92.5 -25.5t92.5 -34.5t71.5 -56t28.5 -89.5q0 -38 -15 -63.5t-32 -41.5q-21 -19 -48 -30v-5zM375 170q21 7 38 19q15 11 26 28t11 43q0 27 -28 45.5t-62 29.5q-40 13 -90 20q-21 -7 -37 -19
q-16 -11 -27 -28t-11 -43q0 -27 28 -45.5t62 -29.5q40 -13 90 -20z" />
    <glyph glyph-name="dieresis" unicode="&#xa8;" horiz-adv-x="440" 
d="M40 750q0 15 10 25t25 10h60q15 0 25 -10t10 -25v-65q0 -15 -10 -25t-25 -10h-60q-15 0 -25 10t-10 25v65zM270 750q0 15 10 25t25 10h60q15 0 25 -10t10 -25v-65q0 -15 -10 -25t-25 -10h-60q-15 0 -25 10t-10 25v65z" />
    <glyph glyph-name="copyright" unicode="&#xa9;" horiz-adv-x="1010" 
d="M300 350q0 44 14.5 80.5t41.5 63t66 41.5t88 15q42 0 76 -11.5t58 -29.5t38.5 -41.5t17.5 -47.5q0 -8 -6 -14t-14 -6h-60q-8 0 -16 6t-14 14q-11 14 -27.5 27t-52.5 13q-45 0 -72.5 -28.5t-27.5 -81.5t27.5 -81.5t72.5 -28.5q38 0 56 15t29 30q15 20 35 20h55q8 0 14 -6
t6 -14q-6 -28 -21.5 -52.5t-40.5 -43t-58.5 -29t-74.5 -10.5q-49 0 -88 14.5t-66 40.5t-41.5 63t-14.5 82zM170 350q0 -71 24 -131t68.5 -103t106 -67t136.5 -24t136.5 24t106 67t68.5 103t24 131t-24 131t-68.5 103t-106 67t-136.5 24t-136.5 -24t-106 -67t-68.5 -103
t-24 -131zM960 350q0 -90 -33 -167.5t-93 -135t-144 -90t-185 -32.5t-185 32.5t-144 90t-93 135t-33 167.5t33 167.5t93 135t144 90t185 32.5t185 -32.5t144 -90t93 -135t33 -167.5z" />
    <glyph glyph-name="ordfeminine" unicode="&#xaa;" horiz-adv-x="430" 
d="M192 433q18 0 33 6t27 14t23 19v38h-65q-37 0 -51 -13.5t-14 -31.5q0 -14 12 -23t35 -9zM210 640q-23 0 -35.5 -6t-19.5 -14q-6 -7 -12.5 -13.5t-17.5 -6.5h-48q-17 0 -17 14q0 17 10 36t29 34.5t47 25.5t64 10q38 0 69 -12t53.5 -31.5t35 -45t12.5 -51.5v-195
q0 -8 -6 -14t-14 -6h-65q-8 0 -14 6t-6 14v15h-4q-10 -13 -25 -22q-13 -10 -31.5 -16.5t-44.5 -6.5q-60 0 -95 32.5t-35 77.5q0 49 40 82t130 33h65q0 26 -17.5 43t-47.5 17z" />
    <glyph glyph-name="guillemotleft" unicode="&#xab;" horiz-adv-x="535" 
d="M144 430q5 9 14.5 17t20.5 8h83q10 0 12.5 -9t-2.5 -16l-110 -170l110 -170q5 -7 2.5 -16t-12.5 -9h-85q-11 0 -20.5 8t-14.5 17l-95 147q-15 23 0 46zM362 430q5 9 14.5 17t20.5 8h85q10 0 12.5 -9t-2.5 -16l-110 -170l110 -170q5 -7 2.5 -16t-12.5 -9h-85
q-11 0 -20.5 8t-14.5 17l-95 147q-15 23 0 46z" />
    <glyph glyph-name="logicalnot" unicode="&#xac;" horiz-adv-x="600" 
d="M540 230q0 -25 -25 -25h-80q-25 0 -25 25v110h-345q-25 0 -25 25v60q0 11 7 18t18 7h450q25 0 25 -25v-195z" />
    <glyph glyph-name="uni00AD" unicode="&#xad;" horiz-adv-x="560" 
d="M520 305q0 -11 -7 -18t-18 -7h-430q-25 0 -25 25v60q0 11 7 18t18 7h430q25 0 25 -25v-60z" />
    <glyph glyph-name="registered" unicode="&#xae;" horiz-adv-x="1010" 
d="M561 262q-7 14 -21.5 21t-29.5 7h-75v-110q0 -8 -6 -14t-14 -6h-66q-7 0 -13 6t-6 14v340q0 8 6 14t14 6h176q86 0 127.5 -36t41.5 -89q0 -26 -12.5 -43.5t-27.5 -27.5q-18 -12 -40 -19v-5l6 -2.5t15 -9.5t20 -18t20 -28l44 -82q4 -7 -1.5 -13.5t-13.5 -6.5h-70
q-11 0 -18.5 6t-11.5 14zM525 370q30 0 45 13t15 32t-15 32t-45 13h-90v-90h90zM170 350q0 -71 24 -131t68.5 -103t106 -67t136.5 -24t136.5 24t106 67t68.5 103t24 131t-24 131t-68.5 103t-106 67t-136.5 24t-136.5 -24t-106 -67t-68.5 -103t-24 -131zM960 350
q0 -90 -33 -167.5t-93 -135t-144 -90t-185 -32.5t-185 32.5t-144 90t-93 135t-33 167.5t33 167.5t93 135t144 90t185 32.5t185 -32.5t144 -90t93 -135t33 -167.5z" />
    <glyph glyph-name="macron" unicode="&#xaf;" horiz-adv-x="440" 
d="M400 680q0 -11 -7 -18t-18 -7h-310q-25 0 -25 25v55q0 11 7 18t18 7h310q25 0 25 -25v-55z" />
    <glyph glyph-name="degree" unicode="&#xb0;" horiz-adv-x="430" 
d="M135 560q0 -34 23 -57t57 -23t57 23t23 57t-23 57t-57 23t-57 -23t-23 -57zM40 560q0 32 13.5 61t36.5 51t55.5 35t69.5 13q38 0 70 -13t55 -35t36.5 -51t13.5 -61t-13.5 -61t-36.5 -51t-55 -35t-70 -13q-37 0 -69.5 13t-55.5 35t-36.5 51t-13.5 61z" />
    <glyph glyph-name="plusminus" unicode="&#xb1;" horiz-adv-x="610" 
d="M555 90q0 -11 -7 -18t-18 -7h-450q-25 0 -25 25v61q0 11 7 18t18 7h170v149h-175q-25 0 -25 25v61q0 11 7 18t18 7h175v174q0 25 25 25h60q11 0 18 -7t7 -18v-174h175q25 0 25 -25v-61q0 -11 -7 -18t-18 -7h-175v-149h170q25 0 25 -25v-61z" />
    <glyph glyph-name="twosuperior" unicode="&#xb2;" horiz-adv-x="410" 
d="M200 640q-26 0 -41.5 -12.5t-23.5 -27.5q-4 -8 -11 -14t-17 -6h-47q-8 0 -14 6t-6 14q0 19 11 40t31.5 39t50.5 29.5t67 11.5q39 0 69 -11t50.5 -29t30.5 -40t10 -45q0 -43 -23.5 -64t-55.5 -32t-64.5 -19t-51.5 -25v-5h175q8 0 14 -6t6 -14v-45q0 -8 -6 -14t-14 -6h-282
q-8 0 -13 6t-5 14v45q0 34 16 55t40 34t51.5 20.5t51.5 14.5t40 16t16 25q0 19 -14.5 32t-40.5 13z" />
    <glyph glyph-name="threesuperior" unicode="&#xb3;" horiz-adv-x="430" 
d="M210 640q-26 0 -38.5 -4.5t-21.5 -15.5q-7 -8 -12 -14t-13 -6h-50q-8 0 -14 6t-6 14q0 19 9.5 37t28.5 32t48.5 22.5t68.5 8.5q83 0 121.5 -32t38.5 -74q0 -22 -10 -35.5t-22 -21.5q-15 -8 -33 -12v-5q21 -4 38 -14q15 -9 26 -25t11 -43q0 -20 -9.5 -38.5t-30.5 -33
t-53 -23t-77 -8.5t-77 8.5t-53 23t-30.5 33.5t-9.5 40q0 8 6 14t14 6h55q11 0 15.5 -6.5t9.5 -13.5q8 -11 24 -18t46 -7q34 0 47 9.5t13 20.5q0 15 -12 25t-38 10h-40q-8 0 -14 6t-6 14v35q0 8 6 14t14 6h35q26 0 35.5 7.5t9.5 22.5q0 11 -10 23t-40 12z" />
    <glyph glyph-name="acute" unicode="&#xb4;" horiz-adv-x="291" 
d="M233 810q11 0 15.5 -9t-0.5 -16l-100 -150q-8 -11 -16 -18t-19 -7h-55q-12 0 -16 8t1 17q17 37 32.5 74.5t32.5 75.5q5 11 13.5 18t21.5 7h90z" />
    <glyph glyph-name="mu" unicode="&#xb5;" horiz-adv-x="690" 
d="M70 485q0 25 25 25h85q25 0 25 -25v-287q0 -55 30.5 -86.5t79.5 -31.5q42 0 73.5 12.5t52.5 27.5q26 18 44 40v325q0 25 25 25h85q25 0 25 -25v-460q0 -25 -25 -25h-85q-25 0 -25 25v35h-5q-17 -22 -41 -40q-22 -16 -52 -28t-72 -12q-26 0 -46 7t-33 16q-15 9 -26 22h-5
v-180q0 -25 -25 -25h-85q-25 0 -25 25v640z" />
    <glyph glyph-name="paragraph" unicode="&#xb6;" horiz-adv-x="670" 
d="M30 515q0 39 14.5 73t40 59t61.5 39t79 14h410q25 0 25 -25v-65q0 -25 -25 -25h-75v-740q0 -25 -25 -25h-75q-25 0 -25 25v740h-85v-740q0 -25 -25 -25h-75q-25 0 -25 25v485q-43 0 -79 14t-61.5 39t-40 59t-14.5 73z" />
    <glyph glyph-name="periodcentered" unicode="&#xb7;" horiz-adv-x="305" 
d="M85 375q0 15 10 25t25 10h65q15 0 25 -10t10 -25v-60q0 -15 -10 -25t-25 -10h-65q-15 0 -25 10t-10 25v60z" />
    <glyph glyph-name="cedilla" unicode="&#xb8;" horiz-adv-x="330" 
d="M135 -195q26 0 40.5 12.5t14.5 27.5t-14.5 27.5t-40.5 12.5h-40q-25 0 -25 25v90h85v-40q64 0 99.5 -33t35.5 -82t-38 -82t-117 -33q-30 0 -48.5 2.5t-29 7.5t-14 11t-3.5 14v25q0 25 25 25h20q11 0 21 -5t29 -5z" />
    <glyph glyph-name="onesuperior" unicode="&#xb9;" horiz-adv-x="268" 
d="M198 710q8 0 14 -6t6 -14v-305q0 -8 -6 -14t-14 -6h-60q-8 0 -14 6t-6 14v220h-5l-45 -25q-7 -4 -14.5 -2.5t-10.5 7.5l-20 35q-8 17 5 25l80 50q11 7 20 11t20 4h50z" />
    <glyph glyph-name="ordmasculine" unicode="&#xba;" horiz-adv-x="440" 
d="M145 535q0 -42 22.5 -66t52.5 -24t52.5 24t22.5 66t-22.5 66t-52.5 24t-52.5 -24t-22.5 -66zM40 535q0 38 13.5 70t37.5 55t57 36.5t72 13.5t72 -13.5t57 -36.5t37.5 -55t13.5 -70q0 -37 -13.5 -69.5t-37.5 -55.5t-57 -36.5t-72 -13.5t-72 13.5t-57 36.5t-37.5 55.5
t-13.5 69.5z" />
    <glyph glyph-name="guillemotright" unicode="&#xbb;" horiz-adv-x="535" 
d="M488 283q15 -23 0 -46l-95 -147q-5 -9 -14.5 -17t-20.5 -8h-85q-10 0 -12.5 9t2.5 16l110 170l-110 170q-5 7 -2.5 16t12.5 9h83q11 0 20.5 -8t14.5 -17zM268 283q15 -23 0 -46l-95 -147q-5 -9 -14.5 -17t-20.5 -8h-85q-10 0 -12.5 9t2.5 16l110 170l-110 170
q-5 7 -2.5 16t12.5 9h85q11 0 20.5 -8t14.5 -17z" />
    <glyph glyph-name="onequarter" unicode="&#xbc;" horiz-adv-x="873" 
d="M208 710q8 0 14 -6t6 -14v-305q0 -8 -6 -14t-14 -6h-60q-8 0 -14 6t-6 14v220h-5l-45 -25q-7 -4 -14.5 -2.5t-10.5 7.5l-20 35q-8 17 5 25l80 50q11 7 20 11t20 4h50zM753 334q8 0 14 -5.5t6 -13.5v-180h25q8 0 14 -6t6 -14v-40q0 -8 -6 -14t-14 -6h-25v-45q0 -8 -6 -14
t-14 -6h-60q-8 0 -14 6t-6 14v45h-200q-8 0 -14 6t-6 14v40q0 17 15 30l175 170q9 8 18.5 13.5t18.5 5.5h73zM668 225l-85 -85v-5h90v90h-5zM578 675q5 8 14.5 16.5t25.5 8.5h85q11 0 15.5 -9t-0.5 -16l-490 -651q-8 -11 -16.5 -17.5t-23.5 -6.5h-85q-11 0 -16 8.5t1 16.5z
" />
    <glyph glyph-name="onehalf" unicode="&#xbd;" horiz-adv-x="888" 
d="M578 675q5 8 14.5 16.5t25.5 8.5h85q11 0 15.5 -9t-0.5 -16l-490 -651q-8 -11 -16.5 -17.5t-23.5 -6.5h-85q-11 0 -16 8.5t1 16.5zM208 710q8 0 14 -6t6 -14v-305q0 -8 -6 -14t-14 -6h-60q-8 0 -14 6t-6 14v220h-5l-45 -25q-7 -4 -14.5 -2.5t-10.5 7.5l-20 35q-8 17 5 25
l80 50q11 7 20 11t20 4h50zM673 265q-26 0 -41.5 -12.5t-23.5 -27.5q-4 -8 -11 -14t-17 -6h-47q-8 0 -14 6t-6 14q0 19 11 40t31.5 39t50.5 29.5t67 11.5q39 0 69 -11t50.5 -29t30.5 -40t10 -45q0 -43 -23.5 -64t-55.5 -32t-64.5 -19t-51.5 -25v-5h175q8 0 14 -6t6 -14v-45
q0 -8 -6 -14t-14 -6h-282q-8 0 -13 6t-5 14v45q0 34 16 55t40 34t51.5 20.5t51.5 14.5t40 16t16 25q0 19 -14.5 32t-40.5 13z" />
    <glyph glyph-name="threequarters" unicode="&#xbe;" horiz-adv-x="945" 
d="M650 675q5 8 14.5 16.5t25.5 8.5h85q11 0 15.5 -9t-0.5 -16l-490 -651q-8 -11 -16.5 -17.5t-23.5 -6.5h-85q-11 0 -16 8.5t1 16.5zM200 640q-26 0 -38.5 -4.5t-21.5 -15.5q-7 -8 -12 -14t-13 -6h-50q-8 0 -14 6t-6 14q0 19 9.5 37t28.5 32t48.5 22.5t68.5 8.5
q83 0 121.5 -32t38.5 -74q0 -22 -10 -35.5t-22 -21.5q-15 -8 -33 -12v-5q21 -4 38 -14q15 -9 26 -25t11 -43q0 -20 -9.5 -38.5t-30.5 -33t-53 -23t-77 -8.5t-77 8.5t-53 23t-30.5 33.5t-9.5 40q0 8 6 14t14 6h55q11 0 15.5 -6.5t9.5 -13.5q8 -11 24 -18t46 -7q34 0 47 9.5
t13 20.5q0 15 -12 25t-38 10h-40q-8 0 -14 6t-6 14v35q0 8 6 14t14 6h35q26 0 35.5 7.5t9.5 22.5q0 11 -10 23t-40 12zM825 334q8 0 14 -5.5t6 -13.5v-180h25q8 0 14 -6t6 -14v-40q0 -8 -6 -14t-14 -6h-25v-45q0 -8 -6 -14t-14 -6h-60q-8 0 -14 6t-6 14v45h-200q-8 0 -14 6
t-6 14v40q0 17 15 30l175 170q9 8 18.5 13.5t18.5 5.5h73zM740 225l-85 -85v-5h90v90h-5z" />
    <glyph glyph-name="questiondown" unicode="&#xbf;" horiz-adv-x="690" 
d="M185 20q0 -19 10.5 -38.5t31.5 -35.5t52 -26t71 -10q38 0 67.5 10t51.5 26t36 35.5t20 38.5q8 25 31 25h89q25 0 25 -25q-2 -41 -23.5 -80.5t-62 -70.5t-99 -50t-135.5 -19t-136 19t-98.5 50t-60 70.5t-20.5 80.5q0 45 18.5 76t46.5 53.5t60 38.5t60 30.5t46.5 30
t18.5 36.5q3 25 25 25h95q25 0 25 -25q0 -39 -18 -66t-45.5 -47t-59 -36t-59 -32.5t-45.5 -36.5t-18 -47zM425 425q0 -15 -10 -25t-25 -10h-65q-15 0 -25 10t-10 25v60q0 15 10 25t25 10h65q15 0 25 -10t10 -25v-60z" />
    <glyph glyph-name="Agrave" unicode="&#xc0;" horiz-adv-x="811" 
d="M463 700q28 0 40 -25l300 -650q5 -11 0.5 -18t-15.5 -7h-105q-15 0 -22.5 7t-12.5 18l-55 125h-375l-55 -125q-5 -11 -12.5 -18t-22.5 -7h-105q-11 0 -15.5 7t0.5 18l300 650q12 25 40 25h115zM408 560h-5l-130 -295h265zM373 980q13 0 21.5 -7t13.5 -18
q17 -38 32.5 -75.5t32.5 -74.5q5 -9 1 -17t-16 -8h-55q-11 0 -19 7t-16 18l-100 150q-5 7 -0.5 16t15.5 9h90z" />
    <glyph glyph-name="Aacute" unicode="&#xc1;" horiz-adv-x="811" 
d="M463 700q28 0 40 -25l300 -650q5 -11 0.5 -18t-15.5 -7h-105q-15 0 -22.5 7t-12.5 18l-55 125h-375l-55 -125q-5 -11 -12.5 -18t-22.5 -7h-105q-11 0 -15.5 7t0.5 18l300 650q12 25 40 25h115zM408 560h-5l-130 -295h265zM533 980q11 0 15.5 -9t-0.5 -16l-100 -150
q-8 -11 -16 -18t-19 -7h-55q-12 0 -16 8t1 17q17 37 32.5 74.5t32.5 75.5q5 11 13.5 18t21.5 7h90z" />
    <glyph glyph-name="Acircumflex" unicode="&#xc2;" horiz-adv-x="811" 
d="M463 700q28 0 40 -25l300 -650q5 -11 0.5 -18t-15.5 -7h-105q-15 0 -22.5 7t-12.5 18l-55 125h-375l-55 -125q-5 -11 -12.5 -18t-22.5 -7h-105q-11 0 -15.5 7t0.5 18l300 650q12 25 40 25h115zM408 560h-5l-130 -295h265zM441 970q11 0 24 -8t21 -17l115 -140
q5 -8 0.5 -16.5t-15.5 -8.5h-65q-11 0 -24 7t-21 18l-65 80h-5l-65 -80q-8 -11 -21 -18t-24 -7h-65q-11 0 -15.5 8.5t0.5 16.5l115 140q8 9 21 17t24 8h65z" />
    <glyph glyph-name="Atilde" unicode="&#xc3;" horiz-adv-x="811" 
d="M463 700q28 0 40 -25l300 -650q5 -11 0.5 -18t-15.5 -7h-105q-15 0 -22.5 7t-12.5 18l-55 125h-375l-55 -125q-5 -11 -12.5 -18t-22.5 -7h-105q-11 0 -15.5 7t0.5 18l300 650q12 25 40 25h115zM408 560h-5l-130 -295h265zM331 800q-53 0 -84 32.5t-31 92.5q0 25 25 25h50
q11 0 16 -7t9 -18t12.5 -20.5t27.5 -9.5q17 0 29 9.5t25 20.5t30.5 20.5t45.5 9.5q53 0 84 -32.5t31 -92.5q0 -25 -25 -25h-50q-11 0 -16 7t-9 18t-12.5 20.5t-27.5 9.5q-17 0 -29 -9.5t-25 -20.5t-30.5 -20.5t-45.5 -9.5z" />
    <glyph glyph-name="Adieresis" unicode="&#xc4;" horiz-adv-x="811" 
d="M463 700q28 0 40 -25l300 -650q5 -11 0.5 -18t-15.5 -7h-105q-15 0 -22.5 7t-12.5 18l-55 125h-375l-55 -125q-5 -11 -12.5 -18t-22.5 -7h-105q-11 0 -15.5 7t0.5 18l300 650q12 25 40 25h115zM408 560h-5l-130 -295h265zM229 890q0 15 10 25t25 10h60q15 0 25 -10
t10 -25v-65q0 -15 -10 -25t-25 -10h-60q-15 0 -25 10t-10 25v65zM459 890q0 15 10 25t25 10h60q15 0 25 -10t10 -25v-65q0 -15 -10 -25t-25 -10h-60q-15 0 -25 10t-10 25v65z" />
    <glyph glyph-name="Aring" unicode="&#xc5;" horiz-adv-x="811" 
d="M463 700q28 0 40 -25l300 -650q5 -11 0.5 -18t-15.5 -7h-105q-15 0 -22.5 7t-12.5 18l-55 125h-375l-55 -125q-5 -11 -12.5 -18t-22.5 -7h-105q-11 0 -15.5 7t0.5 18l300 650q12 25 40 25h115zM408 560h-5l-130 -295h265zM354 780q0 -23 16 -39t39 -16t39 16t16 39
t-16 39t-39 16t-39 -16t-16 -39zM544 780q0 -26 -10 -49t-27.5 -40t-42.5 -26.5t-55 -9.5t-55 9.5t-42.5 26.5t-27.5 40t-10 49t10 49t27.5 40t42.5 26.5t55 9.5t55 -9.5t42.5 -26.5t27.5 -40t10 -49z" />
    <glyph glyph-name="AE" unicode="&#xc6;" horiz-adv-x="1196" 
d="M566 200h-350l-45 -175q-7 -25 -30 -25h-100q-11 0 -17 7t-3 18l110 425q14 54 40.5 100t65.5 79.5t91 52t118 18.5h685q25 0 25 -25v-65q0 -25 -25 -25h-420v-170h310q25 0 25 -25v-65q0 -25 -25 -25h-310v-185h420q25 0 25 -25v-65q0 -25 -25 -25h-540q-25 0 -25 25
v175zM241 310h325v275h-120q-33 0 -61 -10.5t-50 -28.5t-37 -42.5t-22 -53.5z" />
    <glyph glyph-name="Ccedilla" unicode="&#xc7;" horiz-adv-x="840" 
d="M440 720q79 0 140.5 -20.5t105.5 -54.5t70.5 -77t33.5 -88q0 -25 -25 -25h-90q-15 0 -23 7t-12 18q-9 26 -25.5 49.5t-41 41.5t-57.5 28.5t-76 10.5q-55 0 -99 -18t-75.5 -52t-48.5 -82t-17 -108q0 -62 18 -110.5t49.5 -81.5t76 -50.5t96.5 -17.5q45 0 79 10.5t59.5 29.5
t43 44.5t28.5 55.5q5 11 12.5 18t22.5 7h90q25 0 25 -25q-7 -49 -33.5 -94t-71.5 -79.5t-108.5 -55.5t-146.5 -21q-92 0 -164.5 26t-122.5 74.5t-76.5 117t-26.5 152.5t26.5 152.5t76.5 117t122.5 74.5t164.5 26zM455 -195q26 0 40.5 12.5t14.5 27.5t-14.5 27.5t-40.5 12.5
h-40q-25 0 -25 25v90h85v-40q64 0 99.5 -33t35.5 -82t-38 -82t-117 -33q-30 0 -48.5 2.5t-29 7.5t-14 11t-3.5 14v25q0 25 25 25h20q11 0 21 -5t29 -5z" />
    <glyph glyph-name="Egrave" unicode="&#xc8;" horiz-adv-x="765" 
d="M90 675q0 25 25 25h585q25 0 25 -25v-65q0 -25 -25 -25h-465v-170h355q25 0 25 -25v-65q0 -25 -25 -25h-355v-185h465q25 0 25 -25v-65q0 -25 -25 -25h-585q-25 0 -25 25v650zM377 990q13 0 21.5 -7t13.5 -18q17 -38 32.5 -75.5t32.5 -74.5q5 -9 1 -17t-16 -8h-55
q-11 0 -19 7t-16 18l-100 150q-5 7 -0.5 16t15.5 9h90z" />
    <glyph glyph-name="Eacute" unicode="&#xc9;" horiz-adv-x="765" 
d="M90 675q0 25 25 25h585q25 0 25 -25v-65q0 -25 -25 -25h-465v-170h355q25 0 25 -25v-65q0 -25 -25 -25h-355v-185h465q25 0 25 -25v-65q0 -25 -25 -25h-585q-25 0 -25 25v650zM562 990q11 0 15.5 -9t-0.5 -16l-100 -150q-8 -11 -16 -18t-19 -7h-55q-12 0 -16 8t1 17
q17 37 32.5 74.5t32.5 75.5q5 11 13.5 18t21.5 7h90z" />
    <glyph glyph-name="Ecircumflex" unicode="&#xca;" horiz-adv-x="765" 
d="M90 675q0 25 25 25h585q25 0 25 -25v-65q0 -25 -25 -25h-465v-170h355q25 0 25 -25v-65q0 -25 -25 -25h-355v-185h465q25 0 25 -25v-65q0 -25 -25 -25h-585q-25 0 -25 25v650zM447 980q11 0 24 -8t21 -17l115 -140q5 -8 0.5 -16.5t-15.5 -8.5h-65q-11 0 -24 7t-21 18
l-65 80h-5l-65 -80q-8 -11 -21 -18t-24 -7h-65q-11 0 -15.5 8.5t0.5 16.5l115 140q8 9 21 17t24 8h65z" />
    <glyph glyph-name="Edieresis" unicode="&#xcb;" horiz-adv-x="765" 
d="M90 675q0 25 25 25h585q25 0 25 -25v-65q0 -25 -25 -25h-465v-170h355q25 0 25 -25v-65q0 -25 -25 -25h-355v-185h465q25 0 25 -25v-65q0 -25 -25 -25h-585q-25 0 -25 25v650zM235 900q0 15 10 25t25 10h60q15 0 25 -10t10 -25v-65q0 -15 -10 -25t-25 -10h-60
q-15 0 -25 10t-10 25v65zM465 900q0 15 10 25t25 10h60q15 0 25 -10t10 -25v-65q0 -15 -10 -25t-25 -10h-60q-15 0 -25 10t-10 25v65z" />
    <glyph glyph-name="Igrave" unicode="&#xcc;" horiz-adv-x="525" 
d="M40 675q0 25 25 25h395q25 0 25 -25v-65q0 -25 -25 -25h-125v-470h125q25 0 25 -25v-65q0 -25 -25 -25h-395q-25 0 -25 25v65q0 25 25 25h125v470h-125q-25 0 -25 25v65zM214 990q13 0 21.5 -7t13.5 -18q17 -38 32.5 -75.5t32.5 -74.5q5 -9 1 -17t-16 -8h-55q-11 0 -19 7
t-16 18l-100 150q-5 7 -0.5 16t15.5 9h90z" />
    <glyph glyph-name="Iacute" unicode="&#xcd;" horiz-adv-x="525" 
d="M40 675q0 25 25 25h395q25 0 25 -25v-65q0 -25 -25 -25h-125v-470h125q25 0 25 -25v-65q0 -25 -25 -25h-395q-25 0 -25 25v65q0 25 25 25h125v470h-125q-25 0 -25 25v65zM400 990q11 0 15.5 -9t-0.5 -16l-100 -150q-8 -11 -16 -18t-19 -7h-55q-12 0 -16 8t1 17
q17 37 32.5 74.5t32.5 75.5q5 11 13.5 18t21.5 7h90z" />
    <glyph glyph-name="Icircumflex" unicode="&#xce;" horiz-adv-x="525" 
d="M40 675q0 25 25 25h395q25 0 25 -25v-65q0 -25 -25 -25h-125v-470h125q25 0 25 -25v-65q0 -25 -25 -25h-395q-25 0 -25 25v65q0 25 25 25h125v470h-125q-25 0 -25 25v65zM295 980q11 0 24 -8t21 -17l115 -140q5 -8 0.5 -16.5t-15.5 -8.5h-65q-11 0 -24 7t-21 18l-65 80
h-5l-65 -80q-8 -11 -21 -18t-24 -7h-65q-11 0 -15.5 8.5t0.5 16.5l115 140q8 9 21 17t24 8h65z" />
    <glyph glyph-name="Idieresis" unicode="&#xcf;" horiz-adv-x="525" 
d="M40 675q0 25 25 25h395q25 0 25 -25v-65q0 -25 -25 -25h-125v-470h125q25 0 25 -25v-65q0 -25 -25 -25h-395q-25 0 -25 25v65q0 25 25 25h125v470h-125q-25 0 -25 25v65zM82 890q0 15 10 25t25 10h60q15 0 25 -10t10 -25v-65q0 -15 -10 -25t-25 -10h-60q-15 0 -25 10
t-10 25v65zM312 890q0 15 10 25t25 10h60q15 0 25 -10t10 -25v-65q0 -15 -10 -25t-25 -10h-60q-15 0 -25 10t-10 25v65z" />
    <glyph glyph-name="Eth" unicode="&#xd0;" horiz-adv-x="855" 
d="M385 315q0 -11 -7 -18t-18 -7h-315q-25 0 -25 25v55q0 11 7 18t18 7h315q25 0 25 -25v-55zM425 115q117 0 181 63t64 172t-64 172t-181 63h-180v-470h180zM820 350q0 -77 -26.5 -141t-77 -110.5t-124 -72.5t-166.5 -26h-301q-25 0 -25 25v650q0 25 25 25h300
q94 0 167.5 -26t124 -72.5t77 -110.5t26.5 -141z" />
    <glyph glyph-name="Ntilde" unicode="&#xd1;" horiz-adv-x="870" 
d="M630 205h5v470q0 25 25 25h95q25 0 25 -25v-650q0 -25 -25 -25h-111q-14 0 -25 7.5t-19 17.5l-360 470h-5v-470q0 -25 -25 -25h-95q-25 0 -25 25v650q0 25 25 25h111q14 0 25 -7.5t19 -17.5zM357 800q-53 0 -84 32.5t-31 92.5q0 25 25 25h50q11 0 16 -7t9 -18t12.5 -20.5
t27.5 -9.5q17 0 29 9.5t25 20.5t30.5 20.5t45.5 9.5q53 0 84 -32.5t31 -92.5q0 -25 -25 -25h-50q-11 0 -16 7t-9 18t-12.5 20.5t-27.5 9.5q-17 0 -29 -9.5t-25 -20.5t-30.5 -20.5t-45.5 -9.5z" />
    <glyph glyph-name="Ograve" unicode="&#xd2;" horiz-adv-x="880" 
d="M200 350q0 -62 17 -110.5t48.5 -81.5t76 -50.5t98.5 -17.5t98.5 17.5t76 50.5t48.5 81.5t17 110.5t-17 110.5t-48.5 81.5t-76 50.5t-98.5 17.5t-98.5 -17.5t-76 -50.5t-48.5 -81.5t-17 -110.5zM830 350q0 -84 -26.5 -152.5t-76.5 -117t-122.5 -74.5t-164.5 -26t-164.5 26
t-122.5 74.5t-76.5 117t-26.5 152.5t26.5 152.5t76.5 117t122.5 74.5t164.5 26t164.5 -26t122.5 -74.5t76.5 -117t26.5 -152.5zM402 990q13 0 21.5 -7t13.5 -18q17 -38 32.5 -75.5t32.5 -74.5q5 -9 1 -17t-16 -8h-55q-11 0 -19 7t-16 18l-100 150q-5 7 -0.5 16t15.5 9h90z
" />
    <glyph glyph-name="Oacute" unicode="&#xd3;" horiz-adv-x="880" 
d="M200 350q0 -62 17 -110.5t48.5 -81.5t76 -50.5t98.5 -17.5t98.5 17.5t76 50.5t48.5 81.5t17 110.5t-17 110.5t-48.5 81.5t-76 50.5t-98.5 17.5t-98.5 -17.5t-76 -50.5t-48.5 -81.5t-17 -110.5zM830 350q0 -84 -26.5 -152.5t-76.5 -117t-122.5 -74.5t-164.5 -26t-164.5 26
t-122.5 74.5t-76.5 117t-26.5 152.5t26.5 152.5t76.5 117t122.5 74.5t164.5 26t164.5 -26t122.5 -74.5t76.5 -117t26.5 -152.5zM577 990q11 0 15.5 -9t-0.5 -16l-100 -150q-8 -11 -16 -18t-19 -7h-55q-12 0 -16 8t1 17q17 37 32.5 74.5t32.5 75.5q5 11 13.5 18t21.5 7h90z
" />
    <glyph glyph-name="Ocircumflex" unicode="&#xd4;" horiz-adv-x="880" 
d="M200 350q0 -62 17 -110.5t48.5 -81.5t76 -50.5t98.5 -17.5t98.5 17.5t76 50.5t48.5 81.5t17 110.5t-17 110.5t-48.5 81.5t-76 50.5t-98.5 17.5t-98.5 -17.5t-76 -50.5t-48.5 -81.5t-17 -110.5zM830 350q0 -84 -26.5 -152.5t-76.5 -117t-122.5 -74.5t-164.5 -26t-164.5 26
t-122.5 74.5t-76.5 117t-26.5 152.5t26.5 152.5t76.5 117t122.5 74.5t164.5 26t164.5 -26t122.5 -74.5t76.5 -117t26.5 -152.5zM472 980q11 0 24 -8t21 -17l115 -140q5 -8 0.5 -16.5t-15.5 -8.5h-65q-11 0 -24 7t-21 18l-65 80h-5l-65 -80q-8 -11 -21 -18t-24 -7h-65
q-11 0 -15.5 8.5t0.5 16.5l115 140q8 9 21 17t24 8h65z" />
    <glyph glyph-name="Otilde" unicode="&#xd5;" horiz-adv-x="880" 
d="M200 350q0 -62 17 -110.5t48.5 -81.5t76 -50.5t98.5 -17.5t98.5 17.5t76 50.5t48.5 81.5t17 110.5t-17 110.5t-48.5 81.5t-76 50.5t-98.5 17.5t-98.5 -17.5t-76 -50.5t-48.5 -81.5t-17 -110.5zM830 350q0 -84 -26.5 -152.5t-76.5 -117t-122.5 -74.5t-164.5 -26t-164.5 26
t-122.5 74.5t-76.5 117t-26.5 152.5t26.5 152.5t76.5 117t122.5 74.5t164.5 26t164.5 -26t122.5 -74.5t76.5 -117t26.5 -152.5zM362 800q-53 0 -84 32.5t-31 92.5q0 25 25 25h50q11 0 16 -7t9 -18t12.5 -20.5t27.5 -9.5q17 0 29 9.5t25 20.5t30.5 20.5t45.5 9.5
q53 0 84 -32.5t31 -92.5q0 -25 -25 -25h-50q-11 0 -16 7t-9 18t-12.5 20.5t-27.5 9.5q-17 0 -29 -9.5t-25 -20.5t-30.5 -20.5t-45.5 -9.5z" />
    <glyph glyph-name="Odieresis" unicode="&#xd6;" horiz-adv-x="880" 
d="M200 350q0 -62 17 -110.5t48.5 -81.5t76 -50.5t98.5 -17.5t98.5 17.5t76 50.5t48.5 81.5t17 110.5t-17 110.5t-48.5 81.5t-76 50.5t-98.5 17.5t-98.5 -17.5t-76 -50.5t-48.5 -81.5t-17 -110.5zM830 350q0 -84 -26.5 -152.5t-76.5 -117t-122.5 -74.5t-164.5 -26t-164.5 26
t-122.5 74.5t-76.5 117t-26.5 152.5t26.5 152.5t76.5 117t122.5 74.5t164.5 26t164.5 -26t122.5 -74.5t76.5 -117t26.5 -152.5zM260 900q0 15 10 25t25 10h60q15 0 25 -10t10 -25v-65q0 -15 -10 -25t-25 -10h-60q-15 0 -25 10t-10 25v65zM490 900q0 15 10 25t25 10h60
q15 0 25 -10t10 -25v-65q0 -15 -10 -25t-25 -10h-60q-15 0 -25 10t-10 25v65z" />
    <glyph glyph-name="multiply" unicode="&#xd7;" horiz-adv-x="528" 
d="M144 135q-8 -8 -17.5 -8t-17.5 8l-40 40q-17 18 0 35l120 120l-120 120q-17 18 0 35l40 40q8 8 17.5 8t17.5 -8l120 -120l120 120q8 8 17.5 8t17.5 -8l40 -40q18 -17 0 -35l-120 -120l120 -120q18 -17 0 -35l-40 -40q-8 -8 -17.5 -8t-17.5 8l-120 120z" />
    <glyph glyph-name="Oslash" unicode="&#xd8;" horiz-adv-x="880" 
d="M746 599q41 -48 62.5 -110.5t21.5 -138.5q0 -84 -26.5 -152.5t-76.5 -117t-122.5 -74.5t-164.5 -26q-141 0 -236 60l-19 -20q-18 -20 -40 -20h-70q-11 0 -14.5 8.5t4.5 16.5l71 73q-42 48 -64 111t-22 141q0 84 26.5 152.5t76.5 117t122.5 74.5t164.5 26q143 0 238 -63
l22 23q18 20 40 20h70q11 0 14.5 -8.5t-4.5 -16.5zM200 350q0 -89 35 -150l353 365q-61 45 -148 45q-54 0 -98.5 -17.5t-76 -50.5t-48.5 -81.5t-17 -110.5zM680 350q0 43 -8.5 80t-24.5 66l-353 -363q60 -43 146 -43q54 0 98.5 17.5t76 50.5t48.5 81.5t17 110.5z" />
    <glyph glyph-name="Ugrave" unicode="&#xd9;" horiz-adv-x="850" 
d="M425 -20q-81 0 -144 22.5t-106.5 62.5t-66.5 96.5t-23 123.5v390q0 25 25 25h95q25 0 25 -25v-390q0 -43 14.5 -79t40 -61.5t61.5 -40t79 -14.5t79 14.5t61.5 40t40 61.5t14.5 79v390q0 25 25 25h95q25 0 25 -25v-390q0 -67 -23 -123.5t-66.5 -96.5t-106.5 -62.5
t-144 -22.5zM387 970q13 0 21.5 -7t13.5 -18q17 -38 32.5 -75.5t32.5 -74.5q5 -9 1 -17t-16 -8h-55q-11 0 -19 7t-16 18l-100 150q-5 7 -0.5 16t15.5 9h90z" />
    <glyph glyph-name="Uacute" unicode="&#xda;" horiz-adv-x="850" 
d="M425 -20q-81 0 -144 22.5t-106.5 62.5t-66.5 96.5t-23 123.5v390q0 25 25 25h95q25 0 25 -25v-390q0 -43 14.5 -79t40 -61.5t61.5 -40t79 -14.5t79 14.5t61.5 40t40 61.5t14.5 79v390q0 25 25 25h95q25 0 25 -25v-390q0 -67 -23 -123.5t-66.5 -96.5t-106.5 -62.5
t-144 -22.5zM562 970q11 0 15.5 -9t-0.5 -16l-100 -150q-8 -11 -16 -18t-19 -7h-55q-12 0 -16 8t1 17q17 37 32.5 74.5t32.5 75.5q5 11 13.5 18t21.5 7h90z" />
    <glyph glyph-name="Ucircumflex" unicode="&#xdb;" horiz-adv-x="850" 
d="M425 -20q-81 0 -144 22.5t-106.5 62.5t-66.5 96.5t-23 123.5v390q0 25 25 25h95q25 0 25 -25v-390q0 -43 14.5 -79t40 -61.5t61.5 -40t79 -14.5t79 14.5t61.5 40t40 61.5t14.5 79v390q0 25 25 25h95q25 0 25 -25v-390q0 -67 -23 -123.5t-66.5 -96.5t-106.5 -62.5
t-144 -22.5zM457 980q11 0 24 -8t21 -17l115 -140q5 -8 0.5 -16.5t-15.5 -8.5h-65q-11 0 -24 7t-21 18l-65 80h-5l-65 -80q-8 -11 -21 -18t-24 -7h-65q-11 0 -15.5 8.5t0.5 16.5l115 140q8 9 21 17t24 8h65z" />
    <glyph glyph-name="Udieresis" unicode="&#xdc;" horiz-adv-x="850" 
d="M425 -20q-81 0 -144 22.5t-106.5 62.5t-66.5 96.5t-23 123.5v390q0 25 25 25h95q25 0 25 -25v-390q0 -43 14.5 -79t40 -61.5t61.5 -40t79 -14.5t79 14.5t61.5 40t40 61.5t14.5 79v390q0 25 25 25h95q25 0 25 -25v-390q0 -67 -23 -123.5t-66.5 -96.5t-106.5 -62.5
t-144 -22.5zM245 890q0 15 10 25t25 10h60q15 0 25 -10t10 -25v-65q0 -15 -10 -25t-25 -10h-60q-15 0 -25 10t-10 25v65zM475 890q0 15 10 25t25 10h60q15 0 25 -10t10 -25v-65q0 -15 -10 -25t-25 -10h-60q-15 0 -25 10t-10 25v65z" />
    <glyph glyph-name="Yacute" unicode="&#xdd;" horiz-adv-x="751" 
d="M448 25q0 -25 -25 -25h-95q-25 0 -25 25v195l-300 455q-5 8 -0.5 16.5t15.5 8.5h105q11 0 24 -7t21 -18l205 -315h5l205 315q8 11 21 18t24 7h105q11 0 15.5 -8.5t-0.5 -16.5l-300 -455v-195zM513 970q11 0 15.5 -9t-0.5 -16l-100 -150q-8 -11 -16 -18t-19 -7h-55
q-12 0 -16 8t1 17q17 37 32.5 74.5t32.5 75.5q5 11 13.5 18t21.5 7h90z" />
    <glyph glyph-name="Thorn" unicode="&#xde;" horiz-adv-x="795" 
d="M90 705q0 25 25 25h95q25 0 25 -25v-65h155q88 0 156 -23t114.5 -62t70.5 -92t24 -113t-24 -113t-70.5 -92t-114.5 -62t-156 -23h-155v-65q0 -25 -25 -25h-95q-25 0 -25 25v710zM235 530v-360h155q51 0 90.5 14t67.5 38.5t42.5 57.5t14.5 70q0 38 -14.5 70.5t-42.5 57
t-67.5 38.5t-90.5 14h-155z" />
    <glyph glyph-name="germandbls" unicode="&#xdf;" horiz-adv-x="680" 
d="M320 720q54 0 97 -14.5t72.5 -38.5t45 -54.5t15.5 -62.5q0 -34 -12.5 -55.5t-27.5 -38.5t-27.5 -32.5t-12.5 -38.5q0 -16 13.5 -27.5t33.5 -22.5t43 -24t43 -32t33.5 -46.5t13.5 -67.5q0 -37 -15.5 -71t-45.5 -59t-73.5 -40t-99.5 -15q-30 0 -52 4t-30 6q-11 3 -17.5 11
t-6.5 19v50q0 25 25 25h15q15 0 25 -5t25 -5q57 0 86 25t29 55q0 21 -13.5 37.5t-33.5 31t-43 28.5t-43 31.5t-33.5 39.5t-13.5 52q0 29 12.5 48.5t27.5 37t27.5 36t12.5 43.5q0 26 -25 48t-70 22q-53 0 -81.5 -29t-28.5 -71v-495q0 -25 -25 -25h-85q-25 0 -25 25v495
q0 41 16.5 77.5t48 63.5t77 43t103.5 16z" />
    <glyph glyph-name="agrave" unicode="&#xe0;" horiz-adv-x="635" 
d="M310 530q62 0 110.5 -16.5t81.5 -44.5t50.5 -65.5t17.5 -78.5v-300q0 -25 -25 -25h-85q-25 0 -25 25v35h-5q-20 -22 -47 -40q-26 -16 -59.5 -28t-78.5 -12q-49 0 -88 14t-66 37.5t-41.5 54t-14.5 64.5q0 36 15 67.5t45.5 55.5t76.5 38t108 14h155q0 21 -9 40t-25.5 33.5
t-39.5 23t-51 8.5q-21 0 -37 -5t-27.5 -11.5t-19 -13t-11.5 -10.5q-11 -11 -20 -18t-20 -7h-70q-25 0 -25 25q0 23 15 47.5t44 45t72 34t99 13.5zM270 80q34 0 64 11.5t52 26.5q27 16 49 37v65h-146q-67 0 -93 -20t-26 -50t23.5 -50t76.5 -20zM287 790q13 0 21.5 -7
t13.5 -18q17 -38 32.5 -75.5t32.5 -74.5q5 -9 1 -17t-16 -8h-55q-11 0 -19 7t-16 18l-100 150q-5 7 -0.5 16t15.5 9h90z" />
    <glyph glyph-name="aacute" unicode="&#xe1;" horiz-adv-x="635" 
d="M310 530q62 0 110.5 -16.5t81.5 -44.5t50.5 -65.5t17.5 -78.5v-300q0 -25 -25 -25h-85q-25 0 -25 25v35h-5q-20 -22 -47 -40q-26 -16 -59.5 -28t-78.5 -12q-49 0 -88 14t-66 37.5t-41.5 54t-14.5 64.5q0 36 15 67.5t45.5 55.5t76.5 38t108 14h155q0 21 -9 40t-25.5 33.5
t-39.5 23t-51 8.5q-21 0 -37 -5t-27.5 -11.5t-19 -13t-11.5 -10.5q-11 -11 -20 -18t-20 -7h-70q-25 0 -25 25q0 23 15 47.5t44 45t72 34t99 13.5zM270 80q34 0 64 11.5t52 26.5q27 16 49 37v65h-146q-67 0 -93 -20t-26 -50t23.5 -50t76.5 -20zM462 790q11 0 15.5 -9
t-0.5 -16l-100 -150q-8 -11 -16 -18t-19 -7h-55q-12 0 -16 8t1 17q17 37 32.5 74.5t32.5 75.5q5 11 13.5 18t21.5 7h90z" />
    <glyph glyph-name="acircumflex" unicode="&#xe2;" horiz-adv-x="635" 
d="M310 530q62 0 110.5 -16.5t81.5 -44.5t50.5 -65.5t17.5 -78.5v-300q0 -25 -25 -25h-85q-25 0 -25 25v35h-5q-20 -22 -47 -40q-26 -16 -59.5 -28t-78.5 -12q-49 0 -88 14t-66 37.5t-41.5 54t-14.5 64.5q0 36 15 67.5t45.5 55.5t76.5 38t108 14h155q0 21 -9 40t-25.5 33.5
t-39.5 23t-51 8.5q-21 0 -37 -5t-27.5 -11.5t-19 -13t-11.5 -10.5q-11 -11 -20 -18t-20 -7h-70q-25 0 -25 25q0 23 15 47.5t44 45t72 34t99 13.5zM270 80q34 0 64 11.5t52 26.5q27 16 49 37v65h-146q-67 0 -93 -20t-26 -50t23.5 -50t76.5 -20zM357 780q11 0 24 -8t21 -17
l115 -140q5 -8 0.5 -16.5t-15.5 -8.5h-65q-11 0 -24 7t-21 18l-65 80h-5l-65 -80q-8 -11 -21 -18t-24 -7h-65q-11 0 -15.5 8.5t0.5 16.5l115 140q8 9 21 17t24 8h65z" />
    <glyph glyph-name="atilde" unicode="&#xe3;" horiz-adv-x="635" 
d="M310 530q62 0 110.5 -16.5t81.5 -44.5t50.5 -65.5t17.5 -78.5v-300q0 -25 -25 -25h-85q-25 0 -25 25v35h-5q-20 -22 -47 -40q-26 -16 -59.5 -28t-78.5 -12q-49 0 -88 14t-66 37.5t-41.5 54t-14.5 64.5q0 36 15 67.5t45.5 55.5t76.5 38t108 14h155q0 21 -9 40t-25.5 33.5
t-39.5 23t-51 8.5q-21 0 -37 -5t-27.5 -11.5t-19 -13t-11.5 -10.5q-11 -11 -20 -18t-20 -7h-70q-25 0 -25 25q0 23 15 47.5t44 45t72 34t99 13.5zM270 80q34 0 64 11.5t52 26.5q27 16 49 37v65h-146q-67 0 -93 -20t-26 -50t23.5 -50t76.5 -20zM247 610q-53 0 -84 32.5
t-31 92.5q0 25 25 25h50q11 0 16 -7t9 -18t12.5 -20.5t27.5 -9.5q17 0 29 9.5t25 20.5t30.5 20.5t45.5 9.5q53 0 84 -32.5t31 -92.5q0 -25 -25 -25h-50q-11 0 -16 7t-9 18t-12.5 20.5t-27.5 9.5q-17 0 -29 -9.5t-25 -20.5t-30.5 -20.5t-45.5 -9.5z" />
    <glyph glyph-name="adieresis" unicode="&#xe4;" horiz-adv-x="635" 
d="M310 530q62 0 110.5 -16.5t81.5 -44.5t50.5 -65.5t17.5 -78.5v-300q0 -25 -25 -25h-85q-25 0 -25 25v35h-5q-20 -22 -47 -40q-26 -16 -59.5 -28t-78.5 -12q-49 0 -88 14t-66 37.5t-41.5 54t-14.5 64.5q0 36 15 67.5t45.5 55.5t76.5 38t108 14h155q0 21 -9 40t-25.5 33.5
t-39.5 23t-51 8.5q-21 0 -37 -5t-27.5 -11.5t-19 -13t-11.5 -10.5q-11 -11 -20 -18t-20 -7h-70q-25 0 -25 25q0 23 15 47.5t44 45t72 34t99 13.5zM270 80q34 0 64 11.5t52 26.5q27 16 49 37v65h-146q-67 0 -93 -20t-26 -50t23.5 -50t76.5 -20zM145 710q0 15 10 25t25 10h60
q15 0 25 -10t10 -25v-65q0 -15 -10 -25t-25 -10h-60q-15 0 -25 10t-10 25v65zM375 710q0 15 10 25t25 10h60q15 0 25 -10t10 -25v-65q0 -15 -10 -25t-25 -10h-60q-15 0 -25 10t-10 25v65z" />
    <glyph glyph-name="aring" unicode="&#xe5;" horiz-adv-x="635" 
d="M310 530q62 0 110.5 -16.5t81.5 -44.5t50.5 -65.5t17.5 -78.5v-300q0 -25 -25 -25h-85q-25 0 -25 25v35h-5q-20 -22 -47 -40q-26 -16 -59.5 -28t-78.5 -12q-49 0 -88 14t-66 37.5t-41.5 54t-14.5 64.5q0 36 15 67.5t45.5 55.5t76.5 38t108 14h155q0 21 -9 40t-25.5 33.5
t-39.5 23t-51 8.5q-21 0 -37 -5t-27.5 -11.5t-19 -13t-11.5 -10.5q-11 -11 -20 -18t-20 -7h-70q-25 0 -25 25q0 23 15 47.5t44 45t72 34t99 13.5zM270 80q34 0 64 11.5t52 26.5q27 16 49 37v65h-146q-67 0 -93 -20t-26 -50t23.5 -50t76.5 -20zM270 695q0 -23 16 -39t39 -16
t39 16t16 39t-16 39t-39 16t-39 -16t-16 -39zM460 695q0 -26 -10 -49t-27.5 -40t-42.5 -26.5t-55 -9.5t-55 9.5t-42.5 26.5t-27.5 40t-10 49t10 49t27.5 40t42.5 26.5t55 9.5t55 -9.5t42.5 -26.5t27.5 -40t10 -49z" />
    <glyph glyph-name="ae" unicode="&#xe6;" horiz-adv-x="1010" 
d="M695 -20q-51 0 -88.5 15t-62.5 33q-29 20 -49 47h-5q-22 -27 -56 -47q-30 -20 -73.5 -34t-105.5 -14q-56 0 -97.5 13.5t-68.5 36.5t-40.5 54t-13.5 66q0 36 15 67.5t45.5 55.5t76.5 38t108 14h145q0 21 -9 40t-25 33.5t-38 23t-48 8.5q-45 0 -66 -14.5t-29 -25.5
t-18.5 -18t-21.5 -7h-70q-25 0 -25 25q0 23 15 47.5t44 45t72 34t99 13.5q31 0 60.5 -7t54.5 -18.5t44.5 -27t30.5 -32.5h5q11 17 31 32.5t46.5 27t56.5 18.5t61 7q62 0 112.5 -19.5t86.5 -55t56 -84t20 -106.5v-30q0 -25 -25 -25h-386q2 -26 12.5 -49.5t28 -41.5
t41.5 -28.5t54 -10.5q49 0 74.5 18.5t40.5 41.5q8 11 16 18t19 7h75q11 0 18 -7t7 -18q-6 -30 -24 -58.5t-48.5 -51t-75 -36.5t-102.5 -14zM280 80q30 0 56.5 11.5t46.5 26.5q23 16 42 37v65h-136q-67 0 -93 -20t-26 -50t25 -50t85 -20zM695 430q-57 0 -91.5 -33t-38.5 -82
h260q-4 49 -38.5 82t-91.5 33z" />
    <glyph glyph-name="ccedilla" unicode="&#xe7;" horiz-adv-x="630" 
d="M335 530q60 0 105 -14.5t76.5 -38.5t49.5 -54.5t24 -62.5q0 -25 -25 -25h-75q-23 0 -35 25q-6 11 -15.5 23.5t-24 23t-34.5 17t-46 6.5q-72 0 -116 -42.5t-44 -127.5q0 -83 42 -131.5t118 -48.5q56 0 85.5 25.5t44.5 59.5q12 25 35 25h70q25 0 25 -25q-6 -36 -24.5 -69
t-51 -59t-78.5 -41.5t-106 -15.5q-67 0 -122 20.5t-93 57.5t-59 88.5t-21 113.5q0 61 20.5 111t59 85t93 54.5t122.5 19.5zM350 -195q26 0 40.5 12.5t14.5 27.5t-14.5 27.5t-40.5 12.5h-40q-25 0 -25 25v90h85v-40q64 0 99.5 -33t35.5 -82t-38 -82t-117 -33q-30 0 -48.5 2.5
t-29 7.5t-14 11t-3.5 14v25q0 25 25 25h20q11 0 21 -5t29 -5z" />
    <glyph glyph-name="egrave" unicode="&#xe8;" 
d="M325 430q-28 0 -52.5 -10t-43.5 -26.5t-30.5 -37t-13.5 -41.5h280q-2 21 -13.5 41.5t-30 37t-43.5 26.5t-53 10zM325 -20q-66 0 -118.5 20t-89.5 56t-57 86.5t-20 112.5t20 112.5t57 86.5t89.5 56t118.5 20t118.5 -19.5t89.5 -55t57 -84t20 -106.5v-30q0 -25 -25 -25
h-406q2 -26 14 -49.5t31.5 -41.5t45 -28.5t55.5 -10.5q28 0 49 6t36 15t24.5 19.5t15.5 19.5q8 11 16 18t19 7h75q11 0 18 -7t7 -18q-6 -30 -24 -58.5t-50 -51t-78 -36.5t-108 -14zM285 790q13 0 21.5 -7t13.5 -18q17 -38 32.5 -75.5t32.5 -74.5q5 -9 1 -17t-16 -8h-55
q-11 0 -19 7t-16 18l-100 150q-5 7 -0.5 16t15.5 9h90z" />
    <glyph glyph-name="eacute" unicode="&#xe9;" 
d="M325 430q-28 0 -52.5 -10t-43.5 -26.5t-30.5 -37t-13.5 -41.5h280q-2 21 -13.5 41.5t-30 37t-43.5 26.5t-53 10zM325 -20q-66 0 -118.5 20t-89.5 56t-57 86.5t-20 112.5t20 112.5t57 86.5t89.5 56t118.5 20t118.5 -19.5t89.5 -55t57 -84t20 -106.5v-30q0 -25 -25 -25
h-406q2 -26 14 -49.5t31.5 -41.5t45 -28.5t55.5 -10.5q28 0 49 6t36 15t24.5 19.5t15.5 19.5q8 11 16 18t19 7h75q11 0 18 -7t7 -18q-6 -30 -24 -58.5t-50 -51t-78 -36.5t-108 -14zM470 790q11 0 15.5 -9t-0.5 -16l-100 -150q-8 -11 -16 -18t-19 -7h-55q-12 0 -16 8t1 17
q17 37 32.5 74.5t32.5 75.5q5 11 13.5 18t21.5 7h90z" />
    <glyph glyph-name="ecircumflex" unicode="&#xea;" 
d="M325 430q-28 0 -52.5 -10t-43.5 -26.5t-30.5 -37t-13.5 -41.5h280q-2 21 -13.5 41.5t-30 37t-43.5 26.5t-53 10zM325 -20q-66 0 -118.5 20t-89.5 56t-57 86.5t-20 112.5t20 112.5t57 86.5t89.5 56t118.5 20t118.5 -19.5t89.5 -55t57 -84t20 -106.5v-30q0 -25 -25 -25
h-406q2 -26 14 -49.5t31.5 -41.5t45 -28.5t55.5 -10.5q28 0 49 6t36 15t24.5 19.5t15.5 19.5q8 11 16 18t19 7h75q11 0 18 -7t7 -18q-6 -30 -24 -58.5t-50 -51t-78 -36.5t-108 -14zM355 780q11 0 24 -8t21 -17l115 -140q5 -8 0.5 -16.5t-15.5 -8.5h-65q-11 0 -24 7t-21 18
l-65 80h-5l-65 -80q-8 -11 -21 -18t-24 -7h-65q-11 0 -15.5 8.5t0.5 16.5l115 140q8 9 21 17t24 8h65z" />
    <glyph glyph-name="edieresis" unicode="&#xeb;" 
d="M325 430q-28 0 -52.5 -10t-43.5 -26.5t-30.5 -37t-13.5 -41.5h280q-2 21 -13.5 41.5t-30 37t-43.5 26.5t-53 10zM325 -20q-66 0 -118.5 20t-89.5 56t-57 86.5t-20 112.5t20 112.5t57 86.5t89.5 56t118.5 20t118.5 -19.5t89.5 -55t57 -84t20 -106.5v-30q0 -25 -25 -25
h-406q2 -26 14 -49.5t31.5 -41.5t45 -28.5t55.5 -10.5q28 0 49 6t36 15t24.5 19.5t15.5 19.5q8 11 16 18t19 7h75q11 0 18 -7t7 -18q-6 -30 -24 -58.5t-50 -51t-78 -36.5t-108 -14zM143 710q0 15 10 25t25 10h60q15 0 25 -10t10 -25v-65q0 -15 -10 -25t-25 -10h-60
q-15 0 -25 10t-10 25v65zM373 710q0 15 10 25t25 10h60q15 0 25 -10t10 -25v-65q0 -15 -10 -25t-25 -10h-60q-15 0 -25 10t-10 25v65z" />
    <glyph glyph-name="igrave" unicode="&#xec;" horiz-adv-x="280" 
d="M205 25q0 -25 -25 -25h-85q-25 0 -25 25v460q0 25 25 25h85q25 0 25 -25v-460zM93 790q13 0 21.5 -7t13.5 -18q17 -38 32.5 -75.5t32.5 -74.5q5 -9 1 -17t-16 -8h-55q-11 0 -19 7t-16 18l-100 150q-5 7 -0.5 16t15.5 9h90z" />
    <glyph glyph-name="iacute" unicode="&#xed;" horiz-adv-x="279" 
d="M200 25q0 -25 -25 -25h-85q-25 0 -25 25v460q0 25 25 25h85q25 0 25 -25v-460zM266 790q11 0 15.5 -9t-0.5 -16l-100 -150q-8 -11 -16 -18t-19 -7h-55q-12 0 -16 8t1 17q17 37 32.5 74.5t32.5 75.5q5 11 13.5 18t21.5 7h90z" />
    <glyph glyph-name="icircumflex" unicode="&#xee;" horiz-adv-x="311" 
d="M223 25q0 -25 -25 -25h-85q-25 0 -25 25v460q0 25 25 25h85q25 0 25 -25v-460zM188 780q11 0 24 -8t21 -17l115 -140q5 -8 0.5 -16.5t-15.5 -8.5h-65q-11 0 -24 7t-21 18l-65 80h-5l-65 -80q-8 -11 -21 -18t-24 -7h-65q-11 0 -15.5 8.5t0.5 16.5l115 140q8 9 21 17t24 8
h65z" />
    <glyph glyph-name="idieresis" unicode="&#xef;" horiz-adv-x="300" 
d="M217 25q0 -25 -25 -25h-85q-25 0 -25 25v460q0 25 25 25h85q25 0 25 -25v-460zM-30 700q0 15 10 25t25 10h60q15 0 25 -10t10 -25v-65q0 -15 -10 -25t-25 -10h-60q-15 0 -25 10t-10 25v65zM200 700q0 15 10 25t25 10h60q15 0 25 -10t10 -25v-65q0 -15 -10 -25t-25 -10
h-60q-15 0 -25 10t-10 25v65z" />
    <glyph glyph-name="eth" unicode="&#xf0;" 
d="M400 785q10 -6 10 -16.5t-5 -18.5l-31 -47q67 -45 111.5 -92.5t71 -100.5t37.5 -112.5t11 -127.5q0 -67 -20 -121t-57 -91.5t-89.5 -57.5t-118.5 -20t-118.5 19.5t-89.5 54t-57 82.5t-20 104t19 103t53 81t82 52.5t106 18.5q38 0 65.5 -9t45.5 -20q20 -13 34 -29h5
q-11 56 -49.5 97.5t-84.5 72.5l-41 -62q-7 -9 -16.5 -10t-18.5 5l-45 30q-9 6 -10 16t5 19l36 55q-15 9 -26.5 16.5t-19.5 13.5t-9 14.5t4 15.5l35 55q5 8 13.5 8.5t16.5 -3.5q13 -6 25 -12.5t24 -12.5l36 55q7 9 16.5 10t18.5 -5zM320 80q68 0 109 42.5t41 117.5
q0 72 -41 113.5t-109 41.5t-109 -41.5t-41 -113.5q0 -75 41 -117.5t109 -42.5z" />
    <glyph glyph-name="ntilde" unicode="&#xf1;" horiz-adv-x="685" 
d="M485 315q0 24 -9 45t-24.5 36.5t-36.5 24.5t-45 9q-36 0 -66 -11.5t-52 -25.5q-26 -17 -47 -38v-330q0 -25 -25 -25h-85q-25 0 -25 25v460q0 25 25 25h85q25 0 25 -25v-30h5q20 21 47 38q24 15 57 26t76 11q53 0 95.5 -16t72.5 -44.5t46 -68t16 -86.5v-290q0 -9 -8 -17
t-17 -8h-85q-25 0 -25 25v290zM273 610q-53 0 -84 32.5t-31 92.5q0 25 25 25h50q11 0 16 -7t9 -18t12.5 -20.5t27.5 -9.5q17 0 29 9.5t25 20.5t30.5 20.5t45.5 9.5q53 0 84 -32.5t31 -92.5q0 -25 -25 -25h-50q-11 0 -16 7t-9 18t-12.5 20.5t-27.5 9.5q-17 0 -29 -9.5
t-25 -20.5t-30.5 -20.5t-45.5 -9.5z" />
    <glyph glyph-name="ograve" unicode="&#xf2;" horiz-adv-x="670" 
d="M495 255q0 83 -44 129t-116 46t-116 -46t-44 -129t44 -129t116 -46t116 46t44 129zM630 255q0 -62 -20 -112.5t-58 -86.5t-93 -56t-124 -20t-124 20t-93 56t-58 86.5t-20 112.5t20 112.5t58 86.5t93 56t124 20t124 -20t93 -56t58 -86.5t20 -112.5zM287 790q13 0 21.5 -7
t13.5 -18q17 -38 32.5 -75.5t32.5 -74.5q5 -9 1 -17t-16 -8h-55q-11 0 -19 7t-16 18l-100 150q-5 7 -0.5 16t15.5 9h90z" />
    <glyph glyph-name="oacute" unicode="&#xf3;" horiz-adv-x="670" 
d="M495 255q0 83 -44 129t-116 46t-116 -46t-44 -129t44 -129t116 -46t116 46t44 129zM630 255q0 -62 -20 -112.5t-58 -86.5t-93 -56t-124 -20t-124 20t-93 56t-58 86.5t-20 112.5t20 112.5t58 86.5t93 56t124 20t124 -20t93 -56t58 -86.5t20 -112.5zM482 790q11 0 15.5 -9
t-0.5 -16l-100 -150q-8 -11 -16 -18t-19 -7h-55q-12 0 -16 8t1 17q17 37 32.5 74.5t32.5 75.5q5 11 13.5 18t21.5 7h90z" />
    <glyph glyph-name="ocircumflex" unicode="&#xf4;" horiz-adv-x="670" 
d="M495 255q0 83 -44 129t-116 46t-116 -46t-44 -129t44 -129t116 -46t116 46t44 129zM630 255q0 -62 -20 -112.5t-58 -86.5t-93 -56t-124 -20t-124 20t-93 56t-58 86.5t-20 112.5t20 112.5t58 86.5t93 56t124 20t124 -20t93 -56t58 -86.5t20 -112.5zM367 790q11 0 24 -8
t21 -17l115 -140q5 -8 0.5 -16.5t-15.5 -8.5h-65q-11 0 -24 7t-21 18l-65 80h-5l-65 -80q-8 -11 -21 -18t-24 -7h-65q-11 0 -15.5 8.5t0.5 16.5l115 140q8 9 21 17t24 8h65z" />
    <glyph glyph-name="otilde" unicode="&#xf5;" horiz-adv-x="670" 
d="M495 255q0 83 -44 129t-116 46t-116 -46t-44 -129t44 -129t116 -46t116 46t44 129zM630 255q0 -62 -20 -112.5t-58 -86.5t-93 -56t-124 -20t-124 20t-93 56t-58 86.5t-20 112.5t20 112.5t58 86.5t93 56t124 20t124 -20t93 -56t58 -86.5t20 -112.5zM257 610
q-53 0 -84 32.5t-31 92.5q0 25 25 25h50q11 0 16 -7t9 -18t12.5 -20.5t27.5 -9.5q17 0 29 9.5t25 20.5t30.5 20.5t45.5 9.5q53 0 84 -32.5t31 -92.5q0 -25 -25 -25h-50q-11 0 -16 7t-9 18t-12.5 20.5t-27.5 9.5q-17 0 -29 -9.5t-25 -20.5t-30.5 -20.5t-45.5 -9.5z" />
    <glyph glyph-name="odieresis" unicode="&#xf6;" horiz-adv-x="670" 
d="M495 255q0 83 -44 129t-116 46t-116 -46t-44 -129t44 -129t116 -46t116 46t44 129zM630 255q0 -62 -20 -112.5t-58 -86.5t-93 -56t-124 -20t-124 20t-93 56t-58 86.5t-20 112.5t20 112.5t58 86.5t93 56t124 20t124 -20t93 -56t58 -86.5t20 -112.5zM155 720q0 15 10 25
t25 10h60q15 0 25 -10t10 -25v-65q0 -15 -10 -25t-25 -10h-60q-15 0 -25 10t-10 25v65zM385 720q0 15 10 25t25 10h60q15 0 25 -10t10 -25v-65q0 -15 -10 -25t-25 -10h-60q-15 0 -25 10t-10 25v65z" />
    <glyph glyph-name="divide" unicode="&#xf7;" horiz-adv-x="605" 
d="M555 305q0 -11 -7 -18t-18 -7h-455q-25 0 -25 25v60q0 11 7 18t18 7h455q25 0 25 -25v-60zM235 570q0 15 10 25t25 10h65q15 0 25 -10t10 -25v-60q0 -15 -10 -25t-25 -10h-65q-15 0 -25 10t-10 25v60zM235 160q0 15 10 25t25 10h65q15 0 25 -10t10 -25v-60q0 -15 -10 -25
t-25 -10h-65q-15 0 -25 10t-10 25v60z" />
    <glyph glyph-name="oslash" unicode="&#xf8;" horiz-adv-x="667" 
d="M621 255q0 -62 -20 -112.5t-58 -86.5t-93 -56t-124 -20q-55 0 -100.5 12.5t-81.5 35.5l-8 -8q-18 -20 -40 -20h-70q-11 0 -14.5 8.5t4.5 16.5l66 61q-51 68 -51 169q0 62 20 112.5t58 86.5t93 56t124 20q56 0 102 -13t82 -37l21 20q18 20 40 20h70q11 0 14.5 -8.5
t-4.5 -16.5l-80 -74q50 -67 50 -166zM166 255q0 -46 13 -79l244 224q-39 30 -97 30q-72 0 -116 -46t-44 -129zM486 255q0 21 -3.5 40t-9.5 36l-242 -223q40 -28 95 -28q72 0 116 46t44 129z" />
    <glyph glyph-name="ugrave" unicode="&#xf9;" horiz-adv-x="690" 
d="M205 195q0 -24 9 -45t24.5 -36.5t36.5 -24.5t45 -9q36 0 66 11.5t52 26.5q26 16 47 37v330q0 25 25 25h85q25 0 25 -25v-460q0 -25 -25 -25h-85q-25 0 -25 25v30h-5q-20 -21 -47 -37q-24 -16 -57 -27t-76 -11q-52 0 -94.5 16t-72.5 44.5t-46.5 68t-16.5 86.5v290
q0 9 8 17t17 8h85q25 0 25 -25v-290zM297 780q13 0 21.5 -7t13.5 -18q17 -38 32.5 -75.5t32.5 -74.5q5 -9 1 -17t-16 -8h-55q-11 0 -19 7t-16 18l-100 150q-5 7 -0.5 16t15.5 9h90z" />
    <glyph glyph-name="uacute" unicode="&#xfa;" horiz-adv-x="690" 
d="M205 195q0 -24 9 -45t24.5 -36.5t36.5 -24.5t45 -9q36 0 66 11.5t52 26.5q26 16 47 37v330q0 25 25 25h85q25 0 25 -25v-460q0 -25 -25 -25h-85q-25 0 -25 25v30h-5q-20 -21 -47 -37q-24 -16 -57 -27t-76 -11q-52 0 -94.5 16t-72.5 44.5t-46.5 68t-16.5 86.5v290
q0 9 8 17t17 8h85q25 0 25 -25v-290zM492 780q11 0 15.5 -9t-0.5 -16l-100 -150q-8 -11 -16 -18t-19 -7h-55q-12 0 -16 8t1 17q17 37 32.5 74.5t32.5 75.5q5 11 13.5 18t21.5 7h90z" />
    <glyph glyph-name="ucircumflex" unicode="&#xfb;" horiz-adv-x="690" 
d="M205 195q0 -24 9 -45t24.5 -36.5t36.5 -24.5t45 -9q36 0 66 11.5t52 26.5q26 16 47 37v330q0 25 25 25h85q25 0 25 -25v-460q0 -25 -25 -25h-85q-25 0 -25 25v30h-5q-20 -21 -47 -37q-24 -16 -57 -27t-76 -11q-52 0 -94.5 16t-72.5 44.5t-46.5 68t-16.5 86.5v290
q0 9 8 17t17 8h85q25 0 25 -25v-290zM377 780q11 0 24 -8t21 -17l115 -140q5 -8 0.5 -16.5t-15.5 -8.5h-65q-11 0 -24 7t-21 18l-65 80h-5l-65 -80q-8 -11 -21 -18t-24 -7h-65q-11 0 -15.5 8.5t0.5 16.5l115 140q8 9 21 17t24 8h65z" />
    <glyph glyph-name="udieresis" unicode="&#xfc;" horiz-adv-x="690" 
d="M205 195q0 -24 9 -45t24.5 -36.5t36.5 -24.5t45 -9q36 0 66 11.5t52 26.5q26 16 47 37v330q0 25 25 25h85q25 0 25 -25v-460q0 -25 -25 -25h-85q-25 0 -25 25v30h-5q-20 -21 -47 -37q-24 -16 -57 -27t-76 -11q-52 0 -94.5 16t-72.5 44.5t-46.5 68t-16.5 86.5v290
q0 9 8 17t17 8h85q25 0 25 -25v-290zM165 700q0 15 10 25t25 10h60q15 0 25 -10t10 -25v-65q0 -15 -10 -25t-25 -10h-60q-15 0 -25 10t-10 25v65zM395 700q0 15 10 25t25 10h60q15 0 25 -10t10 -25v-65q0 -15 -10 -25t-25 -10h-60q-15 0 -25 10t-10 25v65z" />
    <glyph glyph-name="yacute" unicode="&#xfd;" horiz-adv-x="603" 
d="M322 10q-43 0 -75.5 12t-58 36t-45 61t-36.5 86l-95 280q-5 11 1 18t14 7h95q11 0 19 -8t11 -17l90 -280q5 -16 13.5 -32.5t19 -29t22.5 -20.5t25 -8h30l105 370q7 25 30 25h85q11 0 16.5 -8t3.5 -17l-135 -475q-12 -41 -32 -76t-48 -60.5t-63.5 -39.5t-76.5 -14h-80
q-25 0 -25 25v65q0 25 25 25h25q19 0 29.5 -5t25.5 -5q30 0 51.5 22t33.5 63zM442 780q11 0 15.5 -9t-0.5 -16l-100 -150q-8 -11 -16 -18t-19 -7h-55q-12 0 -16 8t1 17q17 37 32.5 74.5t32.5 75.5q5 11 13.5 18t21.5 7h90z" />
    <glyph glyph-name="thorn" unicode="&#xfe;" horiz-adv-x="685" 
d="M80 675q0 25 25 25h85q25 0 25 -25v-185h5q17 11 38 20q20 8 45 14t57 6q66 0 118.5 -20t89.5 -56t57 -86.5t20 -112.5t-20 -112.5t-57 -86.5t-89.5 -56t-118.5 -20q-33 0 -59 7t-44 16q-21 9 -37 22h-5v-180q0 -25 -25 -25h-85q-25 0 -25 25v830zM360 80q68 0 109 44
t41 131t-41 131t-109 44q-34 0 -60.5 -6t-45.5 -14q-22 -9 -39 -20v-265q17 -13 39 -22q20 -10 46 -16.5t60 -6.5z" />
    <glyph glyph-name="ydieresis" unicode="&#xff;" horiz-adv-x="603" 
d="M322 10q-43 0 -75.5 12t-58 36t-45 61t-36.5 86l-95 280q-5 11 1 18t14 7h95q11 0 19 -8t11 -17l90 -280q5 -16 13.5 -32.5t19 -29t22.5 -20.5t25 -8h30l105 370q7 25 30 25h85q11 0 16.5 -8t3.5 -17l-135 -475q-12 -41 -32 -76t-48 -60.5t-63.5 -39.5t-76.5 -14h-80
q-25 0 -25 25v65q0 25 25 25h25q19 0 29.5 -5t25.5 -5q30 0 51.5 22t33.5 63zM125 700q0 15 10 25t25 10h60q15 0 25 -10t10 -25v-65q0 -15 -10 -25t-25 -10h-60q-15 0 -25 10t-10 25v65zM355 700q0 15 10 25t25 10h60q15 0 25 -10t10 -25v-65q0 -15 -10 -25t-25 -10h-60
q-15 0 -25 10t-10 25v65z" />
    <glyph glyph-name="Amacron" unicode="&#x100;" horiz-adv-x="811" 
d="M463 700q28 0 40 -25l300 -650q5 -11 0.5 -18t-15.5 -7h-105q-15 0 -22.5 7t-12.5 18l-55 125h-375l-55 -125q-5 -11 -12.5 -18t-22.5 -7h-105q-11 0 -15.5 7t0.5 18l300 650q12 25 40 25h115zM408 560h-5l-130 -295h265zM589 835q0 -11 -7 -18t-18 -7h-310q-25 0 -25 25
v55q0 11 7 18t18 7h310q25 0 25 -25v-55z" />
    <glyph glyph-name="amacron" unicode="&#x101;" horiz-adv-x="635" 
d="M310 530q62 0 110.5 -16.5t81.5 -44.5t50.5 -65.5t17.5 -78.5v-300q0 -25 -25 -25h-85q-25 0 -25 25v35h-5q-20 -22 -47 -40q-26 -16 -59.5 -28t-78.5 -12q-49 0 -88 14t-66 37.5t-41.5 54t-14.5 64.5q0 36 15 67.5t45.5 55.5t76.5 38t108 14h155q0 21 -9 40t-25.5 33.5
t-39.5 23t-51 8.5q-21 0 -37 -5t-27.5 -11.5t-19 -13t-11.5 -10.5q-11 -11 -20 -18t-20 -7h-70q-25 0 -25 25q0 23 15 47.5t44 45t72 34t99 13.5zM270 80q34 0 64 11.5t52 26.5q27 16 49 37v65h-146q-67 0 -93 -20t-26 -50t23.5 -50t76.5 -20zM505 655q0 -11 -7 -18t-18 -7
h-310q-25 0 -25 25v55q0 11 7 18t18 7h310q25 0 25 -25v-55z" />
    <glyph glyph-name="Abreve" unicode="&#x102;" horiz-adv-x="811" 
d="M463 700q28 0 40 -25l300 -650q5 -11 0.5 -18t-15.5 -7h-105q-15 0 -22.5 7t-12.5 18l-55 125h-375l-55 -125q-5 -11 -12.5 -18t-22.5 -7h-105q-11 0 -15.5 7t0.5 18l300 650q12 25 40 25h115zM408 560h-5l-130 -295h265zM409 795q-43 0 -77.5 12.5t-58.5 33.5t-36.5 49
t-12.5 60q0 8 6 14t14 6h60q8 0 13 -6t7 -14q8 -29 29 -49.5t56 -20.5t56 20.5t29 49.5q2 8 7 14t13 6h60q8 0 14 -6t6 -14q0 -32 -12.5 -60t-36.5 -49t-58.5 -33.5t-77.5 -12.5z" />
    <glyph glyph-name="abreve" unicode="&#x103;" horiz-adv-x="635" 
d="M310 530q62 0 110.5 -16.5t81.5 -44.5t50.5 -65.5t17.5 -78.5v-300q0 -25 -25 -25h-85q-25 0 -25 25v35h-5q-20 -22 -47 -40q-26 -16 -59.5 -28t-78.5 -12q-49 0 -88 14t-66 37.5t-41.5 54t-14.5 64.5q0 36 15 67.5t45.5 55.5t76.5 38t108 14h155q0 21 -9 40t-25.5 33.5
t-39.5 23t-51 8.5q-21 0 -37 -5t-27.5 -11.5t-19 -13t-11.5 -10.5q-11 -11 -20 -18t-20 -7h-70q-25 0 -25 25q0 23 15 47.5t44 45t72 34t99 13.5zM270 80q34 0 64 11.5t52 26.5q27 16 49 37v65h-146q-67 0 -93 -20t-26 -50t23.5 -50t76.5 -20zM315 595q-43 0 -77.5 12.5
t-58.5 33.5t-36.5 49t-12.5 60q0 8 6 14t14 6h60q8 0 13 -6t7 -14q8 -29 29 -49.5t56 -20.5t56 20.5t29 49.5q2 8 7 14t13 6h60q8 0 14 -6t6 -14q0 -32 -12.5 -60t-36.5 -49t-58.5 -33.5t-77.5 -12.5z" />
    <glyph glyph-name="Aogonek" unicode="&#x104;" horiz-adv-x="811" 
d="M463 700q28 0 40 -25l300 -650q5 -11 0.5 -18t-15.5 -7h-105q-15 0 -22.5 7t-12.5 18l-55 125h-375l-55 -125q-5 -11 -12.5 -18t-22.5 -7h-105q-11 0 -15.5 7t0.5 18l300 650q12 25 40 25h115zM408 560h-5l-130 -295h265zM791 0q-35 -18 -62 -38q-26 -18 -44.5 -38.5
t-18.5 -43.5q0 -15 13 -27.5t32 -12.5q18 0 29.5 5t20.5 5h10q25 0 25 -25v-30q0 -8 -2.5 -13.5t-11.5 -9t-26 -5.5t-45 -2q-72 0 -108.5 33.5t-36.5 81.5q0 32 18 54.5t40 37.5q25 17 57 28h110z" />
    <glyph glyph-name="aogonek" unicode="&#x105;" horiz-adv-x="640" 
d="M315 530q62 0 110.5 -16.5t81.5 -44.5t50.5 -65.5t17.5 -78.5v-300q0 -25 -25 -25h-85q-25 0 -25 25v35h-5q-20 -22 -47 -40q-26 -16 -59.5 -28t-78.5 -12q-49 0 -88 14t-66 37.5t-41.5 54t-14.5 64.5q0 36 15 67.5t45.5 55.5t76.5 38t108 14h155q0 21 -9 40t-25.5 33.5
t-39.5 23t-51 8.5q-21 0 -37 -5t-27.5 -11.5t-19 -13t-11.5 -10.5q-11 -11 -20 -18t-20 -7h-70q-25 0 -25 25q0 23 15 47.5t44 45t72 34t99 13.5zM275 80q34 0 64 11.5t52 26.5q27 16 49 37v65h-146q-67 0 -93 -20t-26 -50t23.5 -50t76.5 -20zM554 0q-35 -18 -62 -38
q-26 -18 -44.5 -38.5t-18.5 -43.5q0 -15 13 -27.5t32 -12.5q18 0 29.5 5t20.5 5h10q25 0 25 -25v-30q0 -8 -2.5 -13.5t-11.5 -9t-26 -5.5t-45 -2q-72 0 -108.5 33.5t-36.5 81.5q0 32 18 54.5t40 37.5q25 17 57 28h110z" />
    <glyph glyph-name="Cacute" unicode="&#x106;" horiz-adv-x="840" 
d="M440 720q79 0 140.5 -20.5t105.5 -54.5t70.5 -77t33.5 -88q0 -25 -25 -25h-90q-15 0 -23 7t-12 18q-9 26 -25.5 49.5t-41 41.5t-57.5 28.5t-76 10.5q-55 0 -99 -18t-75.5 -52t-48.5 -82t-17 -108q0 -62 18 -110.5t49.5 -81.5t76 -50.5t96.5 -17.5q45 0 79 10.5t59.5 29.5
t43 44.5t28.5 55.5q5 11 12.5 18t22.5 7h90q25 0 25 -25q-7 -49 -33.5 -94t-71.5 -79.5t-108.5 -55.5t-146.5 -21q-92 0 -164.5 26t-122.5 74.5t-76.5 117t-26.5 152.5t26.5 152.5t76.5 117t122.5 74.5t164.5 26zM578 1000q11 0 15.5 -9t-0.5 -16l-100 -150q-8 -11 -16 -18
t-19 -7h-55q-12 0 -16 8t1 17q17 37 32.5 74.5t32.5 75.5q5 11 13.5 18t21.5 7h90z" />
    <glyph glyph-name="cacute" unicode="&#x107;" horiz-adv-x="630" 
d="M335 530q60 0 105 -14.5t76.5 -38.5t49.5 -54.5t24 -62.5q0 -25 -25 -25h-75q-23 0 -35 25q-6 11 -15.5 23.5t-24 23t-34.5 17t-46 6.5q-72 0 -116 -42.5t-44 -127.5q0 -83 42 -131.5t118 -48.5q56 0 85.5 25.5t44.5 59.5q12 25 35 25h70q25 0 25 -25q-6 -36 -24.5 -69
t-51 -59t-78.5 -41.5t-106 -15.5q-67 0 -122 20.5t-93 57.5t-59 88.5t-21 113.5q0 61 20.5 111t59 85t93 54.5t122.5 19.5zM475 790q11 0 15.5 -9t-0.5 -16l-100 -150q-8 -11 -16 -18t-19 -7h-55q-12 0 -16 8t1 17q17 37 32.5 74.5t32.5 75.5q5 11 13.5 18t21.5 7h90z" />
    <glyph glyph-name="Ccircumflex" unicode="&#x108;" horiz-adv-x="840" 
d="M440 720q79 0 140.5 -20.5t105.5 -54.5t70.5 -77t33.5 -88q0 -25 -25 -25h-90q-15 0 -23 7t-12 18q-9 26 -25.5 49.5t-41 41.5t-57.5 28.5t-76 10.5q-55 0 -99 -18t-75.5 -52t-48.5 -82t-17 -108q0 -62 18 -110.5t49.5 -81.5t76 -50.5t96.5 -17.5q45 0 79 10.5t59.5 29.5
t43 44.5t28.5 55.5q5 11 12.5 18t22.5 7h90q25 0 25 -25q-7 -49 -33.5 -94t-71.5 -79.5t-108.5 -55.5t-146.5 -21q-92 0 -164.5 26t-122.5 74.5t-76.5 117t-26.5 152.5t26.5 152.5t76.5 117t122.5 74.5t164.5 26zM453 990q11 0 24 -8t21 -17l115 -140q5 -8 0.5 -16.5
t-15.5 -8.5h-65q-11 0 -24 7t-21 18l-65 80h-5l-65 -80q-8 -11 -21 -18t-24 -7h-65q-11 0 -15.5 8.5t0.5 16.5l115 140q8 9 21 17t24 8h65z" />
    <glyph glyph-name="ccircumflex" unicode="&#x109;" horiz-adv-x="630" 
d="M335 530q60 0 105 -14.5t76.5 -38.5t49.5 -54.5t24 -62.5q0 -25 -25 -25h-75q-23 0 -35 25q-6 11 -15.5 23.5t-24 23t-34.5 17t-46 6.5q-72 0 -116 -42.5t-44 -127.5q0 -83 42 -131.5t118 -48.5q56 0 85.5 25.5t44.5 59.5q12 25 35 25h70q25 0 25 -25q-6 -36 -24.5 -69
t-51 -59t-78.5 -41.5t-106 -15.5q-67 0 -122 20.5t-93 57.5t-59 88.5t-21 113.5q0 61 20.5 111t59 85t93 54.5t122.5 19.5zM360 790q11 0 24 -8t21 -17l115 -140q5 -8 0.5 -16.5t-15.5 -8.5h-65q-11 0 -24 7t-21 18l-65 80h-5l-65 -80q-8 -11 -21 -18t-24 -7h-65
q-11 0 -15.5 8.5t0.5 16.5l115 140q8 9 21 17t24 8h65z" />
    <glyph glyph-name="Ccaron" unicode="&#x10c;" horiz-adv-x="840" 
d="M440 720q79 0 140.5 -20.5t105.5 -54.5t70.5 -77t33.5 -88q0 -25 -25 -25h-90q-15 0 -23 7t-12 18q-9 26 -25.5 49.5t-41 41.5t-57.5 28.5t-76 10.5q-55 0 -99 -18t-75.5 -52t-48.5 -82t-17 -108q0 -62 18 -110.5t49.5 -81.5t76 -50.5t96.5 -17.5q45 0 79 10.5t59.5 29.5
t43 44.5t28.5 55.5q5 11 12.5 18t22.5 7h90q25 0 25 -25q-7 -49 -33.5 -94t-71.5 -79.5t-108.5 -55.5t-146.5 -21q-92 0 -164.5 26t-122.5 74.5t-76.5 117t-26.5 152.5t26.5 152.5t76.5 117t122.5 74.5t164.5 26zM408 800q-11 0 -24 8t-21 17l-115 140q-5 8 -0.5 16.5
t15.5 8.5h65q11 0 24 -7t21 -18l65 -80h5l65 80q8 11 21 18t24 7h65q11 0 15.5 -8.5t-0.5 -16.5l-115 -140q-8 -9 -21 -17t-24 -8h-65z" />
    <glyph glyph-name="ccaron" unicode="&#x10d;" horiz-adv-x="630" 
d="M335 530q60 0 105 -14.5t76.5 -38.5t49.5 -54.5t24 -62.5q0 -25 -25 -25h-75q-23 0 -35 25q-6 11 -15.5 23.5t-24 23t-34.5 17t-46 6.5q-72 0 -116 -42.5t-44 -127.5q0 -83 42 -131.5t118 -48.5q56 0 85.5 25.5t44.5 59.5q12 25 35 25h70q25 0 25 -25q-6 -36 -24.5 -69
t-51 -59t-78.5 -41.5t-106 -15.5q-67 0 -122 20.5t-93 57.5t-59 88.5t-21 113.5q0 61 20.5 111t59 85t93 54.5t122.5 19.5zM295 590q-11 0 -24 8t-21 17l-115 140q-5 8 -0.5 16.5t15.5 8.5h65q11 0 24 -7t21 -18l65 -80h5l65 80q8 11 21 18t24 7h65q11 0 15.5 -8.5
t-0.5 -16.5l-115 -140q-8 -9 -21 -17t-24 -8h-65z" />
    <glyph glyph-name="Dcaron" unicode="&#x10e;" horiz-adv-x="855" 
d="M415 115q117 0 181 63t64 172t-64 172t-181 63h-180v-470h180zM810 350q0 -77 -26.5 -141t-77 -110.5t-124 -72.5t-166.5 -26h-301q-25 0 -25 25v650q0 25 25 25h300q94 0 167.5 -26t124 -72.5t77 -110.5t26.5 -141zM379 790q-11 0 -24 8t-21 17l-115 140q-5 8 -0.5 16.5
t15.5 8.5h65q11 0 24 -7t21 -18l65 -80h5l65 80q8 11 21 18t24 7h65q11 0 15.5 -8.5t-0.5 -16.5l-115 -140q-8 -9 -21 -17t-24 -8h-65z" />
    <glyph glyph-name="dcaron" unicode="&#x10f;" horiz-adv-x="825" 
d="M605 25q0 -25 -25 -25h-85q-25 0 -25 25v30h-5q-18 -21 -43 -37q-23 -16 -52.5 -27t-69.5 -11q-58 0 -106 19t-82 54.5t-53 86.5t-19 115q0 62 19.5 112.5t55.5 86.5t85.5 56t109.5 20q36 0 64.5 -6t48.5 -14q24 -9 42 -20h5v185q0 25 25 25h85q25 0 25 -25v-650z
M470 385q-18 13 -40 23q-20 9 -45 15.5t-55 6.5q-68 0 -111.5 -46t-43.5 -129t38.5 -124t106.5 -41q32 0 59.5 11t47.5 25q24 15 43 35v224zM680 665q0 15 10 25t25 10h65q15 0 25 -10t10 -25v-60q0 -23 -3.5 -33.5t-6.5 -16.5l-38 -65q-5 -8 -13 -14t-20 -6h-24
q-8 0 -13.5 6t-1.5 14l40 80h-20q-15 0 -25 10t-10 25v60z" />
    <glyph glyph-name="Dcroat" unicode="&#x110;" horiz-adv-x="866" 
d="M821 350q0 -78 -26.5 -142t-76.5 -110.5t-123.5 -72t-168.5 -25.5h-300q-11 0 -18.5 7.5t-7.5 18.5v265h-54q-11 0 -18.5 7.5t-7.5 18.5v49q0 11 7.5 18.5t18.5 7.5h54v282q0 11 7.5 18.5t18.5 7.5h300q95 0 168.5 -25.5t123.5 -72t76.5 -110.5t26.5 -142zM426 109
q114 0 178.5 64.5t64.5 176.5t-64.5 176.5t-178.5 64.5h-181v-199h115q11 0 18.5 -7.5t7.5 -18.5v-49q0 -11 -7.5 -18.5t-18.5 -7.5h-115v-182h181z" />
    <glyph glyph-name="dcroat" unicode="&#x111;" horiz-adv-x="702" 
d="M603 24q0 -9 -7.5 -16.5t-16.5 -7.5h-86q-9 0 -16.5 7.5t-7.5 16.5v34h-7q-18 -21 -43 -38q-23 -16 -54 -27t-73 -11q-58 0 -104.5 17.5t-79.5 50.5t-50.5 79.5t-17.5 103.5q0 53 19.5 98.5t55 78.5t86 52t112.5 19q33 0 61 -6.5t49 -13.5q23 -10 43 -21h3v86h-130
q-9 0 -16.5 7.5t-7.5 16.5v51q0 9 7.5 16.5t16.5 7.5h130v51q0 9 7.5 16.5t16.5 7.5h86q9 0 16.5 -7.5t7.5 -16.5v-51h65q9 0 16.5 -7.5t7.5 -16.5v-51q0 -9 -7.5 -16.5t-16.5 -7.5h-65v-502zM469 337q-17 12 -39 22q-20 9 -44.5 15.5t-54.5 6.5q-33 0 -61.5 -11t-49 -30.5
t-32.5 -46.5t-12 -60q0 -66 37 -107t105 -41q32 0 59.5 12t48.5 26q24 17 43 38v176z" />
    <glyph glyph-name="Emacron" unicode="&#x112;" horiz-adv-x="765" 
d="M90 675q0 25 25 25h585q25 0 25 -25v-65q0 -25 -25 -25h-465v-170h355q25 0 25 -25v-65q0 -25 -25 -25h-355v-185h465q25 0 25 -25v-65q0 -25 -25 -25h-585q-25 0 -25 25v650zM595 835q0 -11 -7 -18t-18 -7h-310q-25 0 -25 25v55q0 11 7 18t18 7h310q25 0 25 -25v-55z
" />
    <glyph glyph-name="emacron" unicode="&#x113;" 
d="M325 430q-28 0 -52.5 -10t-43.5 -26.5t-30.5 -37t-13.5 -41.5h280q-2 21 -13.5 41.5t-30 37t-43.5 26.5t-53 10zM325 -20q-66 0 -118.5 20t-89.5 56t-57 86.5t-20 112.5t20 112.5t57 86.5t89.5 56t118.5 20t118.5 -19.5t89.5 -55t57 -84t20 -106.5v-30q0 -25 -25 -25
h-406q2 -26 14 -49.5t31.5 -41.5t45 -28.5t55.5 -10.5q28 0 49 6t36 15t24.5 19.5t15.5 19.5q8 11 16 18t19 7h75q11 0 18 -7t7 -18q-6 -30 -24 -58.5t-50 -51t-78 -36.5t-108 -14zM503 655q0 -11 -7 -18t-18 -7h-310q-25 0 -25 25v55q0 11 7 18t18 7h310q25 0 25 -25v-55z
" />
    <glyph glyph-name="Edotaccent" unicode="&#x116;" horiz-adv-x="765" 
d="M90 675q0 25 25 25h585q25 0 25 -25v-65q0 -25 -25 -25h-465v-170h355q25 0 25 -25v-65q0 -25 -25 -25h-355v-185h465q25 0 25 -25v-65q0 -25 -25 -25h-585q-25 0 -25 25v650zM350 900q0 11 9.5 20.5t20.5 9.5h70q11 0 20.5 -9.5t9.5 -20.5v-70q0 -11 -9.5 -20.5
t-20.5 -9.5h-70q-11 0 -20.5 9.5t-9.5 20.5v70z" />
    <glyph glyph-name="edotaccent" unicode="&#x117;" 
d="M325 430q-28 0 -52.5 -10t-43.5 -26.5t-30.5 -37t-13.5 -41.5h280q-2 21 -13.5 41.5t-30 37t-43.5 26.5t-53 10zM325 -20q-66 0 -118.5 20t-89.5 56t-57 86.5t-20 112.5t20 112.5t57 86.5t89.5 56t118.5 20t118.5 -19.5t89.5 -55t57 -84t20 -106.5v-30q0 -25 -25 -25
h-406q2 -26 14 -49.5t31.5 -41.5t45 -28.5t55.5 -10.5q28 0 49 6t36 15t24.5 19.5t15.5 19.5q8 11 16 18t19 7h75q11 0 18 -7t7 -18q-6 -30 -24 -58.5t-50 -51t-78 -36.5t-108 -14zM270 710q0 11 9.5 20.5t20.5 9.5h70q11 0 20.5 -9.5t9.5 -20.5v-70q0 -11 -9.5 -20.5
t-20.5 -9.5h-70q-11 0 -20.5 9.5t-9.5 20.5v70z" />
    <glyph glyph-name="Eogonek" unicode="&#x118;" horiz-adv-x="765" 
d="M90 675q0 25 25 25h585q25 0 25 -25v-65q0 -25 -25 -25h-465v-170h355q25 0 25 -25v-65q0 -25 -25 -25h-355v-185h465q25 0 25 -25v-65q0 -25 -25 -25h-585q-25 0 -25 25v650zM703 0q-35 -18 -62 -38q-26 -18 -44.5 -38.5t-18.5 -43.5q0 -15 13 -27.5t32 -12.5
q18 0 29.5 5t20.5 5h10q25 0 25 -25v-30q0 -8 -2.5 -13.5t-11.5 -9t-26 -5.5t-45 -2q-72 0 -108.5 33.5t-36.5 81.5q0 32 18 54.5t40 37.5q25 17 57 28h110z" />
    <glyph glyph-name="eogonek" unicode="&#x119;" 
d="M325 430q-28 0 -52.5 -10t-43.5 -26.5t-30.5 -37t-13.5 -41.5h280q-2 21 -13.5 41.5t-30 37t-43.5 26.5t-53 10zM325 -20q-66 0 -118.5 20t-89.5 56t-57 86.5t-20 112.5t20 112.5t57 86.5t89.5 56t118.5 20t118.5 -19.5t89.5 -55t57 -84t20 -106.5v-30q0 -25 -25 -25
h-406q2 -26 14 -49.5t31.5 -41.5t45 -28.5t55.5 -10.5q28 0 49 6t36 15t24.5 19.5t15.5 19.5q8 11 16 18t19 7h75q11 0 18 -7t7 -18q-6 -30 -24 -58.5t-50 -51t-78 -36.5t-108 -14zM453 0q-35 -18 -62 -38q-26 -18 -44.5 -38.5t-18.5 -43.5q0 -15 13 -27.5t32 -12.5
q18 0 29.5 5t20.5 5h10q25 0 25 -25v-30q0 -8 -2.5 -13.5t-11.5 -9t-26 -5.5t-45 -2q-72 0 -108.5 33.5t-36.5 81.5q0 32 18 54.5t40 37.5q25 17 57 28h110z" />
    <glyph glyph-name="Ecaron" unicode="&#x11a;" horiz-adv-x="765" 
d="M90 675q0 25 25 25h585q25 0 25 -25v-65q0 -25 -25 -25h-465v-170h355q25 0 25 -25v-65q0 -25 -25 -25h-355v-185h465q25 0 25 -25v-65q0 -25 -25 -25h-585q-25 0 -25 25v650zM382 790q-11 0 -24 8t-21 17l-115 140q-5 8 -0.5 16.5t15.5 8.5h65q11 0 24 -7t21 -18l65 -80
h5l65 80q8 11 21 18t24 7h65q11 0 15.5 -8.5t-0.5 -16.5l-115 -140q-8 -9 -21 -17t-24 -8h-65z" />
    <glyph glyph-name="ecaron" unicode="&#x11b;" 
d="M325 430q-28 0 -52.5 -10t-43.5 -26.5t-30.5 -37t-13.5 -41.5h280q-2 21 -13.5 41.5t-30 37t-43.5 26.5t-53 10zM325 -20q-66 0 -118.5 20t-89.5 56t-57 86.5t-20 112.5t20 112.5t57 86.5t89.5 56t118.5 20t118.5 -19.5t89.5 -55t57 -84t20 -106.5v-30q0 -25 -25 -25
h-406q2 -26 14 -49.5t31.5 -41.5t45 -28.5t55.5 -10.5q28 0 49 6t36 15t24.5 19.5t15.5 19.5q8 11 16 18t19 7h75q11 0 18 -7t7 -18q-6 -30 -24 -58.5t-50 -51t-78 -36.5t-108 -14zM300 600q-11 0 -24 8t-21 17l-115 140q-5 8 -0.5 16.5t15.5 8.5h65q11 0 24 -7t21 -18
l65 -80h5l65 80q8 11 21 18t24 7h65q11 0 15.5 -8.5t-0.5 -16.5l-115 -140q-8 -9 -21 -17t-24 -8h-65z" />
    <glyph glyph-name="Gbreve" unicode="&#x11e;" horiz-adv-x="850" 
d="M440 610q-54 0 -98.5 -17.5t-76 -50.5t-48.5 -81.5t-17 -110.5t17 -110.5t48.5 -81.5t76 -50.5t98.5 -17.5q47 0 86.5 15.5t68 40t44.5 56t16 63.5v5h-165q-25 0 -25 25v60q0 25 25 25h285q25 0 25 -25v-78q0 -59 -26 -112.5t-73.5 -94.5t-113.5 -65.5t-147 -24.5
q-92 0 -164.5 26t-122.5 74.5t-76.5 117t-26.5 152.5t26.5 152.5t76.5 117t122.5 74.5t164.5 26q79 0 140.5 -20.5t105.5 -54.5t70.5 -77t33.5 -88q0 -25 -25 -25h-90q-15 0 -23 7t-12 18q-9 26 -25.5 49.5t-41 41.5t-57.5 28.5t-76 10.5zM425 790q-43 0 -77.5 12.5
t-58.5 33.5t-36.5 49t-12.5 60q0 8 6 14t14 6h60q8 0 13 -6t7 -14q8 -29 29 -49.5t56 -20.5t56 20.5t29 49.5q2 8 7 14t13 6h60q8 0 14 -6t6 -14q0 -32 -12.5 -60t-36.5 -49t-58.5 -33.5t-77.5 -12.5z" />
    <glyph glyph-name="gbreve" unicode="&#x11f;" horiz-adv-x="675" 
d="M605 45q0 -49 -19 -91.5t-56 -74.5t-89.5 -50.5t-120.5 -18.5q-60 0 -107.5 13t-80 34t-50 48t-17.5 55q0 25 25 25h70q11 0 21.5 -7.5t18.5 -17.5q15 -20 41 -35t79 -15q34 0 61.5 10.5t47 29t30.5 43t11 52.5v15h-5q-18 -11 -42 -20q-21 -8 -49 -14t-64 -6
q-60 0 -109.5 19.5t-85.5 53t-55.5 79.5t-19.5 98q0 56 20 104t59.5 82.5t97.5 54t133 19.5q43 0 84 -7.5t73.5 -17t52 -17.5t20.5 -8q11 -4 18 -12t7 -23v-400zM470 405q-17 7 -36 13q-18 5 -39 8.5t-45 3.5q-81 0 -128 -43.5t-47 -116.5q0 -32 11.5 -59.5t32 -47.5
t49 -31.5t62.5 -11.5q28 0 53.5 7t44.5 16q23 9 42 22v240zM349 600q-43 0 -77.5 12.5t-58.5 33.5t-36.5 49t-12.5 60q0 8 6 14t14 6h60q8 0 13 -6t7 -14q8 -29 29 -49.5t56 -20.5t56 20.5t29 49.5q2 8 7 14t13 6h60q8 0 14 -6t6 -14q0 -32 -12.5 -60t-36.5 -49t-58.5 -33.5
t-77.5 -12.5z" />
    <glyph glyph-name="Gcommaaccent" unicode="&#x122;" horiz-adv-x="850" 
d="M440 610q-54 0 -98.5 -17.5t-76 -50.5t-48.5 -81.5t-17 -110.5t17 -110.5t48.5 -81.5t76 -50.5t98.5 -17.5q47 0 86.5 15.5t68 40t44.5 56t16 63.5v5h-165q-25 0 -25 25v60q0 25 25 25h285q25 0 25 -25v-78q0 -59 -26 -112.5t-73.5 -94.5t-113.5 -65.5t-147 -24.5
q-92 0 -164.5 26t-122.5 74.5t-76.5 117t-26.5 152.5t26.5 152.5t76.5 117t122.5 74.5t164.5 26q79 0 140.5 -20.5t105.5 -54.5t70.5 -77t33.5 -88q0 -25 -25 -25h-90q-15 0 -23 7t-12 18q-9 26 -25.5 49.5t-41 41.5t-57.5 28.5t-76 10.5zM367 -115q0 15 10 25t25 10h65
q15 0 25 -10t10 -25v-60q0 -23 -3.5 -33.5t-6.5 -16.5l-38 -65q-5 -8 -13 -14t-20 -6h-24q-8 0 -13.5 6t-1.5 14l40 80h-20q-15 0 -25 10t-10 25v60z" />
    <glyph glyph-name="gcommaaccent" unicode="&#x123;" horiz-adv-x="675" 
d="M605 45q0 -49 -19 -91.5t-56 -74.5t-89.5 -50.5t-120.5 -18.5q-60 0 -107.5 13t-80 34t-50 48t-17.5 55q0 25 25 25h70q11 0 21.5 -7.5t18.5 -17.5q15 -20 41 -35t79 -15q34 0 61.5 10.5t47 29t30.5 43t11 52.5v15h-5q-18 -11 -42 -20q-21 -8 -49 -14t-64 -6
q-60 0 -109.5 19.5t-85.5 53t-55.5 79.5t-19.5 98q0 56 20 104t59.5 82.5t97.5 54t133 19.5q43 0 84 -7.5t73.5 -17t52 -17.5t20.5 -8q11 -4 18 -12t7 -23v-400zM470 405q-17 7 -36 13q-18 5 -39 8.5t-45 3.5q-81 0 -128 -43.5t-47 -116.5q0 -32 11.5 -59.5t32 -47.5
t49 -31.5t62.5 -11.5q28 0 53.5 7t44.5 16q23 9 42 22v240zM409 641q0 -14 -8.5 -22.5t-22.5 -8.5h-57q-14 0 -22.5 8.5t-8.5 22.5v53q0 20 3 29.5t6 14.5l33 58q5 6 11.5 11.5t17.5 5.5h21q7 0 12 -5.5t2 -11.5l-36 -71h18q14 0 22.5 -8.5t8.5 -22.5v-53z" />
    <glyph glyph-name="Imacron" unicode="&#x12a;" horiz-adv-x="525" 
d="M40 675q0 25 25 25h395q25 0 25 -25v-65q0 -25 -25 -25h-125v-470h125q25 0 25 -25v-65q0 -25 -25 -25h-395q-25 0 -25 25v65q0 25 25 25h125v470h-125q-25 0 -25 25v65zM440 835q0 -11 -7 -18t-18 -7h-310q-25 0 -25 25v55q0 11 7 18t18 7h310q25 0 25 -25v-55z" />
    <glyph glyph-name="imacron" unicode="&#x12b;" horiz-adv-x="310" 
d="M222 25q0 -25 -25 -25h-85q-25 0 -25 25v460q0 25 25 25h85q25 0 25 -25v-460zM335 635q0 -11 -7 -18t-18 -7h-310q-25 0 -25 25v55q0 11 7 18t18 7h310q25 0 25 -25v-55z" />
    <glyph glyph-name="Iogonek" unicode="&#x12e;" horiz-adv-x="525" 
d="M40 675q0 25 25 25h395q25 0 25 -25v-65q0 -25 -25 -25h-125v-470h125q25 0 25 -25v-65q0 -25 -25 -25h-395q-25 0 -25 25v65q0 25 25 25h125v470h-125q-25 0 -25 25v65zM462 0q-35 -18 -62 -38q-26 -18 -44.5 -38.5t-18.5 -43.5q0 -15 13 -27.5t32 -12.5q18 0 29.5 5
t20.5 5h10q25 0 25 -25v-30q0 -8 -2.5 -13.5t-11.5 -9t-26 -5.5t-45 -2q-72 0 -108.5 33.5t-36.5 81.5q0 32 18 54.5t40 37.5q25 17 57 28h110z" />
    <glyph glyph-name="iogonek" unicode="&#x12f;" horiz-adv-x="285" 
d="M210 25q0 -25 -25 -25h-85q-25 0 -25 25v460q0 25 25 25h85q25 0 25 -25v-460zM170 725q40 0 40 -40v-65q0 -40 -40 -40h-55q-40 0 -40 40v65q0 40 40 40h55zM188 0q-35 -18 -62 -38q-26 -18 -44.5 -38.5t-18.5 -43.5q0 -15 13 -27.5t32 -12.5q18 0 29.5 5t20.5 5h10
q25 0 25 -25v-30q0 -8 -2.5 -13.5t-11.5 -9t-26 -5.5t-45 -2q-72 0 -108.5 33.5t-36.5 81.5q0 32 18 54.5t40 37.5q25 17 57 28h110z" />
    <glyph glyph-name="Idotaccent" unicode="&#x130;" horiz-adv-x="525" 
d="M40 675q0 25 25 25h395q25 0 25 -25v-65q0 -25 -25 -25h-125v-470h125q25 0 25 -25v-65q0 -25 -25 -25h-395q-25 0 -25 25v65q0 25 25 25h125v470h-125q-25 0 -25 25v65zM197 890q0 11 9.5 20.5t20.5 9.5h70q11 0 20.5 -9.5t9.5 -20.5v-70q0 -11 -9.5 -20.5t-20.5 -9.5
h-70q-11 0 -20.5 9.5t-9.5 20.5v70z" />
    <glyph glyph-name="dotlessi" unicode="&#x131;" horiz-adv-x="285" 
d="M210 25q0 -25 -25 -25h-85q-25 0 -25 25v460q0 25 25 25h85q25 0 25 -25v-460z" />
    <glyph glyph-name="Kcommaaccent" unicode="&#x136;" horiz-adv-x="807" 
d="M540 360q18 -5 38 -20q19 -14 40.5 -39.5t46.5 -70.5l110 -205q4 -8 0 -16.5t-15 -8.5h-100q-19 0 -29 7t-16 18l-110 205q-16 29 -41.5 49.5t-73.5 20.5h-155v-275q0 -25 -25 -25h-95q-25 0 -25 25v650q0 25 25 25h95q25 0 25 -25v-260h140q51 0 77.5 20.5t42.5 49.5
l100 190q5 11 15.5 18t29.5 7h100q11 0 15 -8.5t0 -16.5l-100 -190q-21 -40 -41.5 -63.5t-36.5 -35.5q-19 -15 -37 -21v-5zM346 -85q0 15 10 25t25 10h65q15 0 25 -10t10 -25v-60q0 -23 -3.5 -33.5t-6.5 -16.5l-38 -65q-5 -8 -13 -14t-20 -6h-24q-8 0 -13.5 6t-1.5 14l40 80
h-20q-15 0 -25 10t-10 25v60z" />
    <glyph glyph-name="kcommaaccent" unicode="&#x137;" horiz-adv-x="647" 
d="M80 675q0 25 25 25h85q25 0 25 -25v-355h100q30 0 49 18.5t31 41.5l55 105q6 11 18 18t27 7h95q11 0 16 -7t-1 -18l-64 -118q-16 -30 -33 -48.5t-31.5 -29.5t-23 -15l-8.5 -4v-5q16 -5 33 -18q16 -12 33 -31t34 -51l75 -140q4 -9 0 -17t-15 -8h-100q-15 0 -25 8t-15 17
l-75 140q-10 19 -27.5 34.5t-47.5 15.5h-100v-190q0 -25 -25 -25h-85q-25 0 -25 25v650zM260 -95q0 15 10 25t25 10h65q15 0 25 -10t10 -25v-60q0 -23 -3.5 -33.5t-6.5 -16.5l-38 -65q-5 -8 -13 -14t-20 -6h-24q-8 0 -13.5 6t-1.5 14l40 80h-20q-15 0 -25 10t-10 25v60z" />
    <glyph glyph-name="Lacute" unicode="&#x139;" horiz-adv-x="705" 
d="M90 675q0 25 25 25h95q25 0 25 -25v-560h425q25 0 25 -25v-65q0 -25 -25 -25h-545q-25 0 -25 25v650zM310 990q11 0 15.5 -9t-0.5 -16l-100 -150q-8 -11 -16 -18t-19 -7h-55q-12 0 -16 8t1 17q17 37 32.5 74.5t32.5 75.5q5 11 13.5 18t21.5 7h90z" />
    <glyph glyph-name="lacute" unicode="&#x13a;" horiz-adv-x="299" 
d="M215 25q0 -25 -25 -25h-85q-25 0 -25 25v650q0 25 25 25h85q25 0 25 -25v-650zM281 980q11 0 15.5 -9t-0.5 -16l-100 -150q-8 -11 -16 -18t-19 -7h-55q-12 0 -16 8t1 17q17 37 32.5 74.5t32.5 75.5q5 11 13.5 18t21.5 7h90z" />
    <glyph glyph-name="Lcommaaccent" unicode="&#x13b;" horiz-adv-x="705" 
d="M90 675q0 25 25 25h95q25 0 25 -25v-560h425q25 0 25 -25v-65q0 -25 -25 -25h-545q-25 0 -25 25v650zM335 -125q0 15 10 25t25 10h65q15 0 25 -10t10 -25v-60q0 -23 -3.5 -33.5t-6.5 -16.5l-38 -65q-5 -8 -13 -14t-20 -6h-24q-8 0 -13.5 6t-1.5 14l40 80h-20
q-15 0 -25 10t-10 25v60z" />
    <glyph glyph-name="lcommaaccent" unicode="&#x13c;" horiz-adv-x="295" 
d="M215 25q0 -25 -25 -25h-85q-25 0 -25 25v650q0 25 25 25h85q25 0 25 -25v-650zM80 -115q0 15 10 25t25 10h65q15 0 25 -10t10 -25v-60q0 -23 -3.5 -33.5t-6.5 -16.5l-38 -65q-5 -8 -13 -14t-20 -6h-24q-8 0 -13.5 6t-1.5 14l40 80h-20q-15 0 -25 10t-10 25v60z" />
    <glyph glyph-name="Lcaron" unicode="&#x13d;" horiz-adv-x="705" 
d="M90 675q0 25 25 25h95q25 0 25 -25v-560h425q25 0 25 -25v-65q0 -25 -25 -25h-545q-25 0 -25 25v650zM335 665q0 15 10 25t25 10h65q15 0 25 -10t10 -25v-60q0 -23 -3.5 -33.5t-6.5 -16.5l-38 -65q-5 -8 -13 -14t-20 -6h-24q-8 0 -13.5 6t-1.5 14l40 80h-20q-15 0 -25 10
t-10 25v60z" />
    <glyph glyph-name="lcaron" unicode="&#x13e;" horiz-adv-x="435" 
d="M215 25q0 -25 -25 -25h-85q-25 0 -25 25v650q0 25 25 25h85q25 0 25 -25v-650zM290 665q0 15 10 25t25 10h65q15 0 25 -10t10 -25v-60q0 -23 -3.5 -33.5t-6.5 -16.5l-38 -65q-5 -8 -13 -14t-20 -6h-24q-8 0 -13.5 6t-1.5 14l40 80h-20q-15 0 -25 10t-10 25v60z" />
    <glyph glyph-name="Lslash" unicode="&#x141;" horiz-adv-x="736" 
d="M119 271q-9 -4 -20.5 -10.5t-22.5 -12.5t-21 -10t-16 -4q-8 0 -13.5 5.5t-5.5 16.5v65q0 12 7.5 21t18.5 14l73 36v282q0 11 7.5 18.5t18.5 7.5h93q11 0 18.5 -7.5t7.5 -18.5v-208q26 13 52 25t52 26q6 2 10 2q8 0 14 -5t6 -16v-65q0 -14 -14.5 -26t-35.5 -23t-44 -20.5
t-40 -18.5v-232h426q11 0 18.5 -7.5t7.5 -18.5v-61q0 -11 -7.5 -18.5t-18.5 -7.5h-545q-11 0 -18.5 7.5t-7.5 18.5v245z" />
    <glyph glyph-name="lslash" unicode="&#x142;" horiz-adv-x="373" 
d="M113 257q-9 -4 -19.5 -9.5l-21 -11t-19.5 -9t-14 -3.5q-8 0 -13.5 4.5t-5.5 15.5v62q0 13 9.5 23t23.5 18t30.5 15t29.5 13v301q0 9 7.5 16.5t16.5 7.5h86q9 0 16.5 -7.5t7.5 -16.5v-234l73 39q8 4 13 4q8 0 14 -5t6 -15v-62q0 -25 -23 -35l-83 -44v-300q0 -9 -7.5 -16.5
t-16.5 -7.5h-86q-9 0 -16.5 7.5t-7.5 16.5v233z" />
    <glyph glyph-name="Nacute" unicode="&#x143;" horiz-adv-x="870" 
d="M630 205h5v470q0 25 25 25h95q25 0 25 -25v-650q0 -25 -25 -25h-111q-14 0 -25 7.5t-19 17.5l-360 470h-5v-470q0 -25 -25 -25h-95q-25 0 -25 25v650q0 25 25 25h111q14 0 25 -7.5t19 -17.5zM552 979q11 0 15.5 -9t-0.5 -16l-100 -150q-8 -11 -16 -18t-19 -7h-55
q-12 0 -16 8t1 17q17 37 32.5 74.5t32.5 75.5q5 11 13.5 18t21.5 7h90z" />
    <glyph glyph-name="nacute" unicode="&#x144;" horiz-adv-x="685" 
d="M485 315q0 24 -9 45t-24.5 36.5t-36.5 24.5t-45 9q-36 0 -66 -11.5t-52 -25.5q-26 -17 -47 -38v-330q0 -25 -25 -25h-85q-25 0 -25 25v460q0 25 25 25h85q25 0 25 -25v-30h5q20 21 47 38q24 15 57 26t76 11q53 0 95.5 -16t72.5 -44.5t46 -68t16 -86.5v-290q0 -9 -8 -17
t-17 -8h-85q-25 0 -25 25v290zM488 800q11 0 15.5 -9t-0.5 -16l-100 -150q-8 -11 -16 -18t-19 -7h-55q-12 0 -16 8t1 17q17 37 32.5 74.5t32.5 75.5q5 11 13.5 18t21.5 7h90z" />
    <glyph glyph-name="Ncommaaccent" unicode="&#x145;" horiz-adv-x="870" 
d="M630 205h5v470q0 25 25 25h95q25 0 25 -25v-650q0 -25 -25 -25h-111q-14 0 -25 7.5t-19 17.5l-360 470h-5v-470q0 -25 -25 -25h-95q-25 0 -25 25v650q0 25 25 25h111q14 0 25 -7.5t19 -17.5zM367 -95q0 15 10 25t25 10h65q15 0 25 -10t10 -25v-60q0 -23 -3.5 -33.5
t-6.5 -16.5l-38 -65q-5 -8 -13 -14t-20 -6h-24q-8 0 -13.5 6t-1.5 14l40 80h-20q-15 0 -25 10t-10 25v60z" />
    <glyph glyph-name="ncommaaccent" unicode="&#x146;" horiz-adv-x="685" 
d="M485 315q0 24 -9 45t-24.5 36.5t-36.5 24.5t-45 9q-36 0 -66 -11.5t-52 -25.5q-26 -17 -47 -38v-330q0 -25 -25 -25h-85q-25 0 -25 25v460q0 25 25 25h85q25 0 25 -25v-30h5q20 21 47 38q24 15 57 26t76 11q53 0 95.5 -16t72.5 -44.5t46 -68t16 -86.5v-290q0 -9 -8 -17
t-17 -8h-85q-25 0 -25 25v290zM283 -95q0 15 10 25t25 10h65q15 0 25 -10t10 -25v-60q0 -23 -3.5 -33.5t-6.5 -16.5l-38 -65q-5 -8 -13 -14t-20 -6h-24q-8 0 -13.5 6t-1.5 14l40 80h-20q-15 0 -25 10t-10 25v60z" />
    <glyph glyph-name="Ncaron" unicode="&#x147;" horiz-adv-x="870" 
d="M630 205h5v470q0 25 25 25h95q25 0 25 -25v-650q0 -25 -25 -25h-111q-14 0 -25 7.5t-19 17.5l-360 470h-5v-470q0 -25 -25 -25h-95q-25 0 -25 25v650q0 25 25 25h111q14 0 25 -7.5t19 -17.5zM412 780q-11 0 -24 8t-21 17l-115 140q-5 8 -0.5 16.5t15.5 8.5h65q11 0 24 -7
t21 -18l65 -80h5l65 80q8 11 21 18t24 7h65q11 0 15.5 -8.5t-0.5 -16.5l-115 -140q-8 -9 -21 -17t-24 -8h-65z" />
    <glyph glyph-name="ncaron" unicode="&#x148;" horiz-adv-x="685" 
d="M485 315q0 24 -9 45t-24.5 36.5t-36.5 24.5t-45 9q-36 0 -66 -11.5t-52 -25.5q-26 -17 -47 -38v-330q0 -25 -25 -25h-85q-25 0 -25 25v460q0 25 25 25h85q25 0 25 -25v-30h5q20 21 47 38q24 15 57 26t76 11q53 0 95.5 -16t72.5 -44.5t46 -68t16 -86.5v-290q0 -9 -8 -17
t-17 -8h-85q-25 0 -25 25v290zM318 600q-11 0 -24 8t-21 17l-115 140q-5 8 -0.5 16.5t15.5 8.5h65q11 0 24 -7t21 -18l65 -80h5l65 80q8 11 21 18t24 7h65q11 0 15.5 -8.5t-0.5 -16.5l-115 -140q-8 -9 -21 -17t-24 -8h-65z" />
    <glyph glyph-name="Omacron" unicode="&#x14c;" horiz-adv-x="880" 
d="M200 350q0 -62 17 -110.5t48.5 -81.5t76 -50.5t98.5 -17.5t98.5 17.5t76 50.5t48.5 81.5t17 110.5t-17 110.5t-48.5 81.5t-76 50.5t-98.5 17.5t-98.5 -17.5t-76 -50.5t-48.5 -81.5t-17 -110.5zM830 350q0 -84 -26.5 -152.5t-76.5 -117t-122.5 -74.5t-164.5 -26t-164.5 26
t-122.5 74.5t-76.5 117t-26.5 152.5t26.5 152.5t76.5 117t122.5 74.5t164.5 26t164.5 -26t122.5 -74.5t76.5 -117t26.5 -152.5zM620 845q0 -11 -7 -18t-18 -7h-310q-25 0 -25 25v55q0 11 7 18t18 7h310q25 0 25 -25v-55z" />
    <glyph glyph-name="omacron" unicode="&#x14d;" horiz-adv-x="670" 
d="M495 255q0 83 -44 129t-116 46t-116 -46t-44 -129t44 -129t116 -46t116 46t44 129zM630 255q0 -62 -20 -112.5t-58 -86.5t-93 -56t-124 -20t-124 20t-93 56t-58 86.5t-20 112.5t20 112.5t58 86.5t93 56t124 20t124 -20t93 -56t58 -86.5t20 -112.5zM515 645q0 -11 -7 -18
t-18 -7h-310q-25 0 -25 25v55q0 11 7 18t18 7h310q25 0 25 -25v-55z" />
    <glyph glyph-name="Ohungarumlaut" unicode="&#x150;" horiz-adv-x="880" 
d="M200 350q0 -62 17 -110.5t48.5 -81.5t76 -50.5t98.5 -17.5t98.5 17.5t76 50.5t48.5 81.5t17 110.5t-17 110.5t-48.5 81.5t-76 50.5t-98.5 17.5t-98.5 -17.5t-76 -50.5t-48.5 -81.5t-17 -110.5zM830 350q0 -84 -26.5 -152.5t-76.5 -117t-122.5 -74.5t-164.5 -26t-164.5 26
t-122.5 74.5t-76.5 117t-26.5 152.5t26.5 152.5t76.5 117t122.5 74.5t164.5 26t164.5 -26t122.5 -74.5t76.5 -117t26.5 -152.5zM490 990q11 0 15.5 -9t-0.5 -16l-100 -150q-8 -11 -16 -18t-19 -7h-40q-12 0 -16 8t1 17q18 37 33 74.5t32 75.5q5 11 13.5 18t21.5 7h75z
M690 990q11 0 15.5 -9t-0.5 -16l-100 -150q-8 -11 -16 -18t-19 -7h-40q-12 0 -16 8t1 17q18 37 33 74.5t32 75.5q5 11 13.5 18t21.5 7h75z" />
    <glyph glyph-name="ohungarumlaut" unicode="&#x151;" horiz-adv-x="670" 
d="M495 255q0 83 -44 129t-116 46t-116 -46t-44 -129t44 -129t116 -46t116 46t44 129zM630 255q0 -62 -20 -112.5t-58 -86.5t-93 -56t-124 -20t-124 20t-93 56t-58 86.5t-20 112.5t20 112.5t58 86.5t93 56t124 20t124 -20t93 -56t58 -86.5t20 -112.5zM365 800q11 0 15.5 -9
t-0.5 -16l-100 -150q-8 -11 -16 -18t-19 -7h-40q-12 0 -16 8t1 17q18 37 33 74.5t32 75.5q5 11 13.5 18t21.5 7h75zM565 800q11 0 15.5 -9t-0.5 -16l-100 -150q-8 -11 -16 -18t-19 -7h-40q-12 0 -16 8t1 17q18 37 33 74.5t32 75.5q5 11 13.5 18t21.5 7h75z" />
    <glyph glyph-name="OE" unicode="&#x152;" horiz-adv-x="1195" 
d="M1130 700q25 0 25 -25v-65q0 -25 -25 -25h-408v-170h298q25 0 25 -25v-65q0 -25 -25 -25h-298v-185h408q25 0 25 -25v-65q0 -25 -25 -25h-684q-96 0 -170 25t-124 71t-76 110.5t-26 143.5t26 143.5t76 110.5t124 71t170 25h684zM200 350q0 -109 64 -172t182 -63h131v470
h-131q-118 0 -182 -63t-64 -172z" />
    <glyph glyph-name="oe" unicode="&#x153;" horiz-adv-x="1075" 
d="M550 80q-34 -45 -91.5 -72.5t-128.5 -27.5q-67 0 -121 20t-91.5 56t-57.5 86.5t-20 112.5t20 112.5t57.5 86.5t91.5 56t121 20q35 0 68.5 -8t62 -21.5t51.5 -31.5t38 -39h6q26 42 80.5 71t123.5 29q66 0 117 -19.5t86 -55t53.5 -84t18.5 -106.5v-30q0 -25 -25 -25h-386
q2 -26 12.5 -49.5t28 -41.5t41.5 -28.5t54 -10.5q28 0 47.5 6t32.5 15t21 19.5t14 19.5q8 11 16 18t19 7h75q11 0 18 -7t7 -18q-6 -30 -22.5 -58.5t-46.5 -51t-74.5 -36.5t-106.5 -14q-69 0 -120 27.5t-85 72.5h-5zM485 260q0 39 -12 70.5t-33 53.5t-49 34t-61 12
q-68 0 -111.5 -46t-43.5 -129t43.5 -129t111.5 -46t111.5 46.5t43.5 133.5zM760 430q-28 0 -51 -10t-40 -26.5t-27 -37t-12 -41.5h260q-2 21 -12 41.5t-27 37t-40 26.5t-51 10z" />
    <glyph glyph-name="Racute" unicode="&#x154;" horiz-adv-x="834" 
d="M610 310l8.5 -3t23 -15t33.5 -35t40 -62l90 -170q6 -11 1 -18t-16 -7h-105q-11 0 -22.5 7t-17.5 18l-90 170q-16 29 -45.5 47t-74.5 18h-200v-235q0 -25 -25 -25h-95q-25 0 -25 25v650q0 25 25 25h340q77 0 134 -18t95 -48.5t57 -70t19 -83.5q0 -53 -23.5 -85t-51.5 -50
q-33 -21 -75 -30v-5zM235 585v-210h205q87 0 128.5 28t41.5 77q0 45 -37 75t-118 30h-220zM535 990q11 0 15.5 -9t-0.5 -16l-100 -150q-8 -11 -16 -18t-19 -7h-55q-12 0 -16 8t1 17q17 37 32.5 74.5t32.5 75.5q5 11 13.5 18t21.5 7h90z" />
    <glyph glyph-name="racute" unicode="&#x155;" horiz-adv-x="470" 
d="M370 425q-36 0 -66 -12.5t-52 -27.5q-26 -18 -47 -40v-320q0 -25 -25 -25h-85q-25 0 -25 25v460q0 25 25 25h85q25 0 25 -25v-30h5q20 21 45 38q23 15 52.5 26t67.5 11h55q25 0 25 -25v-60q0 -25 -25 -25h-15q-15 0 -24.5 2.5t-20.5 2.5zM399 800q11 0 15.5 -9t-0.5 -16
l-100 -150q-8 -11 -16 -18t-19 -7h-55q-12 0 -16 8t1 17q17 37 32.5 74.5t32.5 75.5q5 11 13.5 18t21.5 7h90z" />
    <glyph glyph-name="Rcommaaccent" unicode="&#x156;" horiz-adv-x="834" 
d="M610 310l8.5 -3t23 -15t33.5 -35t40 -62l90 -170q6 -11 1 -18t-16 -7h-105q-11 0 -22.5 7t-17.5 18l-90 170q-16 29 -45.5 47t-74.5 18h-200v-235q0 -25 -25 -25h-95q-25 0 -25 25v650q0 25 25 25h340q77 0 134 -18t95 -48.5t57 -70t19 -83.5q0 -53 -23.5 -85t-51.5 -50
q-33 -21 -75 -30v-5zM235 585v-210h205q87 0 128.5 28t41.5 77q0 45 -37 75t-118 30h-220zM360 -95q0 15 10 25t25 10h65q15 0 25 -10t10 -25v-60q0 -23 -3.5 -33.5t-6.5 -16.5l-38 -65q-5 -8 -13 -14t-20 -6h-24q-8 0 -13.5 6t-1.5 14l40 80h-20q-15 0 -25 10t-10 25v60z
" />
    <glyph glyph-name="rcommaaccent" unicode="&#x157;" horiz-adv-x="470" 
d="M370 425q-36 0 -66 -12.5t-52 -27.5q-26 -18 -47 -40v-320q0 -25 -25 -25h-85q-25 0 -25 25v460q0 25 25 25h85q25 0 25 -25v-30h5q20 21 45 38q23 15 52.5 26t67.5 11h55q25 0 25 -25v-60q0 -25 -25 -25h-15q-15 0 -24.5 2.5t-20.5 2.5zM70 -115q0 15 10 25t25 10h65
q15 0 25 -10t10 -25v-60q0 -23 -3.5 -33.5t-6.5 -16.5l-38 -65q-5 -8 -13 -14t-20 -6h-24q-8 0 -13.5 6t-1.5 14l40 80h-20q-15 0 -25 10t-10 25v60z" />
    <glyph glyph-name="Rcaron" unicode="&#x158;" horiz-adv-x="834" 
d="M610 310l8.5 -3t23 -15t33.5 -35t40 -62l90 -170q6 -11 1 -18t-16 -7h-105q-11 0 -22.5 7t-17.5 18l-90 170q-16 29 -45.5 47t-74.5 18h-200v-235q0 -25 -25 -25h-95q-25 0 -25 25v650q0 25 25 25h340q77 0 134 -18t95 -48.5t57 -70t19 -83.5q0 -53 -23.5 -85t-51.5 -50
q-33 -21 -75 -30v-5zM235 585v-210h205q87 0 128.5 28t41.5 77q0 45 -37 75t-118 30h-220zM385 780q-11 0 -24 8t-21 17l-115 140q-5 8 -0.5 16.5t15.5 8.5h65q11 0 24 -7t21 -18l65 -80h5l65 80q8 11 21 18t24 7h65q11 0 15.5 -8.5t-0.5 -16.5l-115 -140q-8 -9 -21 -17
t-24 -8h-65z" />
    <glyph glyph-name="rcaron" unicode="&#x159;" horiz-adv-x="476" 
d="M373 425q-36 0 -66 -12.5t-52 -27.5q-26 -18 -47 -40v-320q0 -25 -25 -25h-85q-25 0 -25 25v460q0 25 25 25h85q25 0 25 -25v-30h5q20 21 45 38q23 15 52.5 26t67.5 11h55q25 0 25 -25v-60q0 -25 -25 -25h-15q-15 0 -24.5 2.5t-20.5 2.5zM233 600q-11 0 -24 8t-21 17
l-115 140q-5 8 -0.5 16.5t15.5 8.5h65q11 0 24 -7t21 -18l65 -80h5l65 80q8 11 21 18t24 7h65q11 0 15.5 -8.5t-0.5 -16.5l-115 -140q-8 -9 -21 -17t-24 -8h-65z" />
    <glyph glyph-name="Sacute" unicode="&#x15a;" horiz-adv-x="775" 
d="M215 510q0 -29 22.5 -46.5t59 -28t83 -17.5t95.5 -16t95.5 -22t83 -35.5t59 -57t22.5 -87.5q0 -43 -20 -83t-62.5 -70.5t-107.5 -48.5t-155 -18q-88 0 -152 19t-106 50.5t-64 72t-28 82.5q0 26 25 26h85q11 0 21 -7t14 -18q9 -22 24.5 -42.5t39.5 -36.5t58.5 -26
t82.5 -10q53 0 90 9.5t60 25t34 35t11 40.5q0 28 -22.5 45t-59 27.5t-83 17.5t-95.5 16t-95.5 22.5t-83 36t-59 58t-22.5 87.5q0 41 19 79t59 67t101.5 46.5t145.5 17.5q82 0 141.5 -19t99 -49.5t60 -69t24.5 -77.5q0 -25 -25 -25h-85q-22 0 -35 25q-7 18 -20.5 36.5t-35 34
t-52 25t-72.5 9.5q-45 0 -78 -9t-54.5 -23t-32 -32t-10.5 -36zM527 990q11 0 15.5 -9t-0.5 -16l-100 -150q-8 -11 -16 -18t-19 -7h-55q-12 0 -16 8t1 17q17 37 32.5 74.5t32.5 75.5q5 11 13.5 18t21.5 7h90z" />
    <glyph glyph-name="sacute" unicode="&#x15b;" horiz-adv-x="610" 
d="M315 530q62 0 108 -13.5t76.5 -35.5t45.5 -50t15 -56q0 -25 -25 -25h-70q-11 0 -19.5 7t-15.5 18q-11 19 -36.5 37t-78.5 18q-63 0 -89 -18.5t-26 -41.5t28 -34.5t69.5 -19.5t90 -17t90 -25.5t69.5 -45.5t28 -78q0 -34 -15.5 -64.5t-48.5 -54t-84 -37.5t-122 -14
q-69 0 -120 14.5t-84.5 38.5t-49.5 54.5t-16 62.5q0 25 25 25h70q14 0 22 -7t13 -18q15 -30 47.5 -50t92.5 -20q37 0 63 6.5t42 16.5t23 22.5t7 24.5q0 23 -28 34.5t-69.5 20t-90 17t-90 25.5t-69.5 46t-28 77q0 32 14.5 61t45 51t77.5 35t113 13zM447 811q11 0 15.5 -9
t-0.5 -16l-100 -150q-8 -11 -16 -18t-19 -7h-55q-12 0 -16 8t1 17q17 37 32.5 74.5t32.5 75.5q5 11 13.5 18t21.5 7h90z" />
    <glyph glyph-name="Scedilla" unicode="&#x15e;" horiz-adv-x="775" 
d="M215 510q0 -29 22.5 -46.5t59 -28t83 -17.5t95.5 -16t95.5 -22t83 -35.5t59 -57t22.5 -87.5q0 -43 -20 -83t-62.5 -70.5t-107.5 -48.5t-155 -18q-88 0 -152 19t-106 50.5t-64 72t-28 82.5q0 26 25 26h85q11 0 21 -7t14 -18q9 -22 24.5 -42.5t39.5 -36.5t58.5 -26
t82.5 -10q53 0 90 9.5t60 25t34 35t11 40.5q0 28 -22.5 45t-59 27.5t-83 17.5t-95.5 16t-95.5 22.5t-83 36t-59 58t-22.5 87.5q0 41 19 79t59 67t101.5 46.5t145.5 17.5q82 0 141.5 -19t99 -49.5t60 -69t24.5 -77.5q0 -25 -25 -25h-85q-22 0 -35 25q-7 18 -20.5 36.5t-35 34
t-52 25t-72.5 9.5q-45 0 -78 -9t-54.5 -23t-32 -32t-10.5 -36zM410 -195q26 0 40.5 12.5t14.5 27.5t-14.5 27.5t-40.5 12.5h-40q-25 0 -25 25v90h85v-40q64 0 99.5 -33t35.5 -82t-38 -82t-117 -33q-30 0 -48.5 2.5t-29 7.5t-14 11t-3.5 14v25q0 25 25 25h20q11 0 21 -5
t29 -5z" />
    <glyph glyph-name="scedilla" unicode="&#x15f;" horiz-adv-x="610" 
d="M315 530q62 0 108 -13.5t76.5 -35.5t45.5 -50t15 -56q0 -25 -25 -25h-70q-11 0 -19.5 7t-15.5 18q-11 19 -36.5 37t-78.5 18q-63 0 -89 -18.5t-26 -41.5t28 -34.5t69.5 -19.5t90 -17t90 -25.5t69.5 -45.5t28 -78q0 -34 -15.5 -64.5t-48.5 -54t-84 -37.5t-122 -14
q-69 0 -120 14.5t-84.5 38.5t-49.5 54.5t-16 62.5q0 25 25 25h70q14 0 22 -7t13 -18q15 -30 47.5 -50t92.5 -20q37 0 63 6.5t42 16.5t23 22.5t7 24.5q0 23 -28 34.5t-69.5 20t-90 17t-90 25.5t-69.5 46t-28 77q0 32 14.5 61t45 51t77.5 35t113 13zM320 -195q26 0 40.5 12.5
t14.5 27.5t-14.5 27.5t-40.5 12.5h-40q-25 0 -25 25v90h85v-40q64 0 99.5 -33t35.5 -82t-38 -82t-117 -33q-30 0 -48.5 2.5t-29 7.5t-14 11t-3.5 14v25q0 25 25 25h20q11 0 21 -5t29 -5z" />
    <glyph glyph-name="Scaron" unicode="&#x160;" horiz-adv-x="775" 
d="M215 510q0 -29 22.5 -46.5t59 -28t83 -17.5t95.5 -16t95.5 -22t83 -35.5t59 -57t22.5 -87.5q0 -43 -20 -83t-62.5 -70.5t-107.5 -48.5t-155 -18q-88 0 -152 19t-106 50.5t-64 72t-28 82.5q0 26 25 26h85q11 0 21 -7t14 -18q9 -22 24.5 -42.5t39.5 -36.5t58.5 -26
t82.5 -10q53 0 90 9.5t60 25t34 35t11 40.5q0 28 -22.5 45t-59 27.5t-83 17.5t-95.5 16t-95.5 22.5t-83 36t-59 58t-22.5 87.5q0 41 19 79t59 67t101.5 46.5t145.5 17.5q82 0 141.5 -19t99 -49.5t60 -69t24.5 -77.5q0 -25 -25 -25h-85q-22 0 -35 25q-7 18 -20.5 36.5t-35 34
t-52 25t-72.5 9.5q-45 0 -78 -9t-54.5 -23t-32 -32t-10.5 -36zM357 790q-11 0 -24 8t-21 17l-115 140q-5 8 -0.5 16.5t15.5 8.5h65q11 0 24 -7t21 -18l65 -80h5l65 80q8 11 21 18t24 7h65q11 0 15.5 -8.5t-0.5 -16.5l-115 -140q-8 -9 -21 -17t-24 -8h-65z" />
    <glyph glyph-name="scaron" unicode="&#x161;" horiz-adv-x="610" 
d="M315 530q62 0 108 -13.5t76.5 -35.5t45.5 -50t15 -56q0 -25 -25 -25h-70q-11 0 -19.5 7t-15.5 18q-11 19 -36.5 37t-78.5 18q-63 0 -89 -18.5t-26 -41.5t28 -34.5t69.5 -19.5t90 -17t90 -25.5t69.5 -45.5t28 -78q0 -34 -15.5 -64.5t-48.5 -54t-84 -37.5t-122 -14
q-69 0 -120 14.5t-84.5 38.5t-49.5 54.5t-16 62.5q0 25 25 25h70q14 0 22 -7t13 -18q15 -30 47.5 -50t92.5 -20q37 0 63 6.5t42 16.5t23 22.5t7 24.5q0 23 -28 34.5t-69.5 20t-90 17t-90 25.5t-69.5 46t-28 77q0 32 14.5 61t45 51t77.5 35t113 13zM286 590q-11 0 -24 8
t-21 17l-115 140q-5 8 -0.5 16.5t15.5 8.5h65q11 0 24 -7t21 -18l65 -80h5l65 80q8 11 21 18t24 7h65q11 0 15.5 -8.5t-0.5 -16.5l-115 -140q-8 -9 -21 -17t-24 -8h-65z" />
    <glyph glyph-name="Tcommaaccent" unicode="&#x162;" horiz-adv-x="725" 
d="M435 25q0 -25 -25 -25h-95q-25 0 -25 25v560h-245q-25 0 -25 25v65q0 25 25 25h635q25 0 25 -25v-65q0 -25 -25 -25h-245v-560zM295 -115q0 15 10 25t25 10h65q15 0 25 -10t10 -25v-60q0 -23 -3.5 -33.5t-6.5 -16.5l-38 -65q-5 -8 -13 -14t-20 -6h-24q-8 0 -13.5 6
t-1.5 14l40 80h-20q-15 0 -25 10t-10 25v60z" />
    <glyph glyph-name="tcommaaccent" unicode="&#x163;" horiz-adv-x="460" 
d="M235 185q0 -42 24 -66t66 -24q19 0 32 5t28 5h30q25 0 25 -25v-49q0 -12 -7.5 -18t-18.5 -10q-5 -2 -35 -7.5t-69 -5.5q-49 0 -88 14.5t-66 40t-41.5 61.5t-14.5 79v220h-65q-25 0 -25 25v55q0 25 25 25h65l30 115q7 25 30 25h50q25 0 25 -25v-115h130q11 0 18 -6.5
t7 -17.5v-56q0 -25 -25 -25h-130v-220zM193 -115q0 15 10 25t25 10h65q15 0 25 -10t10 -25v-60q0 -23 -3.5 -33.5t-6.5 -16.5l-38 -65q-5 -8 -13 -14t-20 -6h-24q-8 0 -13.5 6t-1.5 14l40 80h-20q-15 0 -25 10t-10 25v60z" />
    <glyph glyph-name="Tcaron" unicode="&#x164;" horiz-adv-x="725" 
d="M435 25q0 -25 -25 -25h-95q-25 0 -25 25v560h-245q-25 0 -25 25v65q0 25 25 25h635q25 0 25 -25v-65q0 -25 -25 -25h-245v-560zM338 790q-11 0 -24 8t-21 17l-115 140q-5 8 -0.5 16.5t15.5 8.5h65q11 0 24 -7t21 -18l65 -80h5l65 80q8 11 21 18t24 7h65q11 0 15.5 -8.5
t-0.5 -16.5l-115 -140q-8 -9 -21 -17t-24 -8h-65z" />
    <glyph glyph-name="tcaron" unicode="&#x165;" horiz-adv-x="575" 
d="M235 185q0 -42 24 -66t66 -24q19 0 32 5t28 5h30q25 0 25 -25v-49q0 -12 -7.5 -18t-18.5 -10q-5 -2 -35 -7.5t-69 -5.5q-49 0 -88 14.5t-66 40t-41.5 61.5t-14.5 79v220h-65q-25 0 -25 25v55q0 25 25 25h65l30 115q7 25 30 25h50q25 0 25 -25v-115h130q11 0 18 -6.5
t7 -17.5v-56q0 -25 -25 -25h-130v-220zM430 665q0 15 10 25t25 10h65q15 0 25 -10t10 -25v-60q0 -23 -3.5 -33.5t-6.5 -16.5l-38 -65q-5 -8 -13 -14t-20 -6h-24q-8 0 -13.5 6t-1.5 14l40 80h-20q-15 0 -25 10t-10 25v60z" />
    <glyph glyph-name="Umacron" unicode="&#x16a;" horiz-adv-x="850" 
d="M425 -20q-81 0 -144 22.5t-106.5 62.5t-66.5 96.5t-23 123.5v390q0 25 25 25h95q25 0 25 -25v-390q0 -43 14.5 -79t40 -61.5t61.5 -40t79 -14.5t79 14.5t61.5 40t40 61.5t14.5 79v390q0 25 25 25h95q25 0 25 -25v-390q0 -67 -23 -123.5t-66.5 -96.5t-106.5 -62.5
t-144 -22.5zM605 845q0 -11 -7 -18t-18 -7h-310q-25 0 -25 25v55q0 11 7 18t18 7h310q25 0 25 -25v-55z" />
    <glyph glyph-name="umacron" unicode="&#x16b;" horiz-adv-x="690" 
d="M205 195q0 -24 9 -45t24.5 -36.5t36.5 -24.5t45 -9q36 0 66 11.5t52 26.5q26 16 47 37v330q0 25 25 25h85q25 0 25 -25v-460q0 -25 -25 -25h-85q-25 0 -25 25v30h-5q-20 -21 -47 -37q-24 -16 -57 -27t-76 -11q-52 0 -94.5 16t-72.5 44.5t-46.5 68t-16.5 86.5v290
q0 9 8 17t17 8h85q25 0 25 -25v-290zM525 645q0 -11 -7 -18t-18 -7h-310q-25 0 -25 25v55q0 11 7 18t18 7h310q25 0 25 -25v-55z" />
    <glyph glyph-name="Uring" unicode="&#x16e;" horiz-adv-x="850" 
d="M425 -20q-81 0 -144 22.5t-106.5 62.5t-66.5 96.5t-23 123.5v390q0 25 25 25h95q25 0 25 -25v-390q0 -43 14.5 -79t40 -61.5t61.5 -40t79 -14.5t79 14.5t61.5 40t40 61.5t14.5 79v390q0 25 25 25h95q25 0 25 -25v-390q0 -67 -23 -123.5t-66.5 -96.5t-106.5 -62.5
t-144 -22.5zM370 885q0 -23 16 -39t39 -16t39 16t16 39t-16 39t-39 16t-39 -16t-16 -39zM560 885q0 -26 -10 -49t-27.5 -40t-42.5 -26.5t-55 -9.5t-55 9.5t-42.5 26.5t-27.5 40t-10 49t10 49t27.5 40t42.5 26.5t55 9.5t55 -9.5t42.5 -26.5t27.5 -40t10 -49z" />
    <glyph glyph-name="uring" unicode="&#x16f;" horiz-adv-x="690" 
d="M205 195q0 -24 9 -45t24.5 -36.5t36.5 -24.5t45 -9q36 0 66 11.5t52 26.5q26 16 47 37v330q0 25 25 25h85q25 0 25 -25v-460q0 -25 -25 -25h-85q-25 0 -25 25v30h-5q-20 -21 -47 -37q-24 -16 -57 -27t-76 -11q-52 0 -94.5 16t-72.5 44.5t-46.5 68t-16.5 86.5v290
q0 9 8 17t17 8h85q25 0 25 -25v-290zM290 695q0 -23 16 -39t39 -16t39 16t16 39t-16 39t-39 16t-39 -16t-16 -39zM480 695q0 -26 -10 -49t-27.5 -40t-42.5 -26.5t-55 -9.5t-55 9.5t-42.5 26.5t-27.5 40t-10 49t10 49t27.5 40t42.5 26.5t55 9.5t55 -9.5t42.5 -26.5t27.5 -40
t10 -49z" />
    <glyph glyph-name="Uhungarumlaut" unicode="&#x170;" horiz-adv-x="850" 
d="M425 -20q-81 0 -144 22.5t-106.5 62.5t-66.5 96.5t-23 123.5v390q0 25 25 25h95q25 0 25 -25v-390q0 -43 14.5 -79t40 -61.5t61.5 -40t79 -14.5t79 14.5t61.5 40t40 61.5t14.5 79v390q0 25 25 25h95q25 0 25 -25v-390q0 -67 -23 -123.5t-66.5 -96.5t-106.5 -62.5
t-144 -22.5zM445 990q11 0 15.5 -9t-0.5 -16l-100 -150q-8 -11 -16 -18t-19 -7h-40q-12 0 -16 8t1 17q18 37 33 74.5t32 75.5q5 11 13.5 18t21.5 7h75zM645 990q11 0 15.5 -9t-0.5 -16l-100 -150q-8 -11 -16 -18t-19 -7h-40q-12 0 -16 8t1 17q18 37 33 74.5t32 75.5
q5 11 13.5 18t21.5 7h75z" />
    <glyph glyph-name="uhungarumlaut" unicode="&#x171;" horiz-adv-x="690" 
d="M205 195q0 -24 9 -45t24.5 -36.5t36.5 -24.5t45 -9q36 0 66 11.5t52 26.5q26 16 47 37v330q0 25 25 25h85q25 0 25 -25v-460q0 -25 -25 -25h-85q-25 0 -25 25v30h-5q-20 -21 -47 -37q-24 -16 -57 -27t-76 -11q-52 0 -94.5 16t-72.5 44.5t-46.5 68t-16.5 86.5v290
q0 9 8 17t17 8h85q25 0 25 -25v-290zM365 789q11 0 15.5 -9t-0.5 -16l-100 -150q-8 -11 -16 -18t-19 -7h-40q-12 0 -16 8t1 17q18 37 33 74.5t32 75.5q5 11 13.5 18t21.5 7h75zM565 789q11 0 15.5 -9t-0.5 -16l-100 -150q-8 -11 -16 -18t-19 -7h-40q-12 0 -16 8t1 17
q18 37 33 74.5t32 75.5q5 11 13.5 18t21.5 7h75z" />
    <glyph glyph-name="Uogonek" unicode="&#x172;" horiz-adv-x="850" 
d="M425 -20q-81 0 -144 22.5t-106.5 62.5t-66.5 96.5t-23 123.5v390q0 25 25 25h95q25 0 25 -25v-390q0 -43 14.5 -79t40 -61.5t61.5 -40t79 -14.5t79 14.5t61.5 40t40 61.5t14.5 79v390q0 25 25 25h95q25 0 25 -25v-390q0 -67 -23 -123.5t-66.5 -96.5t-106.5 -62.5
t-144 -22.5zM561 0q-35 -18 -62 -38q-26 -18 -44.5 -38.5t-18.5 -43.5q0 -15 13 -27.5t32 -12.5q18 0 29.5 5t20.5 5h10q25 0 25 -25v-30q0 -8 -2.5 -13.5t-11.5 -9t-26 -5.5t-45 -2q-72 0 -108.5 33.5t-36.5 81.5q0 32 18 54.5t40 37.5q25 17 57 28h110z" />
    <glyph glyph-name="uogonek" unicode="&#x173;" horiz-adv-x="690" 
d="M205 195q0 -24 9 -45t24.5 -36.5t36.5 -24.5t45 -9q36 0 66 11.5t52 26.5q26 16 47 37v330q0 25 25 25h85q25 0 25 -25v-460q0 -25 -25 -25h-85q-25 0 -25 25v30h-5q-20 -21 -47 -37q-24 -16 -57 -27t-76 -11q-52 0 -94.5 16t-72.5 44.5t-46.5 68t-16.5 86.5v290
q0 9 8 17t17 8h85q25 0 25 -25v-290zM598 0q-35 -18 -62 -38q-26 -18 -44.5 -38.5t-18.5 -43.5q0 -15 13 -27.5t32 -12.5q18 0 29.5 5t20.5 5h10q25 0 25 -25v-30q0 -8 -2.5 -13.5t-11.5 -9t-26 -5.5t-45 -2q-72 0 -108.5 33.5t-36.5 81.5q0 32 18 54.5t40 37.5q25 17 57 28
h110z" />
    <glyph glyph-name="Ydieresis" unicode="&#x178;" horiz-adv-x="751" 
d="M448 25q0 -25 -25 -25h-95q-25 0 -25 25v195l-300 455q-5 8 -0.5 16.5t15.5 8.5h105q11 0 24 -7t21 -18l205 -315h5l205 315q8 11 21 18t24 7h105q11 0 15.5 -8.5t-0.5 -16.5l-300 -455v-195zM195 900q0 15 10 25t25 10h60q15 0 25 -10t10 -25v-65q0 -15 -10 -25t-25 -10
h-60q-15 0 -25 10t-10 25v65zM425 900q0 15 10 25t25 10h60q15 0 25 -10t10 -25v-65q0 -15 -10 -25t-25 -10h-60q-15 0 -25 10t-10 25v65z" />
    <glyph glyph-name="Zacute" unicode="&#x179;" horiz-adv-x="720" 
d="M230 120v-5h435q25 0 25 -25v-65q0 -25 -25 -25h-610q-25 0 -25 25v65q0 11 7 22.5t18 22.5l425 445v5h-415q-25 0 -25 25v65q0 25 25 25h590q25 0 25 -25v-65q0 -12 -7 -23t-18 -22zM502 990q11 0 15.5 -9t-0.5 -16l-100 -150q-8 -11 -16 -18t-19 -7h-55q-12 0 -16 8
t1 17q17 37 32.5 74.5t32.5 75.5q5 11 13.5 18t21.5 7h90z" />
    <glyph glyph-name="zacute" unicode="&#x17a;" horiz-adv-x="565" 
d="M505 510q25 0 25 -25v-55q0 -12 -6 -22t-14 -18l-300 -280v-5h305q25 0 25 -25v-56q0 -11 -7 -17.5t-18 -6.5h-465q-25 0 -25 25v55q0 25 15 40l300 280v5h-280q-25 0 -25 25v55q0 25 25 25h445zM422 790q11 0 15.5 -9t-0.5 -16l-100 -150q-8 -11 -16 -18t-19 -7h-55
q-12 0 -16 8t1 17q17 37 32.5 74.5t32.5 75.5q5 11 13.5 18t21.5 7h90z" />
    <glyph glyph-name="Zdotaccent" unicode="&#x17b;" horiz-adv-x="720" 
d="M230 120v-5h435q25 0 25 -25v-65q0 -25 -25 -25h-610q-25 0 -25 25v65q0 11 7 22.5t18 22.5l425 445v5h-415q-25 0 -25 25v65q0 25 25 25h590q25 0 25 -25v-65q0 -12 -7 -23t-18 -22zM300 900q0 11 9.5 20.5t20.5 9.5h70q11 0 20.5 -9.5t9.5 -20.5v-70q0 -11 -9.5 -20.5
t-20.5 -9.5h-70q-11 0 -20.5 9.5t-9.5 20.5v70z" />
    <glyph glyph-name="zdotaccent" unicode="&#x17c;" horiz-adv-x="565" 
d="M505 510q25 0 25 -25v-55q0 -12 -6 -22t-14 -18l-300 -280v-5h305q25 0 25 -25v-56q0 -11 -7 -17.5t-18 -6.5h-465q-25 0 -25 25v55q0 25 15 40l300 280v5h-280q-25 0 -25 25v55q0 25 25 25h445zM220 700q0 11 9.5 20.5t20.5 9.5h70q11 0 20.5 -9.5t9.5 -20.5v-70
q0 -11 -9.5 -20.5t-20.5 -9.5h-70q-11 0 -20.5 9.5t-9.5 20.5v70z" />
    <glyph glyph-name="Zcaron" unicode="&#x17d;" horiz-adv-x="720" 
d="M230 120v-5h435q25 0 25 -25v-65q0 -25 -25 -25h-610q-25 0 -25 25v65q0 11 7 22.5t18 22.5l425 445v5h-415q-25 0 -25 25v65q0 25 25 25h590q25 0 25 -25v-65q0 -12 -7 -23t-18 -22zM332 780q-11 0 -24 8t-21 17l-115 140q-5 8 -0.5 16.5t15.5 8.5h65q11 0 24 -7t21 -18
l65 -80h5l65 80q8 11 21 18t24 7h65q11 0 15.5 -8.5t-0.5 -16.5l-115 -140q-8 -9 -21 -17t-24 -8h-65z" />
    <glyph glyph-name="zcaron" unicode="&#x17e;" horiz-adv-x="565" 
d="M505 510q25 0 25 -25v-55q0 -12 -6 -22t-14 -18l-300 -280v-5h305q25 0 25 -25v-56q0 -11 -7 -17.5t-18 -6.5h-465q-25 0 -25 25v55q0 25 15 40l300 280v5h-280q-25 0 -25 25v55q0 25 25 25h445zM252 580q-11 0 -24 8t-21 17l-115 140q-5 8 -0.5 16.5t15.5 8.5h65
q11 0 24 -7t21 -18l65 -80h5l65 80q8 11 21 18t24 7h65q11 0 15.5 -8.5t-0.5 -16.5l-115 -140q-8 -9 -21 -17t-24 -8h-65z" />
    <glyph glyph-name="florin" unicode="&#x192;" horiz-adv-x="450" 
d="M-55 -100q0 25 25 25h16q14 0 27 -5t27 -5q38 0 61.5 26.5t23.5 83.5v355h-65q-25 0 -25 25v55q0 25 25 25h65q0 49 13 90.5t39.5 71.5t67 46.5t95.5 16.5q39 0 63.5 -3.5t38 -9t18.5 -12.5t5 -15v-50q0 -25 -25 -25h-25q-15 0 -33.5 5t-41.5 5q-34 0 -57 -27.5
t-23 -92.5h130q25 0 25 -25v-55q0 -25 -25 -25h-130v-355q0 -102 -56 -158.5t-154 -56.5q-32 0 -52.5 3.5t-32 9t-16 12.5t-4.5 15v50z" />
    <glyph glyph-name="Scommaaccent" unicode="&#x218;" horiz-adv-x="775" 
d="M215 510q0 -29 22.5 -46.5t59 -28t83 -17.5t95.5 -16t95.5 -22t83 -35.5t59 -57t22.5 -87.5q0 -43 -20 -83t-62.5 -70.5t-107.5 -48.5t-155 -18q-88 0 -152 19t-106 50.5t-64 72t-28 82.5q0 26 25 26h85q11 0 21 -7t14 -18q9 -22 24.5 -42.5t39.5 -36.5t58.5 -26
t82.5 -10q53 0 90 9.5t60 25t34 35t11 40.5q0 28 -22.5 45t-59 27.5t-83 17.5t-95.5 16t-95.5 22.5t-83 36t-59 58t-22.5 87.5q0 41 19 79t59 67t101.5 46.5t145.5 17.5q82 0 141.5 -19t99 -49.5t60 -69t24.5 -77.5q0 -25 -25 -25h-85q-22 0 -35 25q-7 18 -20.5 36.5t-35 34
t-52 25t-72.5 9.5q-45 0 -78 -9t-54.5 -23t-32 -32t-10.5 -36zM331 -115q0 15 10 25t25 10h65q15 0 25 -10t10 -25v-60q0 -23 -3.5 -33.5t-6.5 -16.5l-38 -65q-5 -8 -13 -14t-20 -6h-24q-8 0 -13.5 6t-1.5 14l40 80h-20q-15 0 -25 10t-10 25v60z" />
    <glyph glyph-name="scommaaccent" unicode="&#x219;" horiz-adv-x="610" 
d="M315 530q62 0 108 -13.5t76.5 -35.5t45.5 -50t15 -56q0 -25 -25 -25h-70q-11 0 -19.5 7t-15.5 18q-11 19 -36.5 37t-78.5 18q-63 0 -89 -18.5t-26 -41.5t28 -34.5t69.5 -19.5t90 -17t90 -25.5t69.5 -45.5t28 -78q0 -34 -15.5 -64.5t-48.5 -54t-84 -37.5t-122 -14
q-69 0 -120 14.5t-84.5 38.5t-49.5 54.5t-16 62.5q0 25 25 25h70q14 0 22 -7t13 -18q15 -30 47.5 -50t92.5 -20q37 0 63 6.5t42 16.5t23 22.5t7 24.5q0 23 -28 34.5t-69.5 20t-90 17t-90 25.5t-69.5 46t-28 77q0 32 14.5 61t45 51t77.5 35t113 13zM251 -115q0 15 10 25
t25 10h65q15 0 25 -10t10 -25v-60q0 -23 -3.5 -33.5t-6.5 -16.5l-38 -65q-5 -8 -13 -14t-20 -6h-24q-8 0 -13.5 6t-1.5 14l40 80h-20q-15 0 -25 10t-10 25v60z" />
    <glyph glyph-name="afii57929" unicode="&#x2bc;" horiz-adv-x="215" 
d="M40 780q0 15 10 25t25 10h65q15 0 25 -10t10 -25v-60q0 -23 -3.5 -33.5t-6.5 -16.5l-38 -65q-5 -8 -13 -14t-20 -6h-24q-8 0 -13.5 6t-1.5 14l40 80h-20q-15 0 -25 10t-10 25v60z" />
    <glyph glyph-name="circumflex" unicode="&#x2c6;" horiz-adv-x="471" 
d="M268 785q11 0 24 -8t21 -17l115 -140q5 -8 0.5 -16.5t-15.5 -8.5h-65q-11 0 -24 7t-21 18l-65 80h-5l-65 -80q-8 -11 -21 -18t-24 -7h-65q-11 0 -15.5 8.5t0.5 16.5l115 140q8 9 21 17t24 8h65z" />
    <glyph glyph-name="caron" unicode="&#x2c7;" horiz-adv-x="471" 
d="M203 595q-11 0 -24 8t-21 17l-115 140q-5 8 -0.5 16.5t15.5 8.5h65q11 0 24 -7t21 -18l65 -80h5l65 80q8 11 21 18t24 7h65q11 0 15.5 -8.5t-0.5 -16.5l-115 -140q-8 -9 -21 -17t-24 -8h-65z" />
    <glyph glyph-name="breve" unicode="&#x2d8;" horiz-adv-x="450" 
d="M225 607q-43 0 -77.5 12.5t-58.5 33.5t-36.5 49t-12.5 60q0 8 6 14t14 6h60q8 0 13 -6t7 -14q8 -29 29 -49.5t56 -20.5t56 20.5t29 49.5q2 8 7 14t13 6h60q8 0 14 -6t6 -14q0 -32 -12.5 -60t-36.5 -49t-58.5 -33.5t-77.5 -12.5z" />
    <glyph glyph-name="dotaccent" unicode="&#x2d9;" horiz-adv-x="210" 
d="M40 750q0 11 9.5 20.5t20.5 9.5h70q11 0 20.5 -9.5t9.5 -20.5v-70q0 -11 -9.5 -20.5t-20.5 -9.5h-70q-11 0 -20.5 9.5t-9.5 20.5v70z" />
    <glyph glyph-name="ring" unicode="&#x2da;" horiz-adv-x="350" 
d="M120 715q0 -23 16 -39t39 -16t39 16t16 39t-16 39t-39 16t-39 -16t-16 -39zM310 715q0 -26 -10 -49t-27.5 -40t-42.5 -26.5t-55 -9.5t-55 9.5t-42.5 26.5t-27.5 40t-10 49t10 49t27.5 40t42.5 26.5t55 9.5t55 -9.5t42.5 -26.5t27.5 -40t10 -49z" />
    <glyph glyph-name="ogonek" unicode="&#x2db;" horiz-adv-x="310" 
d="M265 0q-35 -18 -62 -38q-26 -18 -44.5 -38.5t-18.5 -43.5q0 -15 13 -27.5t32 -12.5q18 0 29.5 5t20.5 5h10q25 0 25 -25v-30q0 -8 -2.5 -13.5t-11.5 -9t-26 -5.5t-45 -2q-72 0 -108.5 33.5t-36.5 81.5q0 32 18 54.5t40 37.5q25 17 57 28h110z" />
    <glyph glyph-name="tilde" unicode="&#x2dc;" horiz-adv-x="465" 
d="M155 615q-53 0 -84 32.5t-31 92.5q0 25 25 25h50q11 0 16 -7t9 -18t12.5 -20.5t27.5 -9.5q17 0 29 9.5t25 20.5t30.5 20.5t45.5 9.5q53 0 84 -32.5t31 -92.5q0 -25 -25 -25h-50q-11 0 -16 7t-9 18t-12.5 20.5t-27.5 9.5q-17 0 -29 -9.5t-25 -20.5t-30.5 -20.5t-45.5 -9.5
z" />
    <glyph glyph-name="hungarumlaut" unicode="&#x2dd;" horiz-adv-x="476" 
d="M218 790q11 0 15.5 -9t-0.5 -16l-100 -150q-8 -11 -16 -18t-19 -7h-40q-12 0 -16 8t1 17q18 37 33 74.5t32 75.5q5 11 13.5 18t21.5 7h75zM418 790q11 0 15.5 -9t-0.5 -16l-100 -150q-8 -11 -16 -18t-19 -7h-40q-12 0 -16 8t1 17q18 37 33 74.5t32 75.5q5 11 13.5 18
t21.5 7h75z" />
    <glyph glyph-name="afii10023" unicode="&#x401;" horiz-adv-x="770" 
d="M90 675q0 25 25 25h585q25 0 25 -25v-65q0 -25 -25 -25h-465v-170h355q25 0 25 -25v-65q0 -25 -25 -25h-355v-185h465q25 0 25 -25v-65q0 -25 -25 -25h-585q-25 0 -25 25v650zM230 900q0 15 10 25t25 10h60q15 0 25 -10t10 -25v-65q0 -15 -10 -25t-25 -10h-60
q-15 0 -25 10t-10 25v65zM460 900q0 15 10 25t25 10h60q15 0 25 -10t10 -25v-65q0 -15 -10 -25t-25 -10h-60q-15 0 -25 10t-10 25v65z" />
    <glyph glyph-name="afii10051" unicode="&#x402;" horiz-adv-x="870" 
d="M340 430q24 10 54 18q26 7 59 12t72 5q75 0 132 -18.5t95.5 -51.5t58 -77.5t19.5 -97.5q0 -55 -17.5 -99t-49.5 -75.5t-78.5 -48.5t-104.5 -17q-57 0 -76 11t-19 29v60q0 25 25 25h10q15 0 30 -5t30 -5q21 0 40 9t33.5 25.5t23 39.5t8.5 51t-11 52.5t-31.5 43t-50 29
t-67.5 10.5q-36 0 -69.5 -5.5t-58.5 -11.5q-31 -8 -57 -18v-295q0 -25 -25 -25h-95q-25 0 -25 25v560h-170q-25 0 -25 25v65q0 25 25 25h495q25 0 25 -25v-65q0 -25 -25 -25h-180v-155z" />
    <glyph glyph-name="afii10052" unicode="&#x403;" horiz-adv-x="685" 
d="M90 675q0 25 25 25h535q25 0 25 -25v-65q0 -25 -25 -25h-415v-560q0 -25 -25 -25h-95q-25 0 -25 25v650zM525 980q11 0 15.5 -9t-0.5 -16l-100 -150q-8 -11 -16 -18t-19 -7h-55q-12 0 -16 8t1 17q17 37 32.5 74.5t32.5 75.5q5 11 13.5 18t21.5 7h90z" />
    <glyph glyph-name="afii10053" unicode="&#x404;" horiz-adv-x="840" 
d="M440 720q79 0 140.5 -20.5t105.5 -54.5t70.5 -77t33.5 -88q0 -25 -25 -25h-90q-15 0 -23 7t-12 18q-9 26 -25.5 49.5t-41 41.5t-57.5 28.5t-76 10.5q-96 0 -157.5 -53t-77.5 -147h300q25 0 25 -25v-65q0 -25 -25 -25h-300q15 -99 78.5 -152t156.5 -53q45 0 79 10.5
t59.5 29.5t43 44.5t28.5 55.5q5 11 12.5 18t22.5 7h90q25 0 25 -25q-7 -49 -33.5 -94t-71.5 -79.5t-108.5 -55.5t-146.5 -21q-92 0 -164.5 26t-122.5 74.5t-76.5 117t-26.5 152.5t26.5 152.5t76.5 117t122.5 74.5t164.5 26z" />
    <glyph glyph-name="afii10054" unicode="&#x405;" horiz-adv-x="775" 
d="M215 510q0 -29 22.5 -46.5t59 -28t83 -17.5t95.5 -16t95.5 -22t83 -35.5t59 -57t22.5 -87.5q0 -43 -20 -83t-62.5 -70.5t-107.5 -48.5t-155 -18q-88 0 -152 19t-106 50.5t-64 72t-28 82.5q0 26 25 26h85q11 0 21 -7t14 -18q9 -22 24.5 -42.5t39.5 -36.5t58.5 -26
t82.5 -10q53 0 90 9.5t60 25t34 35t11 40.5q0 28 -22.5 45t-59 27.5t-83 17.5t-95.5 16t-95.5 22.5t-83 36t-59 58t-22.5 87.5q0 41 19 79t59 67t101.5 46.5t145.5 17.5q82 0 141.5 -19t99 -49.5t60 -69t24.5 -77.5q0 -25 -25 -25h-85q-22 0 -35 25q-7 18 -20.5 36.5t-35 34
t-52 25t-72.5 9.5q-45 0 -78 -9t-54.5 -23t-32 -32t-10.5 -36z" />
    <glyph glyph-name="afii10055" unicode="&#x406;" horiz-adv-x="525" 
d="M40 675q0 25 25 25h395q25 0 25 -25v-65q0 -25 -25 -25h-125v-470h125q25 0 25 -25v-65q0 -25 -25 -25h-395q-25 0 -25 25v65q0 25 25 25h125v470h-125q-25 0 -25 25v65z" />
    <glyph glyph-name="afii10056" unicode="&#x407;" horiz-adv-x="525" 
d="M40 675q0 25 25 25h395q25 0 25 -25v-65q0 -25 -25 -25h-125v-470h125q25 0 25 -25v-65q0 -25 -25 -25h-395q-25 0 -25 25v65q0 25 25 25h125v470h-125q-25 0 -25 25v65zM80 895q0 15 10 25t25 10h60q15 0 25 -10t10 -25v-65q0 -15 -10 -25t-25 -10h-60q-15 0 -25 10
t-10 25v65zM310 895q0 15 10 25t25 10h60q15 0 25 -10t10 -25v-65q0 -15 -10 -25t-25 -10h-60q-15 0 -25 10t-10 25v65z" />
    <glyph glyph-name="afii10057" unicode="&#x408;" horiz-adv-x="550" 
d="M80 115q15 0 30 -5t30 -5h20q72 0 116 45t44 120v405q0 25 25 25h95q25 0 25 -25v-405q0 -132 -77 -206t-228 -74h-125q-25 0 -25 25v75q0 25 25 25h45z" />
    <glyph glyph-name="afii10058" unicode="&#x409;" horiz-adv-x="1266" 
d="M611 0q-25 0 -25 25v560h-140q-32 0 -60 -10.5t-50 -29t-37.5 -43t-22.5 -52.5l-105 -425q-3 -11 -12.5 -18t-22.5 -7h-95q-11 0 -17 7t-3 18l110 425q14 54 40.5 100t65.5 79t91 52t118 19h260q25 0 25 -25v-205h190q79 0 138 -18.5t98.5 -50.5t59 -74.5t19.5 -91.5
t-19.5 -91.5t-59 -74.5t-98.5 -50.5t-138 -18.5h-310zM921 115q83 0 124 35.5t41 84.5t-41 84.5t-124 35.5h-190v-240h190z" />
    <glyph glyph-name="afii10059" unicode="&#x40a;" horiz-adv-x="1295" 
d="M630 0q-25 0 -25 25v300h-370v-300q0 -25 -25 -25h-95q-25 0 -25 25v650q0 25 25 25h95q25 0 25 -25v-235h370v235q0 25 25 25h95q25 0 25 -25v-235h205q79 0 135.5 -16t93 -45t54 -69.5t17.5 -89.5t-17.5 -89.5t-54 -69.5t-93 -45t-135.5 -16h-325zM955 115
q83 0 116.5 28t33.5 77t-33.5 77t-116.5 28h-205v-210h205z" />
    <glyph glyph-name="afii10060" unicode="&#x40b;" horiz-adv-x="885" 
d="M340 430q24 10 53 18q26 7 57.5 12t69.5 5q73 0 130 -19.5t96 -54t59 -82.5t20 -104v-180q0 -25 -25 -25h-95q-25 0 -25 25v180q0 32 -11.5 59.5t-32.5 47.5t-50.5 31.5t-65.5 11.5q-35 0 -67.5 -5.5t-57.5 -11.5q-30 -8 -55 -18v-295q0 -25 -25 -25h-95q-25 0 -25 25
v560h-170q-25 0 -25 25v65q0 25 25 25h495q25 0 25 -25v-65q0 -25 -25 -25h-180v-155z" />
    <glyph glyph-name="afii10061" unicode="&#x40c;" horiz-adv-x="807" 
d="M540 360q18 -5 38 -20q19 -14 40.5 -39.5t46.5 -70.5l110 -205q4 -8 0 -16.5t-15 -8.5h-100q-19 0 -29 7t-16 18l-110 205q-16 29 -41.5 49.5t-73.5 20.5h-155v-275q0 -25 -25 -25h-95q-25 0 -25 25v650q0 25 25 25h95q25 0 25 -25v-260h140q51 0 77.5 20.5t42.5 49.5
l100 190q5 11 15.5 18t29.5 7h100q11 0 15 -8.5t0 -16.5l-100 -190q-21 -40 -41.5 -63.5t-36.5 -35.5q-19 -15 -37 -21v-5zM548 980q11 0 15.5 -9t-0.5 -16l-100 -150q-8 -11 -16 -18t-19 -7h-55q-12 0 -16 8t1 17q17 37 32.5 74.5t32.5 75.5q5 11 13.5 18t21.5 7h90z" />
    <glyph glyph-name="afii10062" unicode="&#x40e;" horiz-adv-x="774" 
d="M457 245h-65q-52 0 -93 12t-73 35.5t-57.5 58t-46.5 79.5q-26 60 -54.5 122t-55.5 123q-4 11 1 18t19 7h100q23 0 35 -25l110 -245q15 -34 46 -52t69 -18h105l115 315q8 25 35 25h95q11 0 18 -7t2 -18l-170 -475q-15 -42 -39.5 -78.5t-58 -63.5t-76.5 -42.5t-96 -15.5
h-110q-25 0 -25 25v75q0 25 25 25h35q19 0 32.5 -5t32.5 -5q45 0 81 23.5t49 61.5zM393 770q-43 0 -79 14t-61.5 37.5t-40 54t-14.5 64.5q0 8 6 14t14 6h55q8 0 15.5 -6t9.5 -14q6 -34 33 -57t62 -23t62 23t33 57q2 8 9.5 14t15.5 6h55q8 0 14 -6t6 -14q0 -34 -14.5 -64.5
t-40 -54t-61.5 -37.5t-79 -14z" />
    <glyph glyph-name="afii10145" unicode="&#x40f;" horiz-adv-x="860" 
d="M90 675q0 25 25 25h95q25 0 25 -25v-560h390v560q0 25 25 25h95q25 0 25 -25v-650q0 -25 -25 -25h-245v-109q0 -10 -7 -17t-18 -7h-91q-11 0 -17.5 7t-6.5 17v109h-245q-25 0 -25 25v650z" />
    <glyph glyph-name="afii10017" unicode="&#x410;" horiz-adv-x="811" 
d="M463 700q28 0 40 -25l300 -650q5 -11 0.5 -18t-15.5 -7h-105q-15 0 -22.5 7t-12.5 18l-55 125h-375l-55 -125q-5 -11 -12.5 -18t-22.5 -7h-105q-11 0 -15.5 7t0.5 18l300 650q12 25 40 25h115zM408 560h-5l-130 -295h265z" />
    <glyph glyph-name="afii10018" unicode="&#x411;" horiz-adv-x="810" 
d="M90 675q0 25 25 25h570q25 0 25 -25v-65q0 -25 -25 -25h-450v-145h240q74 0 129.5 -17.5t92.5 -47.5t55 -70t18 -85t-18 -85t-55 -70t-92.5 -47.5t-129.5 -17.5h-360q-25 0 -25 25v650zM475 115q36 0 63 8.5t45 23t27.5 33.5t9.5 40t-9.5 40t-27.5 33.5t-45 23t-63 8.5
h-240v-210h240z" />
    <glyph glyph-name="afii10019" unicode="&#x412;" horiz-adv-x="820" 
d="M90 675q0 25 25 25h340q71 0 123 -15t86 -40.5t50 -60.5t16 -74q0 -42 -17 -68.5t-38 -42.5q-24 -19 -55 -29v-5q45 -10 80 -32q21 -12 33.5 -24t23 -28.5t17 -38t6.5 -47.5q0 -39 -17 -74.5t-53 -62.5t-90.5 -42.5t-129.5 -15.5h-375q-25 0 -25 25v650zM235 305v-190
h255q72 0 106 28.5t34 66.5t-34 66.5t-106 28.5h-255zM235 585v-165h220q60 0 92.5 25t32.5 55q0 38 -28.5 61.5t-96.5 23.5h-220z" />
    <glyph glyph-name="afii10020" unicode="&#x413;" horiz-adv-x="685" 
d="M90 675q0 25 25 25h535q25 0 25 -25v-65q0 -25 -25 -25h-415v-560q0 -25 -25 -25h-95q-25 0 -25 25v650z" />
    <glyph glyph-name="afii10021" unicode="&#x414;" horiz-adv-x="910" 
d="M90 115l85 335q14 56 40.5 102t65.5 79t91 51t118 18h265q25 0 25 -25v-560h85q25 0 25 -25v-65q0 -25 -25 -25h-840q-25 0 -25 25v65q0 25 25 25h65zM240 115h395v470h-145q-34 0 -62 -11t-49.5 -30t-36 -43.5t-22.5 -50.5z" />
    <glyph glyph-name="afii10022" unicode="&#x415;" horiz-adv-x="765" 
d="M90 675q0 25 25 25h585q25 0 25 -25v-65q0 -25 -25 -25h-465v-170h355q25 0 25 -25v-65q0 -25 -25 -25h-355v-185h465q25 0 25 -25v-65q0 -25 -25 -25h-585q-25 0 -25 25v650z" />
    <glyph glyph-name="afii10024" unicode="&#x416;" horiz-adv-x="1189" 
d="M267 365q-18 6 -37 21q-18 13 -37.5 36t-40.5 63l-100 190q-4 8 0 16.5t15 8.5h100q19 0 29.5 -7t15.5 -18l100 -190q16 -29 42.5 -49.5t77.5 -20.5h90v260q0 25 25 25h95q25 0 25 -25v-260h90q51 0 77.5 20.5t42.5 49.5l100 190q5 11 15.5 18t29.5 7h100q11 0 15 -8.5
t0 -16.5l-100 -190q-21 -40 -41.5 -63.5t-36.5 -35.5q-19 -15 -37 -21v-5q18 -5 38 -20q19 -14 40.5 -39.5t46.5 -70.5l110 -205q4 -8 0 -16.5t-15 -8.5h-100q-19 0 -29 7t-16 18l-110 205q-16 29 -41.5 49.5t-73.5 20.5h-105v-275q0 -25 -25 -25h-95q-25 0 -25 25v275h-105
q-48 0 -73.5 -20.5t-41.5 -49.5l-110 -205q-6 -11 -16 -18t-29 -7h-100q-11 0 -15 8.5t0 16.5l110 205q25 45 47 71t40 39q20 15 38 20v5z" />
    <glyph glyph-name="afii10025" unicode="&#x417;" horiz-adv-x="775" 
d="M295 395q0 25 25 25h100q68 0 101.5 28.5t33.5 66.5q0 17 -9.5 34t-30.5 30.5t-53 22t-77 8.5q-41 0 -71.5 -9.5t-52 -24.5t-35 -34t-21.5 -37q-12 -25 -40 -25h-80q-25 0 -25 30q6 39 27 77t60.5 67.5t98 47.5t139.5 18q84 0 145.5 -17.5t101.5 -46t59 -65.5t19 -76
q0 -42 -20 -69.5t-45 -44.5q-29 -20 -65 -31v-5q42 -10 75 -32q20 -12 31.5 -23.5t21 -27.5t16 -36.5t6.5 -45.5q0 -41 -20.5 -80.5t-62.5 -70.5t-107 -50t-155 -19q-88 0 -151.5 19t-106 50.5t-64.5 72t-28 83.5q0 25 25 25h80q30 0 40 -25q8 -18 22.5 -38.5t39 -37.5
t59.5 -28t84 -11q53 0 90 9.5t60 25t34 35t11 40.5t-9.5 40t-29 33.5t-50 23t-71.5 8.5h-100q-25 0 -25 25v65z" />
    <glyph glyph-name="afii10026" unicode="&#x418;" horiz-adv-x="870" 
d="M265 25q-8 -11 -21 -18t-24 -7h-105q-25 0 -25 25v650q0 25 25 25h95q25 0 25 -25v-480h5l365 480q8 11 21 18t24 7h105q25 0 25 -25v-650q0 -25 -25 -25h-95q-25 0 -25 25v480h-5z" />
    <glyph glyph-name="afii10027" unicode="&#x419;" horiz-adv-x="870" 
d="M265 25q-8 -11 -21 -18t-24 -7h-105q-25 0 -25 25v650q0 25 25 25h95q25 0 25 -25v-480h5l365 480q8 11 21 18t24 7h105q25 0 25 -25v-650q0 -25 -25 -25h-95q-25 0 -25 25v480h-5zM435 770q-43 0 -79 14t-61.5 37.5t-40 54t-14.5 64.5q0 8 6 14t14 6h55q8 0 15.5 -6
t9.5 -14q6 -34 33 -57t62 -23t62 23t33 57q2 8 9.5 14t15.5 6h55q8 0 14 -6t6 -14q0 -34 -14.5 -64.5t-40 -54t-61.5 -37.5t-79 -14z" />
    <glyph glyph-name="afii10028" unicode="&#x41a;" horiz-adv-x="807" 
d="M540 360q18 -5 38 -20q19 -14 40.5 -39.5t46.5 -70.5l110 -205q4 -8 0 -16.5t-15 -8.5h-100q-19 0 -29 7t-16 18l-110 205q-16 29 -41.5 49.5t-73.5 20.5h-155v-275q0 -25 -25 -25h-95q-25 0 -25 25v650q0 25 25 25h95q25 0 25 -25v-260h140q51 0 77.5 20.5t42.5 49.5
l100 190q5 11 15.5 18t29.5 7h100q11 0 15 -8.5t0 -16.5l-100 -190q-21 -40 -41.5 -63.5t-36.5 -35.5q-19 -15 -37 -21v-5z" />
    <glyph glyph-name="afii10029" unicode="&#x41b;" horiz-adv-x="846" 
d="M611 585h-165q-34 0 -62.5 -11t-50 -30t-36.5 -43.5t-21 -50.5l-105 -425q-3 -11 -12.5 -18t-22.5 -7h-95q-11 0 -17 7t-3 18l110 425q15 56 41.5 102t65.5 79t90.5 51t117.5 18h285q25 0 25 -25v-650q0 -25 -25 -25h-95q-25 0 -25 25v560z" />
    <glyph glyph-name="afii10030" unicode="&#x41c;" horiz-adv-x="1085" 
d="M505 0q-15 0 -25.5 8.5t-14.5 16.5l-225 451h-5v-451q0 -25 -25 -25h-95q-25 0 -25 25v650q0 25 25 25h135q15 0 23 -8t13 -17l254 -510h5l254 510q5 9 13 17t23 8h135q25 0 25 -25v-650q0 -25 -25 -25h-95q-25 0 -25 25v451h-5l-225 -451q-4 -8 -14.5 -16.5t-25.5 -8.5
h-75z" />
    <glyph glyph-name="afii10031" unicode="&#x41d;" horiz-adv-x="860" 
d="M90 675q0 25 25 25h95q25 0 25 -25v-270h390v270q0 25 25 25h95q25 0 25 -25v-650q0 -25 -25 -25h-95q-25 0 -25 25v265h-390v-265q0 -25 -25 -25h-95q-25 0 -25 25v650z" />
    <glyph glyph-name="afii10032" unicode="&#x41e;" horiz-adv-x="880" 
d="M200 350q0 -62 17 -110.5t48.5 -81.5t76 -50.5t98.5 -17.5t98.5 17.5t76 50.5t48.5 81.5t17 110.5t-17 110.5t-48.5 81.5t-76 50.5t-98.5 17.5t-98.5 -17.5t-76 -50.5t-48.5 -81.5t-17 -110.5zM830 350q0 -84 -26.5 -152.5t-76.5 -117t-122.5 -74.5t-164.5 -26t-164.5 26
t-122.5 74.5t-76.5 117t-26.5 152.5t26.5 152.5t76.5 117t122.5 74.5t164.5 26t164.5 -26t122.5 -74.5t76.5 -117t26.5 -152.5z" />
    <glyph glyph-name="afii10033" unicode="&#x41f;" horiz-adv-x="860" 
d="M90 675q0 25 25 25h630q25 0 25 -25v-650q0 -25 -25 -25h-95q-25 0 -25 25v560h-390v-560q0 -25 -25 -25h-95q-25 0 -25 25v650z" />
    <glyph glyph-name="afii10034" unicode="&#x420;" horiz-adv-x="805" 
d="M775 455q0 -52 -20 -97t-59.5 -78t-99.5 -51.5t-141 -18.5h-220v-185q0 -25 -25 -25h-95q-25 0 -25 25v650q0 25 25 25h340q81 0 141 -18.5t99.5 -51.5t59.5 -77.5t20 -97.5zM235 585v-260h220q41 0 73 10.5t53.5 28.5t32.5 41.5t11 49.5t-11 49.5t-32.5 41.5t-53.5 28.5
t-73 10.5h-220z" />
    <glyph glyph-name="afii10035" unicode="&#x421;" horiz-adv-x="840" 
d="M440 720q79 0 140.5 -20.5t105.5 -54.5t70.5 -77t33.5 -88q0 -25 -25 -25h-90q-15 0 -23 7t-12 18q-9 26 -25.5 49.5t-41 41.5t-57.5 28.5t-76 10.5q-55 0 -99 -18t-75.5 -52t-48.5 -82t-17 -108q0 -62 18 -110.5t49.5 -81.5t76 -50.5t96.5 -17.5q45 0 79 10.5t59.5 29.5
t43 44.5t28.5 55.5q5 11 12.5 18t22.5 7h90q25 0 25 -25q-7 -49 -33.5 -94t-71.5 -79.5t-108.5 -55.5t-146.5 -21q-92 0 -164.5 26t-122.5 74.5t-76.5 117t-26.5 152.5t26.5 152.5t76.5 117t122.5 74.5t164.5 26z" />
    <glyph glyph-name="afii10036" unicode="&#x422;" horiz-adv-x="725" 
d="M435 25q0 -25 -25 -25h-95q-25 0 -25 25v560h-245q-25 0 -25 25v65q0 25 25 25h635q25 0 25 -25v-65q0 -25 -25 -25h-245v-560z" />
    <glyph glyph-name="afii10037" unicode="&#x423;" horiz-adv-x="774" 
d="M457 245h-65q-52 0 -93 12t-73 35.5t-57.5 58t-46.5 79.5q-26 60 -54.5 122t-55.5 123q-4 11 1 18t19 7h100q23 0 35 -25l110 -245q15 -34 46 -52t69 -18h105l115 315q8 25 35 25h95q11 0 18 -7t2 -18l-170 -475q-15 -42 -39.5 -78.5t-58 -63.5t-76.5 -42.5t-96 -15.5
h-110q-25 0 -25 25v75q0 25 25 25h35q19 0 32.5 -5t32.5 -5q45 0 81 23.5t49 61.5z" />
    <glyph glyph-name="afii10038" unicode="&#x424;" horiz-adv-x="1025" 
d="M585 -5q0 -25 -25 -25h-95q-25 0 -25 25v55q-101 0 -176.5 23t-125 63.5t-74 95t-24.5 118.5t24.5 118.5t74 95t125 63.5t176.5 23v55q0 25 25 25h95q25 0 25 -25v-55q101 0 176.5 -23t125 -63.5t74 -95t24.5 -118.5t-24.5 -118.5t-74 -95t-125 -63.5t-176.5 -23v-55z
M585 160q64 0 111 14t78 39.5t46 60.5t15 76t-15 76t-46 60.5t-78 39.5t-111 14v-380zM440 540q-64 0 -111 -14t-78 -39.5t-46 -60.5t-15 -76t15 -76t46 -60.5t78 -39.5t111 -14v380z" />
    <glyph glyph-name="afii10039" unicode="&#x425;" horiz-adv-x="753" 
d="M189 25q-9 -11 -19.5 -18t-25.5 -7h-115q-11 0 -16 8.5t1 16.5l265 335l-245 315q-6 8 -1 16.5t16 8.5h115q15 0 26 -8t19 -17l165 -215h5l165 215q8 9 19 17t26 8h115q11 0 16 -8.5t-1 -16.5l-245 -315l265 -335q6 -8 1 -16.5t-16 -8.5h-115q-15 0 -25.5 7t-19.5 18
l-185 235h-5z" />
    <glyph glyph-name="afii10040" unicode="&#x426;" horiz-adv-x="890" 
d="M90 675q0 25 25 25h95q25 0 25 -25v-560h380v560q0 25 25 25h95q25 0 25 -25v-560h85q25 0 25 -25v-65q0 -25 -25 -25h-730q-25 0 -25 25v650z" />
    <glyph glyph-name="afii10041" unicode="&#x427;" horiz-adv-x="815" 
d="M580 265q-28 -10 -60 -17q-29 -8 -63 -13t-72 -5q-77 0 -136 19.5t-98.5 54t-60 82.5t-20.5 104v185q0 25 25 25h95q25 0 25 -25v-185q0 -30 12 -56.5t34 -46t53.5 -31t70.5 -11.5q38 0 73 5.5t62 12.5q32 7 60 17v295q0 25 25 25h95q25 0 25 -25v-650q0 -25 -25 -25h-95
q-25 0 -25 25v240z" />
    <glyph glyph-name="afii10042" unicode="&#x428;" horiz-adv-x="1175" 
d="M90 675q0 25 25 25h95q25 0 25 -25v-560h280v560q0 25 25 25h95q25 0 25 -25v-560h280v560q0 25 25 25h95q25 0 25 -25v-650q0 -25 -25 -25h-945q-25 0 -25 25v650z" />
    <glyph glyph-name="afii10043" unicode="&#x429;" horiz-adv-x="1215" 
d="M90 675q0 25 25 25h95q25 0 25 -25v-560h280v560q0 25 25 25h95q25 0 25 -25v-560h280v560q0 25 25 25h95q25 0 25 -25v-560h85q25 0 25 -25v-65q0 -25 -25 -25h-1055q-25 0 -25 25v650z" />
    <glyph glyph-name="afii10044" unicode="&#x42a;" horiz-adv-x="880" 
d="M850 235q0 -49 -19.5 -91.5t-59 -74.5t-98.5 -50.5t-138 -18.5h-315q-25 0 -25 25v560h-170q-25 0 -25 25v65q0 25 25 25h290q25 0 25 -25v-205h195q79 0 138 -18.5t98.5 -50.5t59 -74.5t19.5 -91.5zM535 115q83 0 124 35.5t41 84.5t-41 84.5t-124 35.5h-195v-240h195z
" />
    <glyph glyph-name="afii10045" unicode="&#x42b;" horiz-adv-x="1090" 
d="M740 235q0 -49 -19.5 -91.5t-59 -74.5t-98.5 -50.5t-138 -18.5h-310q-25 0 -25 25v650q0 25 25 25h95q25 0 25 -25v-205h190q79 0 138 -18.5t98.5 -50.5t59 -74.5t19.5 -91.5zM425 115q83 0 124 35.5t41 84.5t-41 84.5t-124 35.5h-190v-240h190zM1000 25q0 -25 -25 -25
h-95q-25 0 -25 25v650q0 25 25 25h95q25 0 25 -25v-650z" />
    <glyph glyph-name="afii10046" unicode="&#x42c;" horiz-adv-x="790" 
d="M760 235q0 -49 -19.5 -91.5t-59 -74.5t-98.5 -50.5t-138 -18.5h-330q-25 0 -25 25v650q0 25 25 25h95q25 0 25 -25v-205h210q79 0 138 -18.5t98.5 -50.5t59 -74.5t19.5 -91.5zM445 115q83 0 124 35.5t41 84.5t-41 84.5t-124 35.5h-210v-240h210z" />
    <glyph glyph-name="afii10047" unicode="&#x42d;" horiz-adv-x="840" 
d="M400 720q92 0 164.5 -26t122.5 -74.5t76.5 -117t26.5 -152.5t-26.5 -152.5t-76.5 -117t-122.5 -74.5t-164.5 -26q-82 0 -146 21t-109 55.5t-71 79.5t-34 94q0 25 25 25h90q15 0 22.5 -7t12.5 -18q11 -30 28.5 -55.5t43 -44.5t59.5 -29.5t79 -10.5q93 0 156.5 53t78.5 152
h-300q-25 0 -25 25v65q0 25 25 25h300q-16 94 -77.5 147t-157.5 53q-43 0 -76 -10.5t-57.5 -28.5t-41 -41.5t-25.5 -49.5q-4 -11 -12 -18t-23 -7h-90q-25 0 -25 25q8 45 34 88t70 77t105.5 54.5t140.5 20.5z" />
    <glyph glyph-name="afii10048" unicode="&#x42e;" horiz-adv-x="1145" 
d="M235 405h135q8 74 36.5 132.5t74.5 99t109 62t140 21.5q84 0 152 -25.5t115 -73.5t72.5 -116.5t25.5 -154.5t-25.5 -154.5t-72.5 -116.5t-115 -73.5t-152 -25.5q-77 0 -139.5 21t-108.5 61t-74.5 97.5t-37.5 130.5h-135v-265q0 -25 -25 -25h-95q-25 0 -25 25v650
q0 25 25 25h95q25 0 25 -25v-270zM730 90q47 0 86.5 16.5t68 49.5t44.5 81.5t16 112.5t-16 112.5t-44.5 81.5t-68 49.5t-86.5 16.5t-86.5 -16.5t-68 -49.5t-44.5 -81.5t-16 -112.5t16 -112.5t44.5 -81.5t68 -49.5t86.5 -16.5z" />
    <glyph glyph-name="afii10049" unicode="&#x42f;" horiz-adv-x="824" 
d="M219 270q-76 28 -113 79.5t-37 120.5q0 49 19 91t57 73t95 48.5t134 17.5h335q25 0 25 -25v-650q0 -25 -25 -25h-95q-25 0 -25 25v215h-215l-165 -215q-8 -11 -19 -18t-26 -7h-115q-11 0 -16.5 8t1.5 17l185 240v5zM374 585q-79 0 -117 -33t-38 -82t38 -82t117 -33h215
v230h-215z" />
    <glyph glyph-name="afii10065" unicode="&#x430;" horiz-adv-x="635" 
d="M310 530q62 0 110.5 -16.5t81.5 -44.5t50.5 -65.5t17.5 -78.5v-300q0 -25 -25 -25h-85q-25 0 -25 25v35h-5q-20 -22 -47 -40q-26 -16 -59.5 -28t-78.5 -12q-49 0 -88 14t-66 37.5t-41.5 54t-14.5 64.5q0 36 15 67.5t45.5 55.5t76.5 38t108 14h155q0 21 -9 40t-25.5 33.5
t-39.5 23t-51 8.5q-21 0 -37 -5t-27.5 -11.5t-19 -13t-11.5 -10.5q-11 -11 -20 -18t-20 -7h-70q-25 0 -25 25q0 23 15 47.5t44 45t72 34t99 13.5zM270 80q34 0 64 11.5t52 26.5q27 16 49 37v65h-146q-67 0 -93 -20t-26 -50t23.5 -50t76.5 -20z" />
    <glyph glyph-name="afii10066" unicode="&#x431;" 
d="M610 230q0 -54 -19 -100t-56 -79.5t-89.5 -52t-120.5 -18.5q-67 0 -119.5 19t-88 53.5t-54 83.5t-18.5 109v130q0 68 19 123t54.5 95.5t86.5 65t115 31.5l235 25q25 0 25 -25v-65q0 -9 -8 -16.5t-17 -8.5l-235 -25q-34 -5 -63 -19.5t-50.5 -38.5t-34 -56t-12.5 -71h5
q19 25 45 45q24 18 57 31.5t78 13.5q60 0 109 -18.5t83.5 -52t53.5 -79.5t19 -100zM475 230q0 34 -11.5 61.5t-31.5 47t-47.5 30.5t-59.5 11q-64 0 -104.5 -41t-40.5 -109t40.5 -109t104.5 -41q32 0 59.5 11t47.5 30.5t31.5 47t11.5 61.5z" />
    <glyph glyph-name="afii10067" unicode="&#x432;" horiz-adv-x="630" 
d="M70 485q0 25 25 25h260q54 0 93 -10.5t64 -29t36.5 -43t11.5 -52.5t-13 -46.5t-29 -29.5q-19 -12 -43 -19v-5q34 -7 60 -23q24 -15 42 -38.5t18 -63.5q0 -32 -12.5 -59.5t-38 -47.5t-65.5 -31.5t-94 -11.5h-290q-25 0 -25 25v460zM205 215v-110h180q38 0 56.5 16t18.5 39
t-18.5 39t-56.5 16h-180zM205 405v-90h150q38 0 54 13t16 32t-16 32t-54 13h-150z" />
    <glyph glyph-name="afii10068" unicode="&#x433;" horiz-adv-x="530" 
d="M70 485q0 25 25 25h400q25 0 25 -25v-55q0 -25 -25 -25h-290v-380q0 -25 -25 -25h-85q-25 0 -25 25v460z" />
    <glyph glyph-name="afii10069" unicode="&#x434;" horiz-adv-x="715" 
d="M25 0q-25 0 -25 25v55q0 25 25 25h50l50 195q26 105 84.5 157.5t170.5 52.5h205q25 0 25 -25v-380h65q25 0 25 -25v-55q0 -25 -25 -25h-650zM215 105h260v300h-95q-45 0 -74.5 -28t-40.5 -77z" />
    <glyph glyph-name="afii10070" unicode="&#x435;" 
d="M325 430q-28 0 -52.5 -10t-43.5 -26.5t-30.5 -37t-13.5 -41.5h280q-2 21 -13.5 41.5t-30 37t-43.5 26.5t-53 10zM325 -20q-66 0 -118.5 20t-89.5 56t-57 86.5t-20 112.5t20 112.5t57 86.5t89.5 56t118.5 20t118.5 -19.5t89.5 -55t57 -84t20 -106.5v-30q0 -25 -25 -25
h-406q2 -26 14 -49.5t31.5 -41.5t45 -28.5t55.5 -10.5q28 0 49 6t36 15t24.5 19.5t15.5 19.5q8 11 16 18t19 7h75q11 0 18 -7t7 -18q-6 -30 -24 -58.5t-50 -51t-78 -36.5t-108 -14z" />
    <glyph glyph-name="afii10072" unicode="&#x436;" horiz-adv-x="939" 
d="M427 0q-25 0 -25 25v190h-70q-30 0 -47.5 -15.5t-27.5 -34.5l-75 -140q-5 -9 -15 -17t-25 -8h-100q-11 0 -15 8t0 17l75 140q17 32 34.5 51.5t32.5 30.5q17 13 33 18v5l-8.5 4t-23 15t-31.5 29.5t-33 48.5l-64 118q-6 11 -1 18t16 7h95q15 0 27 -7t18 -18l55 -105
q12 -23 31 -41.5t49 -18.5h70v165q0 25 25 25h85q25 0 25 -25v-165h70q30 0 49 18.5t31 41.5l55 105q6 11 18 18t27 7h95q11 0 16 -7t-1 -18l-64 -118q-16 -30 -33 -48.5t-31.5 -29.5t-23 -15l-8.5 -4v-5q16 -5 33 -18q16 -12 33 -31t34 -51l75 -140q4 -9 0 -17t-15 -8h-100
q-15 0 -25 8t-15 17l-75 140q-10 19 -27.5 34.5t-47.5 15.5h-70v-190q0 -25 -25 -25h-85z" />
    <glyph glyph-name="afii10073" unicode="&#x437;" horiz-adv-x="605" 
d="M300 530q66 0 113 -13t77.5 -34.5t45 -49.5t14.5 -58q0 -32 -15 -52.5t-32 -31.5q-21 -14 -48 -21v-5q32 -7 58 -23q23 -14 40 -37t17 -61q0 -31 -15.5 -61t-48.5 -52.5t-84 -36.5t-122 -14q-69 0 -120 14.5t-84.5 38.5t-49.5 54.5t-16 62.5q0 25 25 25h70q15 0 22.5 -7
t12.5 -18q15 -30 47.5 -50t92.5 -20q39 0 65 6t41.5 16t21.5 22.5t6 25.5q0 26 -23.5 45.5t-77.5 19.5h-83q-25 0 -25 25v55q0 25 25 25h80q45 0 65 16t20 39q0 19 -25.5 37t-89.5 18q-50 0 -77.5 -17.5t-37.5 -37.5q-5 -9 -12 -17t-23 -8h-70q-11 0 -18 7t-7 18q0 28 15 56
t45.5 50t76.5 35.5t108 13.5z" />
    <glyph glyph-name="afii10074" unicode="&#x438;" horiz-adv-x="685" 
d="M212 170l243 315q8 11 18.5 18t21.5 7h95q25 0 25 -25v-460q0 -25 -25 -25h-85q-25 0 -25 25v315h-5l-245 -315q-8 -11 -18.5 -18t-21.5 -7h-95q-25 0 -25 25v460q0 25 25 25h85q25 0 25 -25v-315h7z" />
    <glyph glyph-name="afii10075" unicode="&#x439;" horiz-adv-x="685" 
d="M212 170l243 315q8 11 18.5 18t21.5 7h95q25 0 25 -25v-460q0 -25 -25 -25h-85q-25 0 -25 25v315h-5l-245 -315q-8 -11 -18.5 -18t-21.5 -7h-95q-25 0 -25 25v460q0 25 25 25h85q25 0 25 -25v-315h7zM340 595q-43 0 -77.5 12.5t-58.5 33.5t-36.5 49t-12.5 60q0 8 6 14
t14 6h60q8 0 13 -6t7 -14q8 -29 29 -49.5t56 -20.5t56 20.5t29 49.5q2 8 7 14t13 6h60q8 0 14 -6t6 -14q0 -32 -12.5 -60t-36.5 -49t-58.5 -33.5t-77.5 -12.5z" />
    <glyph glyph-name="afii10076" unicode="&#x43a;" horiz-adv-x="637" 
d="M70 485q0 25 25 25h85q25 0 25 -25v-165h100q30 0 49 18.5t31 41.5l55 105q6 11 18 18t27 7h95q11 0 16 -7t-1 -18l-64 -118q-16 -30 -33 -48.5t-31.5 -29.5t-23 -15l-8.5 -4v-5q16 -5 33 -18q16 -12 33 -31t34 -51l75 -140q4 -9 0 -17t-15 -8h-100q-15 0 -25 8t-15 17
l-75 140q-10 19 -27.5 34.5t-47.5 15.5h-100v-190q0 -25 -25 -25h-85q-25 0 -25 25v460z" />
    <glyph glyph-name="afii10077" unicode="&#x43b;" horiz-adv-x="661" 
d="M456 405h-110q-45 0 -74.5 -28t-40.5 -77l-70 -275q-7 -25 -30 -25h-90q-11 0 -16.5 7.5t-3.5 17.5l70 275q27 105 85 157.5t170 52.5h220q25 0 25 -25v-460q0 -25 -25 -25h-85q-25 0 -25 25v380z" />
    <glyph glyph-name="afii10078" unicode="&#x43c;" horiz-adv-x="855" 
d="M395 0q-15 0 -22.5 7t-12.5 18l-150 295h-5v-295q0 -25 -25 -25h-85q-25 0 -25 25v460q0 25 25 25h120q16 0 25.5 -8t14.5 -17l170 -340h5l170 340q5 9 14.5 17t25.5 8h120q25 0 25 -25v-460q0 -25 -25 -25h-85q-25 0 -25 25v295h-5l-150 -295q-5 -11 -12.5 -18t-22.5 -7
h-65z" />
    <glyph glyph-name="afii10079" unicode="&#x43d;" horiz-adv-x="675" 
d="M470 200h-265v-175q0 -25 -25 -25h-85q-25 0 -25 25v460q0 25 25 25h85q25 0 25 -25v-180h265v180q0 25 25 25h85q25 0 25 -25v-460q0 -25 -25 -25h-85q-25 0 -25 25v175z" />
    <glyph glyph-name="afii10080" unicode="&#x43e;" horiz-adv-x="670" 
d="M495 255q0 83 -44 129t-116 46t-116 -46t-44 -129t44 -129t116 -46t116 46t44 129zM630 255q0 -62 -20 -112.5t-58 -86.5t-93 -56t-124 -20t-124 20t-93 56t-58 86.5t-20 112.5t20 112.5t58 86.5t93 56t124 20t124 -20t93 -56t58 -86.5t20 -112.5z" />
    <glyph glyph-name="afii10081" unicode="&#x43f;" horiz-adv-x="675" 
d="M470 405h-265v-380q0 -25 -25 -25h-85q-25 0 -25 25v460q0 25 25 25h485q25 0 25 -25v-460q0 -25 -25 -25h-85q-25 0 -25 25v380z" />
    <glyph glyph-name="afii10082" unicode="&#x440;" horiz-adv-x="675" 
d="M70 485q0 25 25 25h85q25 0 25 -25v-30h5q18 21 43 38q23 15 52.5 26t69.5 11q58 0 106 -19t82 -54.5t53 -86.5t19 -115q0 -62 -19.5 -112.5t-55.5 -86.5t-85.5 -56t-109.5 -20q-36 0 -64.5 6t-48.5 14q-24 9 -42 20h-5v-175q0 -25 -25 -25h-85q-25 0 -25 25v640z
M205 125q18 -13 40 -22q20 -10 45 -16.5t55 -6.5q68 0 111.5 46t43.5 129t-38.5 124t-106.5 41q-32 0 -59.5 -11t-47.5 -24q-24 -16 -43 -36v-224z" />
    <glyph glyph-name="afii10083" unicode="&#x441;" horiz-adv-x="630" 
d="M335 530q60 0 105 -14.5t76.5 -38.5t49.5 -54.5t24 -62.5q0 -25 -25 -25h-75q-23 0 -35 25q-6 11 -15.5 23.5t-24 23t-34.5 17t-46 6.5q-72 0 -116 -42.5t-44 -127.5q0 -83 42 -131.5t118 -48.5q56 0 85.5 25.5t44.5 59.5q12 25 35 25h70q25 0 25 -25q-6 -36 -24.5 -69
t-51 -59t-78.5 -41.5t-106 -15.5q-67 0 -122 20.5t-93 57.5t-59 88.5t-21 113.5q0 61 20.5 111t59 85t93 54.5t122.5 19.5z" />
    <glyph glyph-name="afii10084" unicode="&#x442;" horiz-adv-x="555" 
d="M10 485q0 25 25 25h485q11 0 18 -6.5t7 -17.5v-56q0 -25 -25 -25h-175v-380q0 -25 -25 -25h-85q-25 0 -25 25v380h-175q-25 0 -25 25v55z" />
    <glyph glyph-name="afii10085" unicode="&#x443;" horiz-adv-x="603" 
d="M322 10q-43 0 -75.5 12t-58 36t-45 61t-36.5 86l-95 280q-5 11 1 18t14 7h95q11 0 19 -8t11 -17l90 -280q5 -16 13.5 -32.5t19 -29t22.5 -20.5t25 -8h30l105 370q7 25 30 25h85q11 0 16.5 -8t3.5 -17l-135 -475q-12 -41 -32 -76t-48 -60.5t-63.5 -39.5t-76.5 -14h-80
q-25 0 -25 25v65q0 25 25 25h25q19 0 29.5 -5t25.5 -5q30 0 51.5 22t33.5 63z" />
    <glyph glyph-name="afii10086" unicode="&#x444;" horiz-adv-x="825" 
d="M480 -156q0 -9 -7.5 -16.5t-16.5 -7.5h-87q-9 0 -16.5 7.5t-7.5 16.5v146q-73 5 -130 27t-96 57.5t-59 81.5t-20 99t20 99t59 81.5t96 57.5t130 27v156q0 9 7.5 16.5t16.5 7.5h86q10 0 17.5 -7.5t7.5 -16.5v-156q74 -5 130.5 -27t95.5 -57.5t59 -81.5t20 -99t-20 -99
t-59 -81.5t-95.5 -57.5t-130.5 -27v-146zM480 90q39 2 71 15t55.5 34.5t36 51t12.5 64.5t-12.5 64.5t-36 51t-55.5 34.5t-71 15v-330zM345 420q-39 -2 -71 -15t-55.5 -34.5t-36 -51t-12.5 -64.5t12.5 -64.5t36 -51t55.5 -34.5t71 -15v330z" />
    <glyph glyph-name="afii10087" unicode="&#x445;" horiz-adv-x="593" 
d="M544 510q12 0 16.5 -8.5t-1.5 -16.5l-170 -220l190 -240q6 -8 1 -16.5t-16 -8.5h-100q-14 0 -23.5 8.5t-16.5 16.5l-125 155h-5l-125 -155q-7 -8 -16.5 -16.5t-23.5 -8.5h-100q-11 0 -16 8.5t1 16.5l190 240l-170 220q-6 8 -1.5 16.5t16.5 8.5h100q16 0 24.5 -8t15.5 -17
l105 -140h5l105 140q7 9 15.5 17t24.5 8h100z" />
    <glyph glyph-name="afii10088" unicode="&#x446;" horiz-adv-x="700" 
d="M460 485q0 25 25 25h85q25 0 25 -25v-380h65q25 0 25 -25v-55q0 -25 -25 -25h-565q-25 0 -25 25v460q0 25 25 25h85q25 0 25 -25v-380h255v380z" />
    <glyph glyph-name="afii10089" unicode="&#x447;" horiz-adv-x="635" 
d="M430 170q-17 -6 -37 -10t-44 -7t-54 -3q-120 0 -182.5 59t-62.5 156v120q0 25 25 25h85q25 0 25 -25v-120q0 -24 9 -45t24 -36.5t35 -24.5t42 -9q28 0 52.5 4t42.5 9q22 5 40 12v210q0 25 25 25h85q25 0 25 -25v-460q0 -25 -25 -25h-85q-25 0 -25 25v145z" />
    <glyph glyph-name="afii10090" unicode="&#x448;" horiz-adv-x="935" 
d="M95 0q-25 0 -25 25v460q0 25 25 25h85q25 0 25 -25v-370h195v370q0 25 25 25h85q25 0 25 -25v-370h195v370q0 25 25 25h85q25 0 25 -25v-460q0 -25 -25 -25h-745z" />
    <glyph glyph-name="afii10091" unicode="&#x449;" horiz-adv-x="970" 
d="M95 0q-25 0 -25 25v460q0 25 25 25h85q25 0 25 -25v-370h195v370q0 25 25 25h85q25 0 25 -25v-370h195v370q0 25 25 25h85q25 0 25 -25v-370h65q25 0 25 -25v-65q0 -25 -25 -25h-835z" />
    <glyph glyph-name="afii10092" unicode="&#x44a;" horiz-adv-x="675" 
d="M180 0q-25 0 -25 25v380h-130q-25 0 -25 25v56q0 11 7 17.5t18 6.5h240q25 0 25 -25v-125h135q56 0 99 -14t72 -38.5t44 -57t15 -70.5q0 -37 -15 -70t-44 -57.5t-72 -38.5t-99 -14h-245zM290 255v-150h135q45 0 70 20.5t25 54.5q0 30 -25 52.5t-70 22.5h-135z" />
    <glyph glyph-name="afii10093" unicode="&#x44b;" horiz-adv-x="850" 
d="M780 25q0 -25 -25 -25h-85q-25 0 -25 25v460q0 25 25 25h85q25 0 25 -25v-460zM335 360q56 0 99 -14t72 -38.5t44 -57t15 -70.5q0 -37 -15 -70t-44 -57.5t-72 -38.5t-99 -14h-240q-25 0 -25 25v460q0 25 25 25h85q25 0 25 -25v-125h130zM205 255v-150h130q45 0 70 22.5
t25 52.5t-25 52.5t-70 22.5h-130z" />
    <glyph glyph-name="afii10094" unicode="&#x44c;" horiz-adv-x="600" 
d="M350 360q56 0 99 -14t72 -38.5t44 -57t15 -70.5q0 -37 -15 -70t-44 -57.5t-72 -38.5t-99 -14h-255q-25 0 -25 25v460q0 25 25 25h85q25 0 25 -25v-125h145zM205 255v-150h145q45 0 70 22.5t25 52.5t-25 52.5t-70 22.5h-145z" />
    <glyph glyph-name="afii10095" unicode="&#x44d;" horiz-adv-x="630" 
d="M295 530q68 0 123 -19.5t93 -54.5t58.5 -85t20.5 -111q0 -62 -21 -113.5t-59 -88.5t-92.5 -57.5t-122.5 -20.5q-60 0 -106 15.5t-78.5 41.5t-51 59t-24.5 69q0 25 25 25h70q23 0 35 -25q15 -34 44.5 -59.5t85.5 -25.5q61 0 100.5 31.5t54.5 88.5h-195q-25 0 -25 25v65
q0 25 25 25h195q-15 57 -55.5 86t-99.5 29q-26 0 -46 -6.5t-34.5 -17t-24 -23t-15.5 -23.5q-12 -25 -35 -25h-75q-25 0 -25 25q6 32 24 62.5t49.5 54.5t76.5 38.5t105 14.5z" />
    <glyph glyph-name="afii10096" unicode="&#x44e;" horiz-adv-x="900" 
d="M205 310h100q15 103 86.5 161.5t188.5 58.5q66 0 118 -19t88 -54.5t55 -86.5t19 -115t-19 -115t-55 -86.5t-88 -54.5t-118 -19q-116 0 -187 56.5t-88 158.5h-100v-170q0 -25 -25 -25h-85q-25 0 -25 25v460q0 25 25 25h85q25 0 25 -25v-175zM435 255q0 -41 11.5 -73.5
t31 -55t46 -34.5t56.5 -12t56.5 12t46 34.5t31 55t11.5 73.5t-11.5 73.5t-31 55t-46 34.5t-56.5 12t-56.5 -12t-46 -34.5t-31 -55t-11.5 -73.5z" />
    <glyph glyph-name="afii10097" unicode="&#x44f;" horiz-adv-x="644" 
d="M294 170l-115 -145q-9 -11 -19.5 -18t-25.5 -7h-95q-11 0 -16.5 8t1.5 17l130 165v5q-100 40 -100 145q0 75 51.5 122.5t163.5 47.5h280q25 0 25 -25v-460q0 -25 -25 -25h-85q-25 0 -25 25v145h-145zM439 275v130h-170q-42 0 -61 -17.5t-19 -47.5t19 -47.5t61 -17.5h170z
" />
    <glyph glyph-name="afii10071" unicode="&#x451;" 
d="M325 430q-28 0 -52.5 -10t-43.5 -26.5t-30.5 -37t-13.5 -41.5h280q-2 21 -13.5 41.5t-30 37t-43.5 26.5t-53 10zM325 -20q-66 0 -118.5 20t-89.5 56t-57 86.5t-20 112.5t20 112.5t57 86.5t89.5 56t118.5 20t118.5 -19.5t89.5 -55t57 -84t20 -106.5v-30q0 -25 -25 -25
h-406q2 -26 14 -49.5t31.5 -41.5t45 -28.5t55.5 -10.5q28 0 49 6t36 15t24.5 19.5t15.5 19.5q8 11 16 18t19 7h75q11 0 18 -7t7 -18q-6 -30 -24 -58.5t-50 -51t-78 -36.5t-108 -14zM146 750q0 15 10 25t25 10h60q15 0 25 -10t10 -25v-65q0 -15 -10 -25t-25 -10h-60
q-15 0 -25 10t-10 25v65zM376 750q0 15 10 25t25 10h60q15 0 25 -10t10 -25v-65q0 -15 -10 -25t-25 -10h-60q-15 0 -25 10t-10 25v65z" />
    <glyph glyph-name="afii10099" unicode="&#x452;" horiz-adv-x="690" 
d="M400 85q53 0 84 33.5t31 101.5t-32.5 104t-77.5 36q-39 0 -70.5 -11t-53.5 -25t-34 -25.5t-12 -13.5v-260q0 -25 -25 -25h-85q-25 0 -25 25v491h-65q-25 0 -25 24v50q0 25 25 25h65v60q0 25 25 25h85q25 0 25 -25v-60h130q25 0 25 -25v-50q0 -24 -25 -24h-130v-130h5
q18 21 43 37q23 15 52.5 26t69.5 11q117 0 181 -63.5t64 -176.5t-63 -176.5t-172 -63.5q-30 0 -48.5 2.5t-29 8t-14 12.5t-3.5 16v51q0 25 25 25h15q9 0 20 -5t20 -5z" />
    <glyph glyph-name="afii10100" unicode="&#x453;" horiz-adv-x="530" 
d="M70 485q0 25 25 25h400q25 0 25 -25v-55q0 -25 -25 -25h-290v-380q0 -25 -25 -25h-85q-25 0 -25 25v460zM435 810q11 0 15.5 -9t-0.5 -16l-100 -150q-8 -11 -16 -18t-19 -7h-55q-12 0 -16 8t1 17q17 37 32.5 74.5t32.5 75.5q5 11 13.5 18t21.5 7h90z" />
    <glyph glyph-name="afii10101" unicode="&#x454;" horiz-adv-x="630" 
d="M335 530q60 0 105 -14.5t76.5 -38.5t49.5 -54.5t24 -62.5q0 -25 -25 -25h-75q-23 0 -35 25q-6 11 -15.5 23.5t-24 23t-34.5 17t-46 6.5q-59 0 -99.5 -29t-55.5 -86h195q25 0 25 -25v-65q0 -25 -25 -25h-195q15 -57 54.5 -88.5t100.5 -31.5q56 0 85.5 25.5t44.5 59.5
q12 25 35 25h70q25 0 25 -25q-6 -36 -24.5 -69t-51 -59t-78.5 -41.5t-106 -15.5q-67 0 -122 20.5t-93 57.5t-59 88.5t-21 113.5q0 61 20.5 111t59 85t93 54.5t122.5 19.5z" />
    <glyph glyph-name="afii10102" unicode="&#x455;" horiz-adv-x="610" 
d="M315 530q62 0 108 -13.5t76.5 -35.5t45.5 -50t15 -56q0 -25 -25 -25h-70q-11 0 -19.5 7t-15.5 18q-11 19 -36.5 37t-78.5 18q-63 0 -89 -18.5t-26 -41.5t28 -34.5t69.5 -19.5t90 -17t90 -25.5t69.5 -45.5t28 -78q0 -34 -15.5 -64.5t-48.5 -54t-84 -37.5t-122 -14
q-69 0 -120 14.5t-84.5 38.5t-49.5 54.5t-16 62.5q0 25 25 25h70q14 0 22 -7t13 -18q15 -30 47.5 -50t92.5 -20q37 0 63 6.5t42 16.5t23 22.5t7 24.5q0 23 -28 34.5t-69.5 20t-90 17t-90 25.5t-69.5 46t-28 77q0 32 14.5 61t45 51t77.5 35t113 13z" />
    <glyph glyph-name="afii10103" unicode="&#x456;" horiz-adv-x="285" 
d="M210 25q0 -25 -25 -25h-85q-25 0 -25 25v460q0 25 25 25h85q25 0 25 -25v-460zM170 725q40 0 40 -40v-65q0 -40 -40 -40h-55q-40 0 -40 40v65q0 40 40 40h55z" />
    <glyph glyph-name="afii10104" unicode="&#x457;" horiz-adv-x="320" 
d="M-20 700q0 15 10 25t25 10h60q15 0 25 -10t10 -25v-65q0 -15 -10 -25t-25 -10h-60q-15 0 -25 10t-10 25v65zM210 700q0 15 10 25t25 10h60q15 0 25 -10t10 -25v-65q0 -15 -10 -25t-25 -10h-60q-15 0 -25 10t-10 25v65zM225 25q0 -25 -25 -25h-85q-25 0 -25 25v460
q0 25 25 25h85q25 0 25 -25v-460z" />
    <glyph glyph-name="afii10105" unicode="&#x458;" horiz-adv-x="310" 
d="M-80 -100q0 25 25 25h15q15 0 30 -5t30 -5q34 0 57 25t23 70v475q0 25 25 25h85q25 0 25 -25v-475q0 -45 -14.5 -82t-42.5 -63t-67.5 -40.5t-90.5 -14.5q-15 0 -28.5 1.5t-24.5 3.5q-12 2 -22 5q-25 8 -25 30v50zM195 725q40 0 40 -40v-65q0 -40 -40 -40h-55
q-40 0 -40 40v65q0 40 40 40h55z" />
    <glyph glyph-name="afii10106" unicode="&#x459;" horiz-adv-x="960" 
d="M436 405h-98q-47 0 -74 -30t-38 -75l-70 -275q-7 -25 -30 -25h-90q-11 0 -16.5 7.5t-3.5 17.5l70 275q15 56 36.5 96t51.5 65.5t70.5 37t93.5 11.5h208q25 0 25 -25v-125h139q56 0 99 -14t72 -38.5t44 -57t15 -70.5q0 -37 -15 -70t-44 -57.5t-72 -38.5t-99 -14h-249
q-25 0 -25 25v380zM571 255v-150h139q45 0 70 22.5t25 52.5t-25 52.5t-70 22.5h-139z" />
    <glyph glyph-name="afii10107" unicode="&#x45a;" horiz-adv-x="980" 
d="M455 235h-250v-210q0 -25 -25 -25h-85q-25 0 -25 25v460q0 25 25 25h85q25 0 25 -25v-145h250v145q0 25 25 25h85q25 0 25 -25v-145h150q113 0 166.5 -47.5t53.5 -122.5t-53.5 -122.5t-166.5 -47.5h-260q-25 0 -25 25v210zM590 235v-130h150q42 0 63.5 19.5t21.5 45.5
t-21.5 45.5t-63.5 19.5h-150z" />
    <glyph glyph-name="afii10108" unicode="&#x45b;" horiz-adv-x="710" 
d="M235 386h4q17 21 41 37q22 15 51 26t69 11q124 0 187 -58.5t63 -155.5v-221q0 -25 -25 -25h-85q-25 0 -25 25v221q0 24 -9 45t-24.5 36t-36.5 24t-45 9q-40 0 -70.5 -11.5t-51.5 -25.5q-25 -17 -43 -38v101zM235 25q0 -25 -25 -25h-85q-25 0 -25 25v491h-65q-25 0 -25 24
v50q0 25 25 25h65v60q0 25 25 25h85q25 0 25 -25v-60h130q25 0 25 -25v-50q0 -24 -25 -24h-130v-491z" />
    <glyph glyph-name="afii10109" unicode="&#x45c;" horiz-adv-x="637" 
d="M425 810q11 0 15.5 -9t-0.5 -16l-100 -150q-8 -11 -16 -18t-19 -7h-55q-12 0 -16 8t1 17q17 37 32.5 74.5t32.5 75.5q5 11 13.5 18t21.5 7h90zM70 485q0 25 25 25h85q25 0 25 -25v-165h100q30 0 49 18.5t31 41.5l55 105q6 11 18 18t27 7h95q11 0 16 -7t-1 -18l-64 -118
q-16 -30 -33 -48.5t-31.5 -29.5t-23 -15l-8.5 -4v-5q16 -5 33 -18q16 -12 33 -31t34 -51l75 -140q4 -9 0 -17t-15 -8h-100q-15 0 -25 8t-15 17l-75 140q-10 19 -27.5 34.5t-47.5 15.5h-100v-190q0 -25 -25 -25h-85q-25 0 -25 25v460z" />
    <glyph glyph-name="afii10110" unicode="&#x45e;" horiz-adv-x="603" 
d="M322 10q-43 0 -75.5 12t-58 36t-45 61t-36.5 86l-95 280q-5 11 1 18t14 7h95q11 0 19 -8t11 -17l90 -280q5 -16 13.5 -32.5t19 -29t22.5 -20.5t25 -8h30l105 370q7 25 30 25h85q11 0 16.5 -8t3.5 -17l-135 -475q-12 -41 -32 -76t-48 -60.5t-63.5 -39.5t-76.5 -14h-80
q-25 0 -25 25v65q0 25 25 25h25q19 0 29.5 -5t25.5 -5q30 0 51.5 22t33.5 63zM305 595q-43 0 -77.5 12.5t-58.5 33.5t-36.5 49t-12.5 60q0 8 6 14t14 6h60q8 0 13 -6t7 -14q8 -29 29 -49.5t56 -20.5t56 20.5t29 49.5q2 8 7 14t13 6h60q8 0 14 -6t6 -14q0 -32 -12.5 -60
t-36.5 -49t-58.5 -33.5t-77.5 -12.5z" />
    <glyph glyph-name="afii10193" unicode="&#x45f;" horiz-adv-x="675" 
d="M470 485q0 25 25 25h85q25 0 25 -25v-460q0 -25 -25 -25h-175v-90q0 -25 -25 -25h-85q-25 0 -25 25v90h-175q-25 0 -25 25v460q0 25 25 25h85q25 0 25 -25v-380h265v380z" />
    <glyph glyph-name="afii10050" unicode="&#x490;" horiz-adv-x="675" 
d="M90 675q0 25 25 25h405v85q0 25 25 25h95q25 0 25 -25v-175q0 -25 -25 -25h-405v-560q0 -25 -25 -25h-95q-25 0 -25 25v650z" />
    <glyph glyph-name="afii10098" unicode="&#x491;" horiz-adv-x="520" 
d="M70 485q0 25 25 25h280v85q0 25 25 25h85q25 0 25 -25v-165q0 -25 -25 -25h-280v-380q0 -25 -25 -25h-85q-25 0 -25 25v460z" />
    <glyph glyph-name="uni1E9E" unicode="&#x1e9e;" horiz-adv-x="785" 
d="M385 115q23 0 37.5 -5t37.5 -5q72 0 103.5 28t31.5 77q0 28 -7.5 49t-25 34.5t-47.5 20t-75 6.5h-65q-14 0 -19.5 10t-0.5 20l125 235h-95q-75 0 -117.5 -43t-42.5 -122v-395q0 -25 -25 -25h-95q-25 0 -25 25v395q0 132 77 206t228 74h245q11 0 15 -8.5t0 -16.5
l-130 -250q53 -4 95.5 -22t72.5 -46.5t46 -66t16 -80.5q0 -49 -17 -89.5t-52.5 -69.5t-89 -45t-126.5 -16h-110q-25 0 -25 25v75q0 25 25 25h35z" />
    <glyph glyph-name="endash" unicode="&#x2013;" horiz-adv-x="680" 
d="M640 285q0 -11 -7 -18t-18 -7h-550q-25 0 -25 25v60q0 11 7 18t18 7h550q25 0 25 -25v-60z" />
    <glyph glyph-name="emdash" unicode="&#x2014;" horiz-adv-x="885" 
d="M845 285q0 -11 -7 -18t-18 -7h-755q-25 0 -25 25v60q0 11 7 18t18 7h755q25 0 25 -25v-60z" />
    <glyph glyph-name="quoteleft" unicode="&#x2018;" horiz-adv-x="235" 
d="M185 505q0 -15 -10 -25t-25 -10h-65q-15 0 -25 10t-10 25v60q0 23 3.5 33.5t6.5 16.5l38 65q5 8 13 14t20 6h24q8 0 13.5 -6t1.5 -14l-40 -80h20q15 0 25 -10t10 -25v-60z" />
    <glyph glyph-name="quoteright" unicode="&#x2019;" horiz-adv-x="235" 
d="M50 665q0 15 10 25t25 10h65q15 0 25 -10t10 -25v-60q0 -23 -3.5 -33.5t-6.5 -16.5l-38 -65q-5 -8 -13 -14t-20 -6h-24q-8 0 -13.5 6t-1.5 14l40 80h-20q-15 0 -25 10t-10 25v60z" />
    <glyph glyph-name="quotesinglbase" unicode="&#x201a;" horiz-adv-x="235" 
d="M50 95q0 15 10 25t25 10h65q15 0 25 -10t10 -25v-60q0 -23 -3.5 -33.5t-6.5 -16.5l-38 -65q-5 -8 -13 -14t-20 -6h-24q-8 0 -13.5 6t-1.5 14l40 80h-20q-15 0 -25 10t-10 25v60z" />
    <glyph glyph-name="quotedblleft" unicode="&#x201c;" horiz-adv-x="430" 
d="M380 505q0 -15 -10 -25t-25 -10h-65q-15 0 -25 10t-10 25v60q0 23 3.5 33.5t6.5 16.5l38 65q5 8 13 14t20 6h24q8 0 13.5 -6t1.5 -14l-40 -80h20q15 0 25 -10t10 -25v-60zM185 505q0 -15 -10 -25t-25 -10h-65q-15 0 -25 10t-10 25v60q0 23 3.5 33.5t6.5 16.5l38 65
q5 8 13 14t20 6h24q8 0 13.5 -6t1.5 -14l-40 -80h20q15 0 25 -10t10 -25v-60z" />
    <glyph glyph-name="quotedblright" unicode="&#x201d;" horiz-adv-x="430" 
d="M245 665q0 15 10 25t25 10h65q15 0 25 -10t10 -25v-60q0 -23 -3.5 -33.5t-6.5 -16.5l-38 -65q-5 -8 -13 -14t-20 -6h-24q-8 0 -13.5 6t-1.5 14l40 80h-20q-15 0 -25 10t-10 25v60zM50 665q0 15 10 25t25 10h65q15 0 25 -10t10 -25v-60q0 -23 -3.5 -33.5t-6.5 -16.5
l-38 -65q-5 -8 -13 -14t-20 -6h-24q-8 0 -13.5 6t-1.5 14l40 80h-20q-15 0 -25 10t-10 25v60z" />
    <glyph glyph-name="quotedblbase" unicode="&#x201e;" horiz-adv-x="425" 
d="M240 95q0 15 10 25t25 10h65q15 0 25 -10t10 -25v-60q0 -23 -3.5 -33.5t-6.5 -16.5l-38 -65q-5 -8 -13 -14t-20 -6h-24q-8 0 -13.5 6t-1.5 14l40 80h-20q-15 0 -25 10t-10 25v60zM50 95q0 15 10 25t25 10h65q15 0 25 -10t10 -25v-60q0 -23 -3.5 -33.5t-6.5 -16.5l-38 -65
q-5 -8 -13 -14t-20 -6h-24q-8 0 -13.5 6t-1.5 14l40 80h-20q-15 0 -25 10t-10 25v60z" />
    <glyph glyph-name="dagger" unicode="&#x2020;" horiz-adv-x="620" 
d="M380 -25q0 -25 -25 -25h-90q-25 0 -25 25v440h-175q-25 0 -25 25v65q0 25 25 25h175v195q0 25 25 25h90q25 0 25 -25v-195h175q25 0 25 -25v-65q0 -25 -25 -25h-175v-440z" />
    <glyph glyph-name="daggerdbl" unicode="&#x2021;" horiz-adv-x="630" 
d="M385 250h175q25 0 25 -25v-65q0 -25 -25 -25h-175v-160q0 -25 -25 -25h-90q-25 0 -25 25v160h-175q-25 0 -25 25v65q0 25 25 25h175v200h-175q-25 0 -25 25v65q0 25 25 25h175v160q0 25 25 25h90q25 0 25 -25v-160h175q25 0 25 -25v-65q0 -25 -25 -25h-175v-200z" />
    <glyph glyph-name="bullet" unicode="&#x2022;" horiz-adv-x="430" 
d="M100 325q0 23 9 43t24.5 35t36.5 23.5t45 8.5t45 -8.5t36.5 -23.5t24.5 -35t9 -43q0 -22 -9 -42t-24.5 -35t-36.5 -24t-45 -9t-45 9t-36.5 24t-24.5 35t-9 42z" />
    <glyph glyph-name="ellipsis" unicode="&#x2026;" horiz-adv-x="745" 
d="M50 95q0 15 10 25t25 10h65q15 0 25 -10t10 -25v-60q0 -15 -10 -25t-25 -10h-65q-15 0 -25 10t-10 25v60zM305 95q0 15 10 25t25 10h65q15 0 25 -10t10 -25v-60q0 -15 -10 -25t-25 -10h-65q-15 0 -25 10t-10 25v60zM560 95q0 15 10 25t25 10h65q15 0 25 -10t10 -25v-60
q0 -15 -10 -25t-25 -10h-65q-15 0 -25 10t-10 25v60z" />
    <glyph glyph-name="perthousand" unicode="&#x2030;" horiz-adv-x="1295" 
d="M750 700q11 0 17.5 -7t-2.5 -18l-490 -650q-8 -11 -19 -18t-26 -7h-90q-11 0 -16 8.5t1 16.5l490 650q8 11 19 18t26 7h90zM135 545q0 -42 22.5 -66t52.5 -24t52.5 24t22.5 66t-22.5 66t-52.5 24t-52.5 -24t-22.5 -66zM25 545q0 38 13.5 70t38 55t58.5 36.5t75 13.5
t75 -13.5t58.5 -36.5t38 -55t13.5 -70q0 -37 -13.5 -69.5t-38 -55.5t-58.5 -36.5t-75 -13.5t-75 13.5t-58.5 36.5t-38 55.5t-13.5 69.5zM605 155q0 -42 22.5 -66t52.5 -24t52.5 24t22.5 66t-22.5 66t-52.5 24t-52.5 -24t-22.5 -66zM495 155q0 38 13.5 70t38 55t58.5 36.5
t75 13.5t75 -13.5t58.5 -36.5t38 -55t13.5 -70q0 -37 -13.5 -69.5t-38 -55.5t-58.5 -36.5t-75 -13.5t-75 13.5t-58.5 36.5t-38 55.5t-13.5 69.5zM1010 155q0 -42 22.5 -66t52.5 -24t52.5 24t22.5 66t-22.5 66t-52.5 24t-52.5 -24t-22.5 -66zM900 155q0 38 13.5 70t38 55
t58.5 36.5t75 13.5t75 -13.5t58.5 -36.5t38 -55t13.5 -70q0 -37 -13.5 -69.5t-38 -55.5t-58.5 -36.5t-75 -13.5t-75 13.5t-58.5 36.5t-38 55.5t-13.5 69.5z" />
    <glyph glyph-name="guilsinglleft" unicode="&#x2039;" horiz-adv-x="402" 
d="M49 240q-9 9 -9 22.5t9 22.5l215 210q8 8 17.5 8t17.5 -8l45 -45q8 -8 8 -17.5t-8 -17.5l-160 -150v-5l160 -150q8 -8 8 -17.5t-8 -17.5l-45 -45q-8 -8 -17.5 -8t-17.5 8z" />
    <glyph glyph-name="guilsinglright" unicode="&#x203a;" horiz-adv-x="402" 
d="M138 30q-8 -8 -17.5 -8t-17.5 8l-45 45q-8 8 -8 17.5t8 17.5l160 150v5l-160 150q-8 8 -8 17.5t8 17.5l45 45q8 8 17.5 8t17.5 -8l215 -210q9 -9 9 -22.5t-9 -22.5z" />
    <glyph glyph-name="fraction" unicode="&#x2044;" horiz-adv-x="677" 
d="M514 675q5 8 14.5 16.5t25.5 8.5h85q11 0 15.5 -9t-0.5 -16l-490 -651q-8 -11 -16.5 -17.5t-23.5 -6.5h-85q-11 0 -16 8.5t1 16.5z" />
    <glyph glyph-name="foursuperior" unicode="&#x2074;" horiz-adv-x="445" 
d="M340 709q8 0 14 -5.5t6 -13.5v-180h25q8 0 14 -6t6 -14v-40q0 -8 -6 -14t-14 -6h-25v-45q0 -8 -6 -14t-14 -6h-60q-8 0 -14 6t-6 14v45h-200q-8 0 -14 6t-6 14v40q0 17 15 30l175 170q9 8 18.5 13.5t18.5 5.5h73zM255 600l-85 -85v-5h90v90h-5z" />
    <glyph glyph-name="Euro" unicode="&#x20ac;" horiz-adv-x="885" 
d="M485 720q79 0 140.5 -20.5t105.5 -54.5t70.5 -77t33.5 -88q0 -25 -25 -25h-90q-15 0 -23 7t-12 18q-9 26 -25.5 49.5t-41 41.5t-57.5 28.5t-76 10.5q-79 0 -135.5 -37t-83.5 -103h244q25 0 25 -25v-40q0 -25 -25 -25h-265v-60h265q25 0 25 -25v-40q0 -25 -25 -25h-244
q28 -68 85 -104t134 -36q45 0 79 10.5t59.5 29.5t43 44.5t28.5 55.5q5 11 12.5 18t22.5 7h90q25 0 25 -25q-7 -49 -33.5 -94t-71.5 -79.5t-108.5 -55.5t-146.5 -21q-149 0 -245.5 66t-129.5 184h-65q-25 0 -25 25v40q0 25 25 25h50v60h-50q-25 0 -25 25v40q0 25 25 25h65
q33 117 129.5 183.5t245.5 66.5z" />
    <glyph glyph-name="uni20B4" unicode="&#x20b4;" horiz-adv-x="765" 
d="M460 465q15 8 28 19q11 10 19 23.5t8 32.5q0 15 -5.5 29.5t-20 26t-40 18t-64.5 6.5q-36 0 -62.5 -7.5t-45 -20t-30 -28t-17.5 -30.5q-5 -11 -13 -17.5t-17 -6.5h-75q-11 0 -18 6.5t-7 17.5q3 33 21.5 66.5t53.5 60t87.5 43t122.5 16.5q74 0 126.5 -15t87 -39.5t50.5 -57
t16 -68.5q0 -17 -4 -30t-8 -22q-6 -10 -13 -18v-5h55q11 0 18 -7.5t7 -17.5v-35q0 -25 -25 -25h-625q-25 0 -25 25v35q0 25 25 25h390zM305 235q-15 -8 -27 -19q-12 -10 -20 -23.5t-8 -32.5q0 -15 5.5 -29.5t20 -26t40 -18t64.5 -6.5q36 0 62.5 7.5t45 20t30 28t17.5 30.5
q5 11 13 17.5t17 6.5h75q11 0 18 -6.5t7 -17.5q-3 -33 -21.5 -66.5t-53.5 -60t-87 -43t-123 -16.5q-73 0 -126 15t-87.5 39.5t-50.5 57t-16 68.5q0 17 4 30t9 22q5 10 12 18v5h-55q-11 0 -18 7.5t-7 17.5v35q0 25 25 25h625q25 0 25 -25v-35q0 -25 -25 -25h-390z" />
    <glyph glyph-name="uni20BD" unicode="&#x20bd;" horiz-adv-x="800" 
d="M645 130q0 -11 -7 -18t-18 -7h-360v-80q0 -25 -25 -25h-95q-25 0 -25 25v80h-65q-25 0 -25 25v55q0 11 7 18t18 7h65v40h-65q-25 0 -25 25v55q0 11 7 18t18 7h65v320q0 25 25 25h330q75 0 131.5 -17.5t94 -48.5t56 -73t18.5 -91q0 -45 -18.5 -85t-56 -70t-94 -47.5
t-131.5 -17.5h-210v-40h360q25 0 25 -25v-55zM260 585v-230h210q36 0 63.5 9.5t47 25.5t29.5 37t10 43q0 23 -10 43.5t-29.5 36.5t-47 25.5t-63.5 9.5h-210z" />
    <glyph glyph-name="afii61352" unicode="&#x2116;" horiz-adv-x="1285" 
d="M630 205h5v470q0 25 25 25h95q25 0 25 -25v-650q0 -25 -25 -25h-111q-14 0 -25 7.5t-19 17.5l-360 470h-5v-470q0 -25 -25 -25h-95q-25 0 -25 25v650q0 25 25 25h111q14 0 25 -7.5t19 -17.5zM985 545q0 -42 22.5 -66t52.5 -24t52.5 24t22.5 66t-22.5 66t-52.5 24
t-52.5 -24t-22.5 -66zM875 545q0 38 13.5 70t38 55t58.5 36.5t75 13.5t75 -13.5t58.5 -36.5t38 -55t13.5 -70q0 -37 -13.5 -69.5t-38 -55.5t-58.5 -36.5t-75 -13.5t-75 13.5t-58.5 36.5t-38 55.5t-13.5 69.5zM1230 210q0 -11 -7 -18t-18 -7h-294q-25 0 -25 25v55q0 11 7 18
t18 7h294q25 0 25 -25v-55z" />
    <glyph glyph-name="trademark" unicode="&#x2122;" horiz-adv-x="940" 
d="M625 360q-11 0 -18.5 6t-11.5 14l-85 174h-5v-174q0 -8 -6 -14t-14 -6h-60q-8 0 -14 6t-6 14v298q0 9 6.5 15.5t15.5 6.5h83q8 0 17.5 -6t12.5 -14l100 -205h5l100 205q3 8 12.5 14t17.5 6h83q9 0 15.5 -6.5t6.5 -15.5v-298q0 -8 -6 -14t-14 -6h-60q-8 0 -14 6t-6 14v174
h-5l-85 -174q-4 -8 -10.5 -14t-14.5 -6h-40zM10 680q0 8 6 14t14 6h310q8 0 14 -6t6 -14v-45q0 -8 -6 -14t-14 -6h-105v-235q0 -8 -6 -14t-14 -6h-60q-8 0 -14 6t-6 14v235h-103q-9 0 -15.5 6.5t-6.5 15.5v43z" />
    <glyph glyph-name="minus" unicode="&#x2212;" horiz-adv-x="570" 
d="M530 305q0 -11 -7 -18t-18 -7h-440q-25 0 -25 25v55q0 11 7 18t18 7h440q25 0 25 -25v-55z" />
    <glyph glyph-name="commaaccent" unicode="&#xf6c3;" horiz-adv-x="215" 
d="M40 -95q0 15 10 25t25 10h65q15 0 25 -10t10 -25v-60q0 -23 -3.5 -33.5t-6.5 -16.5l-38 -65q-5 -8 -13 -14t-20 -6h-24q-8 0 -13.5 6t-1.5 14l40 80h-20q-15 0 -25 10t-10 25v60z" />
    <glyph glyph-name="cyrBreve" unicode="&#xf6d1;" horiz-adv-x="470" 
d="M235 770q-43 0 -79 14t-61.5 37.5t-40 54t-14.5 64.5q0 8 6 14t14 6h55q8 0 15.5 -6t9.5 -14q6 -34 33 -57t62 -23t62 23t33 57q2 8 9.5 14t15.5 6h55q8 0 14 -6t6 -14q0 -34 -14.5 -64.5t-40 -54t-61.5 -37.5t-79 -14z" />
    <glyph glyph-name="cyrbreve" unicode="&#xf6d4;" horiz-adv-x="450" 
d="M225 595q-43 0 -77.5 12.5t-58.5 33.5t-36.5 49t-12.5 60q0 8 6 14t14 6h60q8 0 13 -6t7 -14q8 -29 29 -49.5t56 -20.5t56 20.5t29 49.5q2 8 7 14t13 6h60q8 0 14 -6t6 -14q0 -32 -12.5 -60t-36.5 -49t-58.5 -33.5t-77.5 -12.5z" />
    <glyph glyph-name="Germandbls" horiz-adv-x="785" 
d="M385 115q23 0 37.5 -5t37.5 -5q72 0 103.5 28t31.5 77q0 28 -7.5 49t-25 34.5t-47.5 20t-75 6.5h-65q-14 0 -19.5 10t-0.5 20l125 235h-95q-75 0 -117.5 -43t-42.5 -122v-395q0 -25 -25 -25h-95q-25 0 -25 25v395q0 132 77 206t228 74h245q11 0 15 -8.5t0 -16.5
l-130 -250q53 -4 95.5 -22t72.5 -46.5t46 -66t16 -80.5q0 -49 -17 -89.5t-52.5 -69.5t-89 -45t-126.5 -16h-110q-25 0 -25 25v75q0 25 25 25h35z" />
    <glyph glyph-name="foundryicon" horiz-adv-x="1230" 
d="M100 810h1030v-920h-1030v920zM1110 790h-990v-880h990v880zM745 610q38 0 59 -19.5t21 -45.5t-21 -45.5t-59 -19.5h-55v-80h-55v210h110zM745 300q38 0 59 -19.5t21 -45.5t-21 -45.5t-59 -19.5h-55v-80h-55v210h110zM420 300h60l40 -75h5l40 75h65l-80 -130v-80h-55v80z
M420 610h60l40 -75h5l40 75h65l-80 -130v-80h-55v80zM235 255v45h165l25 -45h-70v-165h-55v165h-65zM235 565v45h165l25 -45h-70v-165h-55v165h-65zM790 465q19 4 37.5 20.5t22.5 39.5h80v-45h-85v-35h120v-45h-175v65zM790 155q19 4 37.5 20.5t22.5 39.5h80v-45h-85v-35
h120v-45h-175v65zM965 300v-45h-115q-4 15 -14.5 28t-25.5 17h155zM965 610v-45h-115q-4 15 -14.5 28t-25.5 17h155zM765 545q0 8 -6 14t-14 6h-55v-40h55q8 0 14 6t6 14zM765 235q0 8 -6 14t-14 6h-55v-40h55q8 0 14 6t6 14z" />
    </font>
</defs>
</svg>
