<?xml version="1.0" encoding="iso-8859-1"?>
<!-- Generator: Adobe Illustrator 19.0.0, SVG Export Plug-In . SVG Version: 6.00 Build 0)  -->
<svg width="100%" height="100%" version="1.1" id="disLike" xmlns="http://www.w3.org/2000/svg"
     xmlns:xlink="http://www.w3.org/1999/xlink"
      x="0px" y="0px"
	 viewBox="0 0 512 512" style="enable-background:new 0 0 512 512;" xml:space="preserve">
<g>
	<g>
		<path d="M359.511,40.591c-24.478,0-47.871,5.774-69.53,17.163c-2.331,1.226-4.084,3.321-4.879,5.832l-30.55,96.472
			c-0.963,3.039-0.418,6.355,1.465,8.927c1.884,2.572,4.881,4.092,8.068,4.092h35.488l-40.504,127.905
			c-0.963,3.039-0.418,6.355,1.465,8.927c1.884,2.572,4.881,4.092,8.068,4.092h35.331l-41.707,126.785l0.007-95.149
			c0-2.652-1.054-5.196-2.929-7.072s-4.419-2.929-7.071-2.929h-35.49l40.503-127.905c0.963-3.039,0.418-6.355-1.465-8.927
			c-1.884-2.572-4.881-4.092-8.068-4.092h-35.488l35.396-111.774c1.268-4.001-0.099-8.368-3.42-10.933
			c-26.606-20.551-58.32-31.414-91.712-31.414C68.406,40.591,0,110.666,0,196.799c0,47.083,37.969,104.819,112.851,171.605
			c56.731,50.598,116.879,90.415,133.962,101.413c1.644,1.059,3.526,1.592,5.413,1.592c1.645,0,3.293-0.405,4.789-1.221
			c2.328-1.27,4.005-3.393,4.76-5.855c1.75,1.277,3.816,1.927,5.891,1.927c1.915,0,3.835-0.549,5.51-1.656
			c23.325-15.405,83.343-56.572,136.759-105.993C477.66,295.948,512,241.508,512,196.799C512,110.666,443.594,40.591,359.511,40.591
			z M242.227,442.838c-25.623-17.243-71.917-49.986-116.064-89.359C56.71,291.536,20,237.357,20,196.799
			c0-75.106,59.435-136.209,132.489-136.209c26.627,0,52.032,7.981,73.898,23.15l-37.352,117.952
			c-0.963,3.039-0.418,6.355,1.465,8.927c1.884,2.572,4.881,4.092,8.068,4.092h35.488l-40.503,127.905
			c-0.963,3.039-0.418,6.355,1.465,8.927c1.884,2.572,4.881,4.092,8.068,4.092h39.146L242.227,442.838z M286.325,431.532
			l40.924-124.407c1.003-3.047,0.482-6.39-1.398-8.988c-1.88-2.598-4.894-4.137-8.101-4.137h-35.491l40.504-127.905
			c0.963-3.039,0.418-6.355-1.465-8.927c-1.884-2.572-4.881-4.092-8.068-4.092h-35.488l25.16-79.451
			c17.738-8.652,36.762-13.035,56.609-13.035C432.565,60.591,492,121.693,492,196.799C492,264.724,389.813,359.579,286.325,431.532z
			"/>
	</g>
</g>
<g>
	<g>
		<path d="M455.213,152.311c-14.432-32.793-42.597-56.973-75.343-64.681c-5.372-1.267-10.757,2.067-12.025,7.442
			c-1.265,5.376,2.067,10.759,7.443,12.025c26.667,6.278,49.703,26.192,61.62,53.27c1.647,3.745,5.313,5.974,9.157,5.974
			c1.346,0,2.713-0.273,4.024-0.849C455.144,163.268,457.439,157.366,455.213,152.311z"/>
	</g>
</g>
<g>
	<g>
		<path d="M464.355,184.055c-0.015-0.085-0.029-0.171-0.045-0.252c-1.034-5.425-6.262-8.988-11.694-7.952
			c-5.345,1.018-8.88,6.115-7.995,11.453c0.019,0.121,0.042,0.245,0.065,0.361c0.95,4.754,5.126,8.041,9.795,8.041
			c0.651,0,1.311-0.064,1.972-0.196C461.764,194.448,465.245,189.36,464.355,184.055z"/>
	</g>
</g>
<g>
</g>
<g>
</g>
<g>
</g>
<g>
</g>
<g>
</g>
<g>
</g>
<g>
</g>
<g>
</g>
<g>
</g>
<g>
</g>
<g>
</g>
<g>
</g>
<g>
</g>
<g>
</g>
<g>
</g>
</svg>
