<svg id="noPosts" enable-background="new 0 0 511.125 511.125" height="100%" viewBox="0 0 511.125 511.125" width="100%"
     xmlns="http://www.w3.org/2000/svg">
    <g>
        <path d="m499.215 430.976h-12.525v-289.815c0-17.284-14.062-31.346-31.345-31.346h-21.58c-4.142 0-7.5 3.357-7.5 7.5s3.358 7.5 7.5 7.5h21.58c9.013 0 16.345 7.333 16.345 16.346v289.814h-432.255v-289.814c0-9.013 7.333-16.346 16.345-16.346h21.58c4.142 0 7.5-3.357 7.5-7.5s-3.358-7.5-7.5-7.5h-21.58c-17.284 0-31.345 14.062-31.345 31.346v289.814h-12.525c-6.567 0-11.91 5.343-11.91 11.91v6.258c0 18.993 15.452 34.445 34.445 34.445h442.235c18.993 0 34.445-15.452 34.445-34.445v-6.258c0-6.567-5.343-11.909-11.91-11.909zm-3.09 18.168c0 10.723-8.723 19.445-19.445 19.445h-442.235c-10.722 0-19.445-8.723-19.445-19.445v-3.168h481.125z"/>
        <path d="m69.435 400.976v-246.16h7.925c4.142 0 7.5-3.357 7.5-7.5s-3.358-7.5-7.5-7.5h-15.425c-4.142 0-7.5 3.357-7.5 7.5v261.16c0 4.143 3.358 7.5 7.5 7.5h387.255c4.142 0 7.5-3.357 7.5-7.5v-61.514c0-4.143-3.358-7.5-7.5-7.5s-7.5 3.357-7.5 7.5v54.014h-30.425v-297.802c0-11.132-9.056-20.188-20.188-20.188h-24.811c-4.142 0-7.5 3.357-7.5 7.5s3.358 7.5 7.5 7.5h24.811c2.86 0 5.188 2.327 5.188 5.188v297.802h-25.503v-24.078c0-7.306-5.943-13.249-13.249-13.249h-203.901c-7.306 0-13.249 5.943-13.249 13.249v24.078h-25.503v-297.802c0-2.86 2.327-5.188 5.188-5.188h24.811c4.142 0 7.5-3.357 7.5-7.5s-3.358-7.5-7.5-7.5h-24.811c-11.131 0-20.188 9.056-20.188 20.188v297.802zm85.928-22.328h200.399v22.327h-200.399z"/>
        <path d="m449.19 322.499c4.142 0 7.5-3.357 7.5-7.5v-167.684c0-4.143-3.358-7.5-7.5-7.5h-15.425c-4.142 0-7.5 3.357-7.5 7.5s3.358 7.5 7.5 7.5h7.925v160.184c0 4.143 3.358 7.5 7.5 7.5z"/>
        <path d="m204.537 159.926h22.524l15.532 15.533c3.576 3.575 8.272 5.362 12.969 5.362 4.696 0 9.393-1.787 12.969-5.363l15.532-15.532h22.524c20.5 0 37.179-16.679 37.179-37.179v-58.032c0-20.5-16.678-37.179-37.179-37.179h-50.764c-4.142 0-7.5 3.357-7.5 7.5s3.358 7.5 7.5 7.5h50.764c12.229 0 22.179 9.949 22.179 22.179v58.032c0 12.229-9.949 22.179-22.179 22.179h-25.631c-1.989 0-3.897.79-5.303 2.197l-17.729 17.729c-1.303 1.303-3.422 1.303-4.725 0l-17.729-17.729c-1.406-1.407-3.314-2.197-5.303-2.197h-25.631c-12.229 0-22.179-9.949-22.179-22.179v-58.032c0-12.229 9.949-22.179 22.179-22.179h19.325c4.142 0 7.5-3.357 7.5-7.5s-3.358-7.5-7.5-7.5h-19.325c-20.5 0-37.179 16.679-37.179 37.179v58.032c.001 20.5 16.68 37.179 37.18 37.179z"/>
        <path d="m217.702 67.971c-10.846 10.847-10.846 28.496 0 39.344l27.487 27.487c2.771 2.771 6.454 4.296 10.373 4.296s7.602-1.525 10.373-4.296l27.488-27.488c10.846-10.847 10.846-28.496-.001-39.344-10.268-10.268-26.632-10.817-37.552-1.643-10.892-9.425-27.591-8.931-37.878 1.354zm10.603 10.61.289-.288c2.483-2.483 5.774-3.729 9.068-3.729 3.207 0 6.415 1.181 8.88 3.549l4.189 4.024c2.945 2.831 7.612 2.782 10.5-.105l3.455-3.455c4.999-4.998 13.132-4.997 18.131-.001 4.998 4.999 4.998 13.133 0 18.131l-27.253 27.254-27.253-27.253c-5-4.999-5-13.133-.006-18.127z"/>
        <path d="m139.365 261.155c1.223 3.957 5.424 6.177 9.38 4.95 3.958-1.223 6.174-5.423 4.951-9.38-1.186-3.835-1.787-7.836-1.787-11.89 0-22.176 18.041-40.217 40.217-40.217s40.217 18.041 40.217 40.217-18.042 40.218-40.217 40.218c-7.87 0-15.497-2.28-22.058-6.596-3.46-2.274-8.111-1.314-10.387 2.146-2.276 3.461-1.316 8.111 2.145 10.388 9.015 5.929 19.492 9.063 30.3 9.063 30.447 0 55.217-24.771 55.217-55.218 0-30.446-24.771-55.217-55.217-55.217s-55.217 24.771-55.217 55.217c0 5.557.826 11.048 2.456 16.319z"/>
        <path d="m370.762 244.836c0-4.143-3.358-7.5-7.5-7.5h-89.348c-4.142 0-7.5 3.357-7.5 7.5s3.358 7.5 7.5 7.5h89.348c4.142 0 7.5-3.357 7.5-7.5z"/>
        <path d="m163.26 329.653c-4.142 0-7.5 3.357-7.5 7.5s3.358 7.5 7.5 7.5h11.599c4.142 0 7.5-3.357 7.5-7.5s-3.358-7.5-7.5-7.5z"/>
        <path d="m337.266 329.653c-4.142 0-7.5 3.357-7.5 7.5s3.358 7.5 7.5 7.5h11.599c4.142 0 7.5-3.357 7.5-7.5s-3.358-7.5-7.5-7.5z"/>
        <path d="m201.748 329.653c-4.142 0-7.5 3.357-7.5 7.5s3.358 7.5 7.5 7.5h107.218c4.142 0 7.5-3.357 7.5-7.5s-3.358-7.5-7.5-7.5z"/>
    </g>
</svg>
